<?xml version="1.0" encoding="utf-8"?>
<!-- Generator: Adobe Illustrator 27.0.0, SVG Export Plug-In . SVG Version: 6.00 Build 0)  -->
<svg version="1.1" id="Layer_1" xmlns="http://www.w3.org/2000/svg" xmlns:xlink="http://www.w3.org/1999/xlink" x="0px" y="0px"
	 viewBox="0 0 407.6 167.2" style="enable-background:new 0 0 407.6 167.2;" xml:space="preserve">
<style type="text/css">
	.st0{fill:#312E30;}
</style>
<path class="st0" d="M331.8,32.9c0,17,14,23.4,36.1,23.4c22.3,0,29.1-11.3,29.1-18.6h-10.5c-2.9,7-9.8,10-18.8,10
	c-10,0-18.4-4.5-18.4-14.7c0-9.8,7.5-14.1,18.5-14.1c10,0,18.7,4.8,18.7,10.8v2.6h10V10.7h-10v3.9c-4.1-2.5-11.4-5.2-18.8-5.2
	C347.7,9.4,331.8,17.2,331.8,32.9 M295.8,55.5H326v-8.9h-7.8V19.1h7.8v-8.3h-30.2v8.3h7.5v27.4h-7.5V55.5z M225,28.1h10v-9h14.4
	v27.4H240v8.9h33.7v-8.9h-9.5V19.1h14.4v9h10V10.8H225V28.1z M152,32.9c0,17,14,23.4,36.1,23.4c22.3,0,29.1-11.3,29.1-18.6h-10.5
	c-2.9,7-9.8,10-18.8,10c-10,0-18.4-4.5-18.4-14.7c0-9.8,7.5-14.1,18.5-14.1c10,0,18.7,4.8,18.7,10.8v2.6h10V10.7h-10v3.9
	c-4.1-2.5-11.4-5.2-18.8-5.2C167.8,9.4,152,17.2,152,32.9 M109.8,28.9v-9.7c3.1,0,6.1-0.1,9.2-0.1c0.9,0,1.7,0.1,2.6,0.1
	c3.8,0.1,6.7,0.3,6.7,4.8c0,3.9-1.3,4.9-11.8,4.9H109.8z M122.1,10.8H87.4v8.3h7.5v27.4h-7.2v8.9h30.2v-8.9h-8.1V36.4h3.5l16.1,19
	h18.8v-8.9h-7.9l-10.5-10.9c7.4-1.3,13.9-4.5,13.9-12.8C143.6,12.1,133.4,10.8,122.1,10.8 M13.3,55.5H40v-8.9h-4.3l1.8-3.1h19.2
	l1.6,3.1h-3.5v8.9h26.8v-8.9h-5.7l-21.8-38L44.7,11L22.4,46.5h-9.1V55.5z M42.4,35.2l5.4-9l4.6,9H42.4z"/>
<path class="st0" d="M342.9,82.4c13.6,0,33.6,4.1,33.6,13.8v5.3h20.4V65.8h-20.4v7.3c-7.3-5-23.5-9.9-37.1-9.9
	c-20.1,0-48.5,6.4-48.5,31.4c0,22.9,30.5,28.6,41.4,30c22.8,2.9,35.1,0.9,35.1,9.9c0,6.4-12.6,8.6-21.3,8.6
	c-15.7,0-37.4-3-37.4-15.2v-5.3h-20.4v37.1h20.4v-4c7.7,4,20.4,6.7,34.9,6.7c37.3,0,54.5-11.7,54.5-29.9c0-35.2-41.1-31.2-65.6-35.7
	c-6.1-1-11.2-1.9-11.2-5.3C321.1,83.8,326.8,82.4,342.9,82.4 M145.7,158.9h68.1c37.1,0,61.6-14.7,61.6-46.5s-26.5-45-63.3-45h-66.3
	v17H161v56.1h-15.4V158.9z M191.7,140.6V84.5h20.9c22.2,0,29.6,9,29.6,28c0,19.2-5.8,28.1-27.8,28.1H191.7z M13.3,159.1h115.6v-35.7
	h-20.4v17.3H59.3v-20.1H93v-17H59.3V84.5h49.1V103h20.4V67.5H13.3v17h15.4v56.2H13.3V159.1z"/>
</svg>
