<?xml version="1.0" encoding="UTF-8" standalone="no"?>
<!-- Generator: Adobe Illustrator 27.0.0, SVG Export Plug-In . SVG Version: 6.00 Build 0)  -->

<svg
   version="1.1"
   id="Layer_1"
   x="0px"
   y="0px"
   viewBox="0 0 384.79998 153.80001"
   xml:space="preserve"
   sodipodi:docname="arctic-eds-logo.svg"
   width="384.79999"
   height="153.8"
   inkscape:version="1.3 (0e150ed, 2023-07-21)"
   xmlns:inkscape="http://www.inkscape.org/namespaces/inkscape"
   xmlns:sodipodi="http://sodipodi.sourceforge.net/DTD/sodipodi-0.dtd"
   xmlns="http://www.w3.org/2000/svg"
   xmlns:svg="http://www.w3.org/2000/svg"><defs
   id="defs2" /><sodipodi:namedview
   id="namedview2"
   pagecolor="#ffffff"
   bordercolor="#000000"
   borderopacity="0.25"
   inkscape:showpageshadow="2"
   inkscape:pageopacity="0.0"
   inkscape:pagecheckerboard="0"
   inkscape:deskcolor="#d1d1d1"
   inkscape:zoom="1.4114833"
   inkscape:cx="190.22542"
   inkscape:cy="75.098304"
   inkscape:window-width="1312"
   inkscape:window-height="449"
   inkscape:window-x="0"
   inkscape:window-y="25"
   inkscape:window-maximized="0"
   inkscape:current-layer="Layer_1" />&#10;<style
   type="text/css"
   id="style1">&#10;	.st0{fill:#312E30;}&#10;</style>&#10;<path
   class="st0"
   d="m 318.5,24.3 c 0,17 14,23.4 36.1,23.4 22.3,0 29.1,-11.3 29.1,-18.6 h -10.5 c -2.9,7 -9.8,10 -18.8,10 -10,0 -18.4,-4.5 -18.4,-14.7 0,-9.8 7.5,-14.1 18.5,-14.1 10,0 18.7,4.8 18.7,10.8 v 2.6 h 10 V 2.1 h -10 V 6 c -4.1,-2.5 -11.4,-5.2 -18.8,-5.2 -20,0 -35.9,7.8 -35.9,23.5 m -36,22.6 h 30.2 V 38 h -7.8 V 10.5 h 7.8 V 2.2 h -30.2 v 8.3 h 7.5 v 27.4 h -7.5 z M 211.7,19.5 h 10 v -9 h 14.4 v 27.4 h -9.4 v 8.9 h 33.7 v -8.9 h -9.5 V 10.5 h 14.4 v 9 h 10 V 2.2 h -63.6 z m -73,4.8 c 0,17 14,23.4 36.1,23.4 22.3,0 29.1,-11.3 29.1,-18.6 h -10.5 c -2.9,7 -9.8,10 -18.8,10 -10,0 -18.4,-4.5 -18.4,-14.7 0,-9.8 7.5,-14.1 18.5,-14.1 10,0 18.7,4.8 18.7,10.8 v 2.6 h 10 V 2.1 h -10 V 6 C 189.3,3.5 182,0.8 174.6,0.8 c -20.1,0 -35.9,7.8 -35.9,23.5 m -42.2,-4 v -9.7 c 3.1,0 6.1,-0.1 9.2,-0.1 0.9,0 1.7,0.1 2.6,0.1 3.8,0.1 6.7,0.3 6.7,4.8 0,3.9 -1.3,4.9 -11.8,4.9 z M 108.8,2.2 H 74.1 v 8.3 h 7.5 v 27.4 h -7.2 v 8.9 h 30.2 V 37.9 H 96.5 V 27.8 h 3.5 l 16.1,19 h 18.8 V 37.9 H 127 L 116.5,27 c 7.4,-1.3 13.9,-4.5 13.9,-12.8 -0.1,-10.7 -10.3,-12 -21.6,-12 M 0,46.9 H 26.7 V 38 h -4.3 l 1.8,-3.1 H 43.4 L 45,38 h -3.5 v 8.9 H 68.3 V 38 H 62.6 L 40.8,0 31.4,2.4 9.1,37.9 H 0 Z m 29.1,-20.3 5.4,-9 4.6,9 z"
   id="path1" />&#10;<path
   class="st0"
   d="m 329.6,73.8 c 13.6,0 33.6,4.1 33.6,13.8 v 5.3 h 20.4 V 57.2 h -20.4 v 7.3 c -7.3,-5 -23.5,-9.9 -37.1,-9.9 -20.1,0 -48.5,6.4 -48.5,31.4 0,22.9 30.5,28.6 41.4,30 22.8,2.9 35.1,0.9 35.1,9.9 0,6.4 -12.6,8.6 -21.3,8.6 -15.7,0 -37.4,-3 -37.4,-15.2 V 114 H 275 v 37.1 h 20.4 v -4 c 7.7,4 20.4,6.7 34.9,6.7 37.3,0 54.5,-11.7 54.5,-29.9 0,-35.2 -41.1,-31.2 -65.6,-35.7 -6.1,-1 -11.2,-1.9 -11.2,-5.3 -0.2,-7.7 5.5,-9.1 21.6,-9.1 m -197.2,76.5 h 68.1 c 37.1,0 61.6,-14.7 61.6,-46.5 0,-31.8 -26.5,-45 -63.3,-45 h -66.3 v 17 h 15.2 v 56.1 h -15.4 v 18.4 z m 46,-18.3 V 75.9 h 20.9 c 22.2,0 29.6,9 29.6,28 0,19.2 -5.8,28.1 -27.8,28.1 z M 0,150.5 H 115.6 V 114.8 H 95.2 v 17.3 H 46 V 112 H 79.7 V 95 H 46 V 75.9 h 49.1 v 18.5 h 20.4 V 58.9 H 0 v 17 h 15.4 v 56.2 H 0 Z"
   id="path2" />&#10;</svg>
