<svg height="234.75" shape-rendering="crispEdges" viewBox="0 0 1659.08 234.75001" width="1659.08" xmlns="http://www.w3.org/2000/svg"><g transform="translate(0 -30.53)"><g fill="#312e30"><path d="m1272.38 248.62h245.28v-.62h-24.11s-5.03-2.35-7.55-2.2c.49-.83-.89-.86-2.22-1.33l-1.33-.46s2.68.31 4.16-.86 1.14-2.9.68-2.9-.89.8-1.23.74-3.98-1.54-5.21-3.98c2.56 1.79 6.6 0 6.6 0s-1.51-.43-2.37-.34c2.93-.71 3.45-2.1 3.45-2.1s-3.21 1.05-4.47.43-1.76-1.14-1.76-1.14 1.76.22 3.18-.34c-5-.31-6.81-2.5-7.06-3.45s-.86-1.94-.46-2.1c.4-.15 1.57.86 3.64 0-.35-.39-1.38-.58-1.38-.58s1.87-.68 1.87-1.44-1.58-.04-2.2-.31-1.99-1.46-1.99-1.79 1.75-.64 1.62-1.62c-.12-.99-1.62-.14-2.34-.66-.72-.51.29-1.42-.49-2.43.8-.25.8-.93.66-1.21-.14-.29-.97-.74-.88-1.52.08-.78.1-.76.41-.74s.21-.64-.08-.74-1.23-.64-1.25-1.03-.19-1.62-.08-2.38c.1-.76-.25-3.25-.33-3.29s-.37 1.99-.35 3.31-.43 1.93-.49 2.67.21 1.64.06 2.06c-.14.41-.7 1.6-.39 2.16s.58.62.12.84c-.45.23-1.46.72-1.23 1.21s.51.43.51.43-1.23.68-2.14.78c-.9.1-.82.97-.14 1.3s1.34.82 1.62.82.82-.39.97-.33c.14.06.33 1.21-.44 1.74-.77.52-.77.12-1.36.56-.59.43-.42.92-1 .99-.59.06-.86.43-.76.76.11.32 1.02.54 1.45.54s1.31-.08 1.31-.08-.54 1.28-2.36 2.45c2.13.23 3.25-1.46 3.25-1.46s-1.42 3.21-3.47 4.2c-2.06.99-3.02.72-3.1 1.13-1.05.06-1.27-.06-1.27-.06s.88.82 2.34 1.07 2.18.06 2.18.06-1.13.68-2.08.66c1.83.58 3.27-.23 3.27-.23s-1.15 1.6-2.61 1.54c.53.84 1.23.8 1.23.8s-.99 3.52-5.67 2.78c2.59-.43 2.25-1.87 2.75-2.38 1.05-1.07 1.19-1.99.82-2.04-.37-.04-5.43 1.85-8.08.14 2.63.47 4.69-.49 4.69-.49s-2.55-.39-3.04-.86.9-.78 1.83-.7 3.39-.84 3.95-1.77-.31-1.99-.31-1.99 1.77-.68 1.95-1.79c-2.65 1.46-4.11 1.64-5.41 1.11s-1.64-.27-2.36-.49c-.72-.23-1.83-1.38-1.83-1.38s.68-.49.88-1.03c2.14.78 4.03.39 4.63-.72s-.29-1.99-1.32-1.56-3.84-2.06-3.84-2.06 3.06.45 5.3-1.11c-1.3.14-1.99.16-1.99.16s2.45-1.19 2.47-3.37c.04-.41-.93.45-2.34.86s-4.58-1.32-4.58-1.32 2.55-1.05 2.55-2.61-1.87-.65-3.01-1.42-1.55-1.11-1.51-1.25 1.98-.86 2.86-3.22c-1.48.45-1.99 1.36-1.99 1.36s.03-3.87-.06-4.92-1.11-1.05-1.11-1.51-.17-4.72-1.18-4.66-.41 1.89-.08 2.24.02 1.17-.41 1.87-.47 1.52-.47 1.87-.78 1.15-.78 1.38.68 1.38.47 2.14-.58-.21-.41 1.34c.16 1.54 1.11.88.99 1.38-.12.49-.78.22-1.3.52s-.52.6-.84.61c-.32 0-1.95-.22-2.32.23s-.34.76-.34.76-.66-.29-1.08-.82c.44 1.57 1.06 1.93 1.62 2.17.56.25 1.26.16 1.55.45-.33.41-1.73.45-1.73.45s.97.4 2.27.39c1.3 0 2.34-.02 2.34-.02s-1.28.84-2.42 1.31-1.05.83-1.71.87-1.03.1-1.14.58c-.11.47.39 1.17 1.5 1.33 1.11.15 2.76.03 2.76.03s.73.34.09.84-1.71.46-2.15.95c-.44.48-.8.61-1.54.61s-.87.45-1.43.48-1.36 0-1.6.46-.09 1.07-.09 1.07-1.31-.14-1.78-.43c.96 1.05 2.85 2.13 4.35 2.05s2.43-.25 2.43-.25.27.56.68.56c-1.17.76-1.36 1.3-2.41 1.34s-5 0-6.8-1.6c1.54 2.47 3.29 2.98 3.29 2.98s-1.91-.06-2.24.76.27 2.1 1.77 2.3c1.5.21 1.67.84 2.24 1.11.58.27 2.94.41 2.94.41s-.87 1.62-2.54 1.65-7.52-1.6-7.52-1.6 2.07 2.31 3.85 3.02c-3.79-.03-13.91-3.24-15.73-5.4 3.21.46 9.37-.22 11.84-1.26-8.05-.62-17.42-4.1-19.73-6.35 6.04 1.85 10.98.12 10.98.12s-3.85-2.34-6.48-3.52c3.48-.03 5.49 1.63 7.18 2.07 1.7.43 9.56 1.08 11.81-.19 2.25-1.26 3.76-3.15 3.3-3.52s-2.37.71-5.06.52c-2.68-.19-5.64-2.07-7.74-2.53s-2.65-2.22-2.65-2.22.46.19 2.99-.71c2.53-.89 4.1-.25 5.86-.93s4.59-2.16 3.89-3.15c-.71-.99-4.04.89-6.23.62-2.19-.28-5.49-.59-7.49-1.36s-4.04-.56-5.77-1.51c-1.73-.96-3.08-2-4.87-2.37s-3.42-3.89-3.42-3.89 2.41.18 3.27-.43c.86-.62.83-1.14.83-1.14s4.44 1.6 7.03 1.79 3.3-.56 4.32-.83c1.02-.28 3.05-.4 3.18-1.2.12-.8-8.63-3.79-8.63-3.79s4.9.12 8.91-1.05c-4.26.03-11.89-.76-16.7-3.35s-5.84-4.56-5.84-4.56 2.71.39 3.36-.29-2.5-3.36-2.5-3.36 3.11 1.05 5.09 1.02c1.97-.03 5.06.06 7.8-3.15-1.97-.37-4.47-1.82-4.47-1.82s6.91-.71 9.65-5.61c-2 1.36-4.59 1.39-5.95.89-1.36-.49-3.42-1.36-4.78-1.23-1.36.12-3.05-1.82-4.38-1.82s-1.57.89-3.98.59c-2.41-.31-3.58-1.17-3.58-1.51s1.06-1.72-.85-3.3-3.58-4.77-3.33-5.04 1.27.74 2.38.7 2.53.74 3.68.78 1.4-.49 2.53-.31 1.79.29 3.86.14c2.08-.14 3.89-2.71 3.89-2.71s-1.54.72-3.72.51-3.64-.88-3.64-.88 3.23.06 4.52-1.64c-1.93.47-7.87-.66-8.98-1.3s-1.99-4.38-4.81-5.32-3.17-2.47-3.17-2.47 4.01.88 6.11-.86c2.1-1.75 1.89-3.82 1.34-3.86-.56-.04-.62.66-1.77.51-1.15-.14-1.89-1.85-1.89-1.85l1.5.12s-.56-1.56-3.62-1.77-1.95-1.19-2.3-1.97.58-.86.99-.99c.41-.12 3.02-.86 4.58-2.28s1.23-3.95.7-3.95-.7.82-1.5.76-1.89-.41-2.32-1.17-1.77-.39-2.51 0-1.17.84-1.56.47-.86-1.42-.9-2.38c-.04-.97 1.21-1.19 1.91-2.8.7-1.6.51-5.34.58-6.39.06-1.05 1.13-3.12.58-4.54-.56-1.42-2.71-4.32-3.02-5.59s-.95-4.95-.95-4.95-.51 4.32-.56 6.37c-.04 2.06-.29 5.92-.66 7.19s-.04 2.8-.7 4.36-1.52 3.15-1.21 4.63 1.14 1.85 1.14 1.85.25.65-.12 1.02-5.61 1.22-7.21.32c-1.93-1.09-2.57-2.82-2.57-2.82s-.18 2.04.68 3.93 2.3 3.04 2.3 3.04-.41 1.13.74 1.81 4.09.86 4.09.86-1.09 2.92-2.01 3.54c-.93.62-2.47-.19-3.78.84-1.32 1.03-2.71.86-3.7 1.95s-.64 1.77-.35 1.77 1.19-.62 1.85-.27.97.99 1.91 1.4c.95.41 1.93.51 1.93.51s-2.08 2.38-3.62 2.61c3.76.82 5.82-2.3 6.89-1.87s.49 2.8-1.4 4.36-7.73 4.03-10.52 4.03-3.02-.14-3.64.53c-.62.68.22 1.3 1.94 1.57 1.73.28 1.76.83 3.27.96 1.51.12 2.07-.06 2.07-.06s-4.59 2.53-3.15 3.76c1.45 1.23 2.28-.56 3.76-.59s2.31.09 2.71.83 2.93-.68 4.22-2.25c1.3-1.57.09 2.56-.4 3.42s-3.11 3.18-5.52 5.06-6.81 4.1-10.42 4.47-5.46-.09-5.8.71.37 2.53 2.78 2.96 5.24-.15 5.77.31c.52.46-1.2 4.01-2.78 4.38-1.57.37-2.47.37-2.68 1.48-.22 1.11 2.07 1.7 3.48 1.57 1.42-.12 4.66-2.13 4.66-2.13s-1.02 3.11-.52 4.35c-2.28 1.57-9.44 9.68-9.44 9.68s-1.48-.96-4.75-1.54c-3.27-.59-3.02-2.07-3.02-2.07s.56-1.3 2.87-1.05 6.54-3.08 6.88-4.53-.93-1.42-.93-1.42.49-2.87-2.68-3.18c-3.18-.31-3.79-1.33-6.07-2.99-2.28-1.67-2.53-1.39-2.53-1.39s1.3-1.94 2.22-2.19c.93-.25 2.99-.09 4.53-1.88s2.37-2.47 2.93-2.68c.56-.22.52-1.63-1.54-3.27-2.07-1.63-2.08-1.51-3-2.76-.93-1.25-2.04-1.79-2.04-1.79s.64-1.52.35-2.24-1.52-1.46-1.48-2.38c.04-.93-.14-3.33-1.44-4.91s-1.27-3.02-1.21-3.78.02-2.82-.97-3.66-.12-2.8-.95-2.69c-.82.1-.31 2.08-.41 2.84s-.72.43-.84 2.57.37 3.8-.43 5c-.8 1.19-2.47 2.96-3 5.18s.97 3.02.97 3.02.66.23.58 1.52c-.08 1.3 1.54 2.73 1.93 2.71-.31 1.32-.95 2.1-2.32 2.1s-2.41-1.01-3.95.39-3.41 1.11-3.7 2.65-.04 2.38 1.87 2.59 3.7-.08 5.53-.23c1.83-.14 2.01-.1 2.12.56.1.66.71 3.04-.96 3.87s-6.88 1.42-11.22 1.48c-4.35.06-7.8-.74-7.8-.74s6.29 3.79 8.97 4.26c-4.59.89-3.52 4.19-2.71 4.59s3.39-.62 4.59-.4 3.73 1.7 4.78 2.28c1.05.59 3.58.99 3.58.99s-.28.86-.86 1.3c-.59.43-2.62-.43-3.92.89-1.3 1.33-2.31 1.51-3.24 1.54s-2.07-.21-4.2 1.34c-2.14 1.54-5.84-.16-6.56.65-.72.8.04 2.16 1.56 2.69s10.92 2.09 10.92 2.09-2.09 1.44-3.44 3.13c-1.36 1.7-.34 3.05 1.23 2.99s8.11-1.14 8.33-.65-5.01 2.99-9.77 3.61c-4.77.62-22.82-.62-22.82-.62s4.6 2.51 6.58 3.29c-2.26 1.36-.74 2.8.29 3.41 1.03.62 7.73 2.43 7.73 2.43s-3.54.08-7.19 2.18c4.07.82 7.48.04 7.48.04s-1.6 1.56.04 3.37c-1.32 1.81-1.85 3-3.21 3.17-1.36.16-2.38.21-3.29 1.03-.9.82-1.97.21-3.17.86-1.19.66-3.7 1.15-5.02 2.75s-2.71 3.78-5.34 3.91l-2.34-2.47s.62-.45 1.15-.37 1.32.49 2.1-.21.58-2.01.58-2.01 2.38.25 3.86-1.19.65-2.02.34-2.15c-.31-.12-1.63.77-2.47.37-.83-.4-1.26-1.17-1.94-1.26s-2.22-1.6-2.22-1.6 1.85-.31 3.21-.49c1.36-.19 1.97-1.2 1.57-1.91s-.63-.84-2.35-.88c-1.73-.04-2.8-.68-3.08-1.67-.29-.99-.45-1.85-1.07-2.28s-.49-.74-.33-.8.88 1.05 1.67.82.62-.6.86-.68c.25-.08 1.21.14 2.16-.93s1.42-2.12.84-2.2-1.56.72-2.2.16-.84-.29-1.34-.7-.76-2.12-2.3-2.41c-.16-.72-.04-1.05.1-1.32s1.01-1.52 1.01-2.55-.31-1.44-.64-2.45.27-1.64-.35-2.65-.56-1.95-.84-2.9c-.29-.95-.35-1.89-1.03-1.87s-.02 2.12-.06 3.39-.6 2.26-1.15 4.05c-.56 1.79-.97 2.63-.78 3.29.18.66 1.01.86 1.34.8.16.74.16.72-.47 1.54-.64.82-1.15.82-2.86 1.6s-2.55 1.95-2.3 2.61.68.33 1.38.53c.7.21.68.76 1.34.72s1.03-.31 1.03-.31.68.84-.21 1.69c-.88.84-.64.95-2.12.95s-4.58.68-5.78.1c1.19 1.36 5.43 1.44 3.82 1.93-2.73.84-1.89.84-2.86 1.21s-1.46.47-1.48 1.19 1.03.58 1.27.74.45.86 1.21.93c.76.06 1.6-.37 2.24-.37s1.81.08 2.63-.31c-.31 1.23-.82 1.77-3.19 2.53s-5.76 1.56-9.41 1.07c1.25 1.79 7.5 1.52 7.5 1.52s-1.64 1.09-5.02 1.67c-3.37.58-4.54 1.09-4.54 1.09s1.56 1.13 2.82 1.4c1.25.27 2.18-.29 3.29-.21s1.71.82 3.25.66 2.12-.74 2.12-.74.16 1.15 1.3 1.25c-2.93 3.16-6.63 5.19-8.85 5.44s-4.59-.52-6.35.06c2.93 2.53 5.7 2.81 6.66 2.84s3.92.06 3.92.06-6.23.72-6.63 2.16h-24.78s-.88.5 0 .5z"/><path d="m320.58 172.21h245.28v-.62h-24.11s-5.03-2.35-7.55-2.2c.49-.83-.89-.86-2.22-1.33l-1.33-.46s2.68.31 4.16-.86 1.14-2.9.68-2.9-.89.8-1.23.74-3.98-1.54-5.21-3.98c2.56 1.79 6.6 0 6.6 0s-1.51-.43-2.37-.34c2.93-.71 3.45-2.1 3.45-2.1s-3.21 1.05-4.47.43-1.76-1.14-1.76-1.14 1.76.22 3.18-.34c-5-.31-6.81-2.5-7.06-3.45s-.86-1.94-.46-2.1c.4-.15 1.57.86 3.64 0-.35-.39-1.38-.58-1.38-.58s1.87-.68 1.87-1.44-1.58-.04-2.2-.31-1.99-1.46-1.99-1.79 1.75-.64 1.62-1.62c-.12-.99-1.62-.14-2.34-.66-.72-.51.29-1.42-.49-2.43.8-.25.8-.93.66-1.21-.14-.29-.97-.74-.88-1.52.08-.78.1-.76.41-.74s.21-.64-.08-.74-1.23-.64-1.25-1.03-.19-1.62-.08-2.38c.1-.76-.25-3.25-.33-3.29s-.37 1.99-.35 3.31-.43 1.93-.49 2.67.21 1.64.06 2.06c-.14.41-.7 1.6-.39 2.16s.58.62.12.84c-.45.23-1.46.72-1.23 1.21s.51.43.51.43-1.23.68-2.14.78c-.9.1-.82.97-.14 1.3s1.34.82 1.62.82.82-.39.97-.33c.14.06.33 1.21-.44 1.74-.77.52-.77.12-1.36.56-.59.43-.42.92-1 .99-.59.06-.86.43-.76.76.11.32 1.02.54 1.45.54s1.31-.08 1.31-.08-.54 1.28-2.36 2.45c2.13.23 3.25-1.46 3.25-1.46s-1.42 3.21-3.47 4.2c-2.06.99-3.02.72-3.1 1.13-1.05.06-1.27-.06-1.27-.06s.88.82 2.34 1.07 2.18.06 2.18.06-1.13.68-2.08.66c1.83.58 3.27-.23 3.27-.23s-1.15 1.6-2.61 1.54c.53.84 1.23.8 1.23.8s-.99 3.52-5.67 2.78c2.59-.43 2.25-1.87 2.75-2.38 1.05-1.07 1.19-1.99.82-2.04-.37-.04-5.43 1.85-8.08.14 2.63.47 4.69-.49 4.69-.49s-2.55-.39-3.04-.86.9-.78 1.83-.7 3.39-.84 3.95-1.77-.31-1.99-.31-1.99 1.77-.68 1.95-1.79c-2.65 1.46-4.11 1.64-5.41 1.11s-1.64-.27-2.36-.49c-.72-.23-1.83-1.38-1.83-1.38s.68-.49.88-1.03c2.14.78 4.03.39 4.63-.72s-.29-1.99-1.32-1.56-3.84-2.06-3.84-2.06 3.06.45 5.3-1.11c-1.3.14-1.99.16-1.99.16s2.45-1.19 2.47-3.37c.04-.41-.93.45-2.34.86s-4.58-1.32-4.58-1.32 2.55-1.05 2.55-2.61-1.87-.65-3.01-1.42-1.55-1.11-1.51-1.25 1.98-.86 2.86-3.22c-1.48.45-1.99 1.36-1.99 1.36s.03-3.87-.06-4.92-1.11-1.05-1.11-1.51-.17-4.72-1.18-4.66-.41 1.89-.08 2.24.02 1.17-.41 1.87-.47 1.52-.47 1.87-.78 1.15-.78 1.38.68 1.38.47 2.14-.58-.21-.41 1.34c.16 1.54 1.11.88.99 1.38-.12.49-.78.22-1.3.52s-.52.6-.84.61c-.32 0-1.95-.22-2.32.23s-.34.76-.34.76-.66-.29-1.08-.82c.44 1.57 1.06 1.93 1.62 2.17.56.25 1.26.16 1.55.45-.33.41-1.73.45-1.73.45s.97.4 2.27.39c1.3 0 2.34-.02 2.34-.02s-1.28.84-2.42 1.31-1.05.83-1.71.87-1.03.1-1.14.58c-.11.47.39 1.17 1.5 1.33 1.11.15 2.76.03 2.76.03s.73.34.09.84-1.71.46-2.15.95c-.44.48-.8.61-1.54.61s-.87.45-1.43.48-1.36 0-1.6.46-.09 1.07-.09 1.07-1.31-.14-1.78-.43c.96 1.05 2.85 2.13 4.35 2.05s2.43-.25 2.43-.25.27.56.68.56c-1.17.76-1.36 1.3-2.41 1.34s-5 0-6.8-1.6c1.54 2.47 3.29 2.98 3.29 2.98s-1.91-.06-2.24.76.27 2.1 1.77 2.3c1.5.21 1.67.84 2.24 1.11.58.27 2.94.41 2.94.41s-.87 1.62-2.54 1.65-7.52-1.6-7.52-1.6 2.07 2.31 3.85 3.02c-3.79-.03-13.91-3.24-15.73-5.4 3.21.46 9.37-.22 11.84-1.26-8.05-.62-17.42-4.1-19.73-6.35 6.04 1.85 10.98.12 10.98.12s-3.85-2.34-6.48-3.52c3.48-.03 5.49 1.63 7.18 2.07 1.7.43 9.56 1.08 11.81-.19 2.25-1.26 3.76-3.15 3.3-3.52s-2.37.71-5.06.52c-2.68-.19-5.64-2.07-7.74-2.53s-2.65-2.22-2.65-2.22.46.19 2.99-.71c2.53-.89 4.1-.25 5.86-.93s4.59-2.16 3.89-3.15c-.71-.99-4.04.89-6.23.62-2.19-.28-5.49-.59-7.49-1.36s-4.04-.56-5.77-1.51c-1.73-.96-3.08-2-4.87-2.37s-3.42-3.89-3.42-3.89 2.41.18 3.27-.43c.86-.62.83-1.14.83-1.14s4.44 1.6 7.03 1.79 3.3-.56 4.32-.83c1.02-.28 3.05-.4 3.18-1.2.12-.8-8.63-3.79-8.63-3.79s4.9.12 8.91-1.05c-4.26.03-11.89-.76-16.7-3.35s-5.84-4.56-5.84-4.56 2.71.39 3.36-.29-2.5-3.36-2.5-3.36 3.11 1.05 5.09 1.02c1.97-.03 5.06.06 7.8-3.15-1.97-.37-4.47-1.82-4.47-1.82s6.91-.71 9.65-5.61c-2 1.36-4.59 1.39-5.95.89-1.36-.49-3.42-1.36-4.78-1.23-1.36.12-3.05-1.82-4.38-1.82s-1.57.89-3.98.59c-2.41-.31-3.58-1.17-3.58-1.51s1.06-1.72-.85-3.3-3.58-4.77-3.33-5.04 1.27.74 2.38.7 2.53.74 3.68.78 1.4-.49 2.53-.31 1.79.29 3.86.14c2.08-.14 3.89-2.71 3.89-2.71s-1.54.72-3.72.51-3.64-.88-3.64-.88 3.23.06 4.52-1.64c-1.93.47-7.87-.66-8.98-1.3s-1.99-4.38-4.81-5.32-3.17-2.47-3.17-2.47 4.01.88 6.11-.86c2.1-1.75 1.89-3.82 1.34-3.86-.56-.04-.62.66-1.77.51-1.15-.14-1.89-1.85-1.89-1.85l1.5.12s-.56-1.56-3.62-1.77-1.95-1.19-2.3-1.97.58-.86.99-.99c.41-.12 3.02-.86 4.58-2.28s1.23-3.95.7-3.95-.7.82-1.5.76-1.89-.41-2.32-1.17-1.77-.39-2.51 0-1.17.84-1.56.47-.86-1.42-.9-2.38c-.04-.97 1.21-1.19 1.91-2.8.7-1.6.51-5.34.58-6.39.06-1.05 1.13-3.12.58-4.54-.56-1.42-2.71-4.32-3.02-5.59s-.95-4.95-.95-4.95-.51 4.32-.56 6.37c-.04 2.06-.29 5.92-.66 7.19s-.04 2.8-.7 4.36-1.52 3.15-1.21 4.63 1.14 1.85 1.14 1.85.25.65-.12 1.02-5.61 1.22-7.21.32c-1.93-1.09-2.57-2.82-2.57-2.82s-.18 2.04.68 3.93 2.3 3.04 2.3 3.04-.41 1.13.74 1.81 4.09.86 4.09.86-1.09 2.92-2.01 3.54c-.93.62-2.47-.19-3.78.84-1.32 1.03-2.71.86-3.7 1.95s-.64 1.77-.35 1.77 1.19-.62 1.85-.27.97.99 1.91 1.4c.95.41 1.93.51 1.93.51s-2.08 2.38-3.62 2.61c3.76.82 5.82-2.3 6.89-1.87s.49 2.8-1.4 4.36-7.73 4.03-10.52 4.03-3.02-.14-3.64.53c-.62.68.22 1.3 1.94 1.57 1.73.28 1.76.83 3.27.96 1.51.12 2.07-.06 2.07-.06s-4.59 2.53-3.15 3.76c1.45 1.23 2.28-.56 3.76-.59s2.31.09 2.71.83 2.93-.68 4.22-2.25c1.3-1.57.09 2.56-.4 3.42s-3.11 3.18-5.52 5.06-6.81 4.1-10.42 4.47-5.46-.09-5.8.71.37 2.53 2.78 2.96 5.24-.15 5.77.31c.52.46-1.2 4.01-2.78 4.38-1.57.37-2.47.37-2.68 1.48-.22 1.11 2.07 1.7 3.48 1.57 1.42-.12 4.66-2.13 4.66-2.13s-1.02 3.11-.52 4.35c-2.28 1.57-9.44 9.68-9.44 9.68s-1.48-.96-4.75-1.54c-3.27-.59-3.02-2.07-3.02-2.07s.56-1.3 2.87-1.05 6.54-3.08 6.88-4.53-.93-1.42-.93-1.42.49-2.87-2.68-3.18c-3.18-.31-3.79-1.33-6.07-2.99-2.28-1.67-2.53-1.39-2.53-1.39s1.3-1.94 2.22-2.19c.93-.25 2.99-.09 4.53-1.88s2.37-2.47 2.93-2.68c.56-.22.52-1.63-1.54-3.27-2.07-1.63-2.08-1.51-3-2.76-.93-1.25-2.04-1.79-2.04-1.79s.64-1.52.35-2.24-1.52-1.46-1.48-2.38c.04-.93-.14-3.33-1.44-4.91s-1.27-3.02-1.21-3.78.02-2.82-.97-3.66-.12-2.8-.95-2.69c-.82.1-.31 2.08-.41 2.84s-.72.43-.84 2.57.37 3.8-.43 5c-.8 1.19-2.47 2.96-3 5.18s.97 3.02.97 3.02.66.23.58 1.52c-.08 1.3 1.54 2.73 1.93 2.71-.31 1.32-.95 2.1-2.32 2.1s-2.41-1.01-3.95.39-3.41 1.11-3.7 2.65-.04 2.38 1.87 2.59 3.7-.08 5.53-.23c1.83-.14 2.01-.1 2.12.56.1.66.71 3.04-.96 3.87s-6.88 1.42-11.22 1.48c-4.35.06-7.8-.74-7.8-.74s6.29 3.79 8.97 4.26c-4.59.89-3.52 4.19-2.71 4.59s3.39-.62 4.59-.4 3.73 1.7 4.78 2.28c1.05.59 3.58.99 3.58.99s-.28.86-.86 1.3c-.59.43-2.62-.43-3.92.89-1.3 1.33-2.31 1.51-3.24 1.54s-2.07-.21-4.2 1.34c-2.14 1.54-6.95.25-7.67 1.05s-.99 1.91.53 2.45c1.52.53 13.05 1.93 13.05 1.93s-2.09 1.44-3.44 3.13c-1.36 1.7-.34 3.05 1.23 2.99s8.11-1.14 8.33-.65-5.01 2.99-9.77 3.61c-4.77.62-22.82-.62-22.82-.62s4.6 2.51 6.58 3.29c-2.26 1.36-.74 2.8.29 3.41 1.03.62 7.73 2.43 7.73 2.43s-3.54.08-7.19 2.18c4.07.82 7.48.04 7.48.04s-1.6 1.56.04 3.37c-1.32 1.81-1.85 3-3.21 3.17-1.36.16-2.38.21-3.29 1.03-.9.82-1.97.21-3.17.86-1.19.66-3.7 1.15-5.02 2.75s-2.71 3.78-5.34 3.91l-2.34-2.47s.62-.45 1.15-.37 1.32.49 2.1-.21.58-2.01.58-2.01 2.38.25 3.86-1.19.65-2.02.34-2.15c-.31-.12-1.63.77-2.47.37-.83-.4-1.26-1.17-1.94-1.26s-2.22-1.6-2.22-1.6 1.85-.31 3.21-.49c1.36-.19 1.97-1.2 1.57-1.91s-.63-.84-2.35-.88c-1.73-.04-2.8-.68-3.08-1.67-.29-.99-.45-1.85-1.07-2.28s-.49-.74-.33-.8.88 1.05 1.67.82.62-.6.86-.68c.25-.08 1.21.14 2.16-.93s1.42-2.12.84-2.2-1.56.72-2.2.16-.84-.29-1.34-.7-.76-2.12-2.3-2.41c-.16-.72-.04-1.05.1-1.32s1.01-1.52 1.01-2.55-.31-1.44-.64-2.45.27-1.64-.35-2.65-.56-1.95-.84-2.9c-.29-.95-.35-1.89-1.03-1.87s-.02 2.12-.06 3.39-.6 2.26-1.15 4.05c-.56 1.79-.97 2.63-.78 3.29.18.66 1.01.86 1.34.8.16.74.16.72-.47 1.54-.64.82-1.15.82-2.86 1.6s-2.55 1.95-2.3 2.61.68.33 1.38.53c.7.21.68.76 1.34.72s1.03-.31 1.03-.31.68.84-.21 1.69c-.88.84-.64.95-2.12.95s-4.58.68-5.78.1c1.19 1.36 5.43 1.44 3.82 1.93-2.73.84-1.89.84-2.86 1.21s-1.46.47-1.48 1.19 1.03.58 1.27.74.45.86 1.21.93c.76.06 1.6-.37 2.24-.37s1.81.08 2.63-.31c-.31 1.23-.82 1.77-3.19 2.53s-5.76 1.56-9.41 1.07c1.25 1.79 7.5 1.52 7.5 1.52s-1.64 1.09-5.02 1.67c-3.37.58-4.54 1.09-4.54 1.09s1.56 1.13 2.82 1.4c1.25.27 2.18-.29 3.29-.21s1.71.82 3.25.66 2.12-.74 2.12-.74.16 1.15 1.3 1.25c-2.93 3.16-6.63 5.19-8.85 5.44s-4.59-.52-6.35.06c2.93 2.53 5.7 2.81 6.66 2.84s3.92.06 3.92.06-6.23.72-6.63 2.16h-24.78s-.88.5 0 .5z"/><path d="m836.41 193.25c-1.96-3.02-5.23-4.33-5.72-6.37s-1.96-3.27-2.62-4.49c-.65-1.23 1.16-9.07.49-10.79s-4.05-2.64-4.11-2.88c-.06-.25 6.11-4.27 5.99-5.86s-.25-2.17-.25-2.17 1.8-.9 2.41-1.68c-4.94 1.88-10.5 2.49-11.97 2.45 2.78-1.68 4.9-2.82 5.56-3.92.65-1.1 3.84-2.41 4.21-3.51-1.76.57-3.96.78-3.96.78s3.88-1.1 4.86-2.9c-5.84 2.17-8.38 1.96-9.81 1.63s-2.59-1.04-3.74-.84c-1.14.2-.94-1.45-1.59-1.65s-.25-1.63.31-2.19c.55-.55 1.16-1.04 2.39-1.04s8.52-1.59 10.85-4.62c-2.66 1.51-5.76 1.47-5.76 1.47s2.9-1.63 3.88-4.17c.98-2.53.86-4.05-1.88-3.68s-3.11 1.59-4.7.86c-1.59-.74-2.82-1.18-4.13-1.02s-2.9-.57-3.51-1.18-.74-1.23-.74-1.23 6.21-.98 7.56-3.47c-1.68.25-4.45.98-4.45.98s4.17-3.72 5.03-7.15c-1.45.68-4.15 3.57-4.15 3.57s-.31-1.5-1.29-1.47-1.32.58-1.32.58-1.5-.69-1.89-1.41c-.39-.71-1.31-1-1.31-1s2.39-2.08 2.06-4.45-2.04-2.12-2.94-2.31-2.45-2.45-2.94-3.78-.67-5.19-.8-7.27c-.12-2.08.18-4.44-.55-4.96-.74-.52-.18-3.55-.58-3.62-.4-.06-.8 1.81-.89 4.32s-1.65 11.19-4.26 13.91c.4.09 1.44-.43 1.44-.43s-1.99 2.7-3.28 2.67c2.02.55 4.2-1.38 4.2-1.38s.06 2.27-.31 3.1-6.47 1.75-7.35 1.26c-.89-.49-2.02-.98-2.39-.92s.43 1.72 1.72 2.51c1.29.8 3.83 1.32 3.83 1.32s-1.47 1.2-.77 2.57c.7 1.38 1.16 1.32 1.16 1.32s-3.16 1.62-3.77 3.52.37 3.92 1.56 4.41c-.43.92-5.64 3.49-7.45 3.19-1.81-.31-2.18.06-2.15.74.03.67 1.99 1.65 4.5 1.5 1.1.52.55 1.16-.21 1.13 1.78 1.2 6.28-.52 6.28-.52s-1.59 1.69-1.65 2.51c3.06-.12 4.11-2.33 4.11-2.33s-.18 3.19-2.6 7.11-5.27 5.03-5.27 5.03 1.53.06 2.79-.09c-.21 1.23 1.47 2.42 3.59 1.93-1.29 1.07-1.13 2.6-1.47 3.49s-1.44 1.5-2.73 1.81-1.89-.56-4.47-.52h-.67s.88-.95 1.61-1.62c.74-.67.74-1.74-.06-2.76s-2.02-.74-2.9-.84-1.21-.67-1.21-.67 4.78-1.23 5.54-2.25 3.43-5.19 2.1-6.56-2.1 1.27-3.94.53-1.94-1-4.19-.49l1.06-.96s-2.31-1.29-4.7-2.33-3.51-2.39-3.51-2.39.98-1.41 1.8-1.63 1.8-.88 2.02-2.39.92-2.88.22-3.25c-.69-.37-2.86.71-4.15.49s-4.9-2.45-5.84-3.33-2.8-.96-2.8-.96.1-1.33-.33-1.84 1.55-2.23 2.25-1.98c.69.25 6.33 1.47 8.68-.39-2.62.29-6.42-1.88-6.42-1.88s5.29-.53 6.44-1.94c1.14-1.41 2.78-2.84 1.74-3.82s-2.66.84-3.55.33c-.9-.51-3.23-1.96-4.68-2.15 4.39-.43 8.83-5.13 9.01-6.01s-.1-1.74.53-2.86.55-2.94.55-2.94-3.59 4.82-8.06 5.65-7.85.52-10.11-1.23c-2.27-1.75-1.44-5-1.44-5s1.81.46 4.01.46c-1.26-1.93-2.54-2.11-2.54-2.11s2.15-.21 1.55-2.28c1.35.77 5.87-.32 7.03-2.16-.9.08-1.72.11-1.72.11s.61-.35.67-1.15-3.25-2.41-3.25-2.41.17-.63-.15-.95-.78-.37-.78-.37.2-.6-.69-1.7-1.87-1.18-1.87-1.18-.02-1.78.11-1.79c.12-.02.49.52 1.01.31s.41-1.44.11-2.91c-.31-1.47-1.99-3.48-2.48-4.43s-1.21-1.52-1.23-3.11-.11-2.5-.32-3.13-.75-1.01-.77-1.9-.4-3.72-.74-3.83-.14 2.42-.51 3.22-.2 2.65-.23 4-.08 2.65-.41 3.4c-.34.75-3.34 7.06-3.34 7.06s1.95-1.37 2.44-2.31c-.41 2.2-.7 3.15-.7 3.15h.92s-2.74 2.96-4.01 3.94-.16 4.49-.67 5.37-3.51.53-3.51.53 1.59.94 3.19 1.25c-2.29.76-7.64.57-9.19-.92 3.17 4.09 6.86 4.31 6.86 4.31s-3.8.82-6.5-.06c1.88 1.88 5.62 3.55 7.99 3.08-.59 1.47-6.27 6.52-6.27 6.52s2.23-.2 3.37-1.35c.06 1.16.27 2.08.27 2.08s1.59-1.51 2.72-2.53c1.12-1.02 4.82-6.48 4.82-6.48s-2.53 7.13-4.78 10.19-8.21 7.89-8.21 7.89 1.47.22 2.39-.25c1.21 1.72 4.68 1.14 4.68 1.14s-1.63 3.17-2.03 4.52-4.26 3.98-4.26 3.98 2.24-3.62 1.44-4.17-2.7 2.39-5.91 2.79c-3.22.4-6.5-.95-6.5-.95s2.74-1.92 2.78-2.8-3.39-1.74-4.21-3.76-1.86-5.31-1.86-5.31 2.8 3.88 4.15 4.64 2.98 1.78 3.74 2.15 4.45.25 4.45.25l-3.96-1.53s4.45-.35 4.49-1.92-3.62-2.04-6.15-4.96-5.74-6.37-5.74-6.37 2.04.67 2.59 1.27c.55.59 2.45.8 3.41.67.96-.12 2.51.31 3.66-1-1.31.27-2.06-.12-2.25-.51s-1.61-1.16-2.55-1.55-1.47-1.68-2.9-3.21-3.27-4.76-3.27-4.76 2.98-.29 4.56-2.62c1.57-2.33.02-3.92-.22-3.92s-1.61.33-3-.2-2.17-1.76-2.82-1.74c.25-1.21-1.08-2.64-1.63-3.15s-.8-1.74-.67-2c.12-.27 4.02-.47 4.02-2.51s-1.78-3.33-3.43-3.47-.98-3.23-2.35-4.47c-1.37-1.25-.49-12.89-1.7-13.16s-.47 1.98-1.8 4.21-.61 4.11-.67 6.15-.96 3.6-1 4.96c-.04 1.37-1.25 1.92-1.45 3s0 1.61-.37 2.53-3.43 1.84-3.45 2.64 1.12 3.41 2.59 3.53c-2.74.63-1.51 2.37-2.72 3s-3.68 1.59-4.66 2.02-2.9 1.98-2.88 2.98 2.66 1.68 2.66 1.68l-2.49 2.35s2.62-.55 4.21-1.33 3.76-.33 3.76-.33-1.88 3.19-4.17 4.7-2.11 2.78-4.12 3.15c-1.35.25-2.21-.09-3.52.92-1.32 1.01-3.8 3.55-4.54 3.55s-2.94.06-4.38 2.3c2.24-1.07 3.83-1.2 5-.21l-2.45 2.6s2.15-1.07 4.05-1.72c1.9-.64 3.28-1.69 5.61-1.35-.86 2.05-2.54 4.93-3.98 6.19s-4.72 3.37-5.91 5.33c2.57-1.44 4.14-2.3 5.27-2.3s5.03-1.5 7.6-3.86 6.68-7.08 6.68-7.08-.61 3.98-1.99 6.56c-1.38 2.57-2.94 3.37-3.59 5.21-.64 1.84-3.13 3.22-3.8 4.11s-2.94 1.69-3.8 3.77c2.33-1.07 9.35-1.1 9.35-1.1s-5.27 3.28-9.04 5.7-8.09 3.28-9.44 3.13-2.15.37-3.49 1.35c2.15.06 0 0 .58.86s1.38.15 2.64.7 3.16.7 6.59-.12c3.43-.83 8.24-1.72 8.24-1.72s-5.67 4.14-8.67 4.38c-3 .25-6.25-.28-7.23.21.83 1.47 2.27 1.72 3.52 1.87 1.26.15 3.19 1.38 3.19 1.38l-2.91 1.44s1.84.4 5.21-.28c3.37-.67 5.15-1.75 5.15-1.75s-.29 1.84-1.57 2.8c-1.29.96-2.27-.69-4.17.88s-2.92.41-3.66.9-2.29-.69-3.7.12c-1.41.82-2.29 2.53-2.53 3.73-.25 1.2.34 1.1-.37 2.24s-1.41 1.84-2.94 2.27-1.22-.29-2.27-.23-1.76-.64-4.29 3.05c1.9-1.9 2.18-5.7 2.18-5.7s-2.94 3.16-3.31 4.23c.92-3.1-.49-13.09-.49-13.09s-1.38 5.24-2.3 9.26c-.92 4.01-2.05 7.17-2.05 7.17s-2.11 1.87-2.51 1.87-.54-.54-1.01-.4c-.48.14-.89 2.97.83 4.78-1.28 1.4-3.22 1.56-3.79 1.22-.57-.35-2.94-.53-3.6-.86-.65-.33-3.77-.14-5.21.38s-3.19.56-3.53.11c-.35-.45-2.86-.2-3.84-.43-.98-.22.45-1.8 1.7-2.51 1.25-.72 1.35-3.58.82-4.09s-3.88.29-4.25-.43 2.82-1.49 3.6-1.41 4.68-.27 4.68-.27-1.98-1.16-3.37-1.33c1.55-.59 2.35-3.08 2.37-4.05.02-.96 3.49-3.6 5.25-8.15-2.57 2.12-7.89 6.78-11.93 6.25 4.37-.94 7.76-5.58 7.76-5.58s-5.48 3.51-8.64 2.21c-3.17-1.31-3.62-1.06-3.62-1.06s.73-1.41 1.98-1.72c1.26-.31 1.58-1.75 1.01-2.38s-1.96-.81-2.27-1.24 2.73-.08 3.06-.54c.34-.46 2.08-.34 2.87-.09.78.25 2.65-.61 2.65-.61s-.74-.81-2.04-1.23c-1.3-.41-1.16-.84-1.09-.97.08-.12 1.18-.12 2.39-.52s2.47-2.13 2.47-2.13-2.42.86-4.81.61-3.53-.61-3.88-1.02-1.08-.39-1.08-.39.03-.81-.51-1.58-1.95-1.09-1.87-1.7 1.96-.44 2.8-2.21c.84-1.76-.92-2.56-1.69-3.23s-1.7-1.62-1.7-1.62 3.14.89 4.83.06c-1.64-.53-4.27-2.45-5.07-3.39-.74-.86-.55-3.77-.49-6.16s.8-10.66.61-10.66-1.13 4.32-1.41 6.04-1.2 2.88-1.41 3.62.21 2.97-.52 4.01-3.49 2.42-3.46 2.79-1.59.93-1.59.93 3.16.56 4.11 0 .49 1.37.06 1.92-.8 1.78-.95 2.94-1.32.61-1.87 1.44-1.04.98-1.04 1.32 1.62.67 1.78 1.29c.15.61-1.21 2.95-2.53 3.59-1.33.63-2.96 1.1-3.11 1.88-.14.78.47 1.51.47 1.51s.1 1.18.9 1.21c.8.02-3.43 1-4.88.25-1.45-.76-.65 1.88.18 2.41.84.53 1.02 1.41 1.96 1.82s2.59-.1 2.59-.1-.94 4.07-1.65 3.92-1.61-1.49-2.25-2.76c-.63-1.27-1.57-2.74-2.27-3.23-.69-.49-3.02-4.92-3.19-6.37-.16-1.45-1.06-4.37-1.06-4.37s2.62 2.86 4.02 3.35c1.41.49 3.45-.14 3.45-.14s-2.15-1.18-3.41-1.96c1.96.78 7.48-1.98 7.48-1.98s-2.9-.49-4.7-.31c.29-.61 6.52-2.28 6.84-4.86-2-.18-4.92.88-4.92.88s-.06-.61-1.29-.86-3.66-.74-4.58-2.02c-.92-1.29-3.45-5.62-2.94-6.62s1.49-1.88 1.27-2.98c.86 1.31 3.08 1.08 4.13 1.1 1.04.02 2.62-.08 4.27-.9-2.02-.47-5.74-.9-5.74-.9s3.35-.04 4.8-1.29 2.55-2.84 2.55-2.84l-3.88 1s.37-1.57-.2-1.76c-.57-.18-2.88.22-4.23-1.9s-2.59-4.02-2.59-4.02l.37-1.29s2 .92 3.27.27 2.37-2.15 2.37-2.15 3.96-.94 4-3.06c-.04-.61-2.84-.12-3.78-.2s-2.57-1.47-2.76-2.19c-.18-.72.03-1.58-.43-1.86-.45-.28-1.7-.04-2-.36-.31-.32-1.46-2.01-1.46-2.01s1.48 1.13 2.53.88c1.05-.26 1.84-.66 1.84-.66s-1.03-1.79-2.67-2.38c-1.63-.59-1.25-1.01-.85-1.05s1.36-.27 1.68-1.22.58-1.79-.4-2.7c-.98-.9-1.21-1.79-.97-2.33.25-.54-.06-2.44-.64-3.11s-.67-2.45-.66-3.25c.02-.8-.54-3.71-.54-3.71s-.81 4.24-.91 5.29.06 2.62-.67 3.64c-.74 1.02-1.29 1.39-1.02 2.92s-.33 2.7-1.19 3.68-1.12 2.21-.65 2.76 1.82.39 2.12.84c.31.45.27 2.9-.69 3.6-.96.69-2.82 2.29-5.9 2.41-3.09.12-3.96 1.08-4.68.55s-1.14-.98-1.68-.31c-.53.67-2.41 2.7-2.49 3.53-.08.84 1.82.59 2.47.08s.51.9 2.45.41c-.88 1.35-2.53 3.43-3.51 3.41s-1.23-.08-1.18.53c.04.61.9 1.14 2.23.9 1.33-.25 4.68-.8 5.39-1.94s.9-1.41 1.14-1.39c.25.02 0 .61.51 1.08s2.57.25 2.57.25-4.47 3.29-7.74 4.19c1.51.57 3.43-.02 3.43-.02s-3.31 2.08-4.82 2.08-1.57.63-2.86.1-4.6-2.17-5.19-2.12c-.59.04.43 1.61 1.06 2.04s.72.45 1.23 1.21 1.47 1.31 2.47 1.41 4.33.08 4.6.39-2.42 2.48-3.86 2.42-3.46-.09-3.65.34c-.18.43 1.56.7 1.87 1.16s1.72-.12 2.33 0 1.41.55 2.42-.06 1.56-.67 2.45-.67 3.06-1.69 3.06-1.69-1.38 1.96-2.27 2.64c-.89.67-2.48 1.65-2.48 1.65s3.43-.31 7.08-3.31c-.21 2.21-.49 5.52-5.49 9.16s-15.87 3.31-17.25 3.06c1.5 1.5 2.85 1.93 3.25 3-1.84.21-2.94.03-2.94.03s2.42 1.41 5.21 1.04 4.84-1.75 4.84-1.75-2.7 3.28-4.78 3.68-6.37-.15-6.37-.15 2.08 2.18 3.55 2.54c1.47.37 1.99.7 2.57 1.07s6.25-1.69 6.25-1.69l-4.05 2.73s3.98.15 7.17-2.54c3.19-2.7 5.09-4.69 5.42-4.44.34.25-1.9 3.59-5.64 6.62s-8 5.39-12.29 5.49c1.5-1.23 3.67-2.1 4.24-3.45-2.12.88-5.68-.84-5.68-.84l1.8-.67s-11.3-3.86-12.09-7.72c-.8-3.86-1.47-4.13-1.47-5.52s-.8-2.33-.8-2.33 3.47 2.35 5.07 2.43c1.59.08 5.74-1.01 5.74-1.01l-2.82-1.03s5.9.37 8.27-1.39l-4.09-.02s2.06-1.1 3-1.08 1.74-.82 2.1-1.37c.37-.55 1.16-1.96.53-2.33s-3.37.88-5.35 1.14c-1.98.27-4.62-.53-6.74-1.47s-2.51-1.43-2.51-1.43 1.92.43 3.9 0 3.02-2.19 4.43-2.7 1.39-.88 2.06-1.08 3.09-2.29 3.09-2.29-3.96 2.12-7.09 1.55-4.09-.25-5.15-1c-1.06-.76-2.53-1.51-3.33-2.1s-1.86-1.72-2.9-3.21-1.86-3.27-1.72-3.76.55.16 1.23.33c.67.16 1.59-.65 2.37-.49s1.55 1.27 2.59 1.37 2.35-.65 3.19-.31c.84.35 3.39.61 5.99.02-1.8-1.16-2.92-1.04-2.92-1.04s4-1.31 5.39-2.72c-2.06-.06-4.86 1.14-6.39 1.04s-5.37-2.29-5.37-2.29 3.51-1.27 4.27-2.51c.76-1.25 2.55-4.78 1.14-5.48-1.41-.69-3.68 1.76-6.05.86s-5.56-3.14-6.08-3.47c-.52-.34-.18-1.16 1.29-1.59s2.21-.98 2.73-1.62-.08-1.44.02-2.24c.09-.8.25-1.85-.14-1.98-.38-.12-2.25.02-2.91-.34-.66-.35-2.19-.83-2.3-1.06s.17-.6.34-1.04-.12-2.6-.12-2.6 1.78 1.06 2.48 1.16c.7.11 2.48-1.06 2.48-1.06l-2.73-1.21s3.56-1.55 3.34-2.87c-.06-.37-1.39.32-2.6-.58s-2.68-1.42-2.71-2.62-.97-1.44-.75-3.08c.21-1.64-.44-1.72-.43-2.76.02-1.04-.31-1.92-.47-2.59-.17-.67-.21-6.05-.21-6.05-.29 1.43-1.27 4.21-1.31 5.64s.45 2.45 0 3.55-1.53 2.47-1.45 3.25-.8 1.35-.9 2.06c-.1.72-.59 1.57-1.82 2.39s-2.41.78-2.47 1.14c-.06.37.14.72 1.65 1.39-2.21.98-4.74 1.25-4.74 1.25s2.33.53 3.41.43 3.84-.2 4.82-.92c.29-.2.63-.04.37.51-.27.55-1.9 2.23-3.47 2.9s-1.8 1.53-1.63 2.06c.16.53 1 .78 1.72.51s1.1-.35 1.45-.27 1 .1 1.47-.27c.22.8.37 1.98-.88 2.66-1.25.67-3.17.88-3.82 1.33s-7.48.22-8.34-.14c1.57 1.61 3.94 1.76 3.94 1.76s-.86 1.06-2.45 1.65-4-.25-4.58.18c-.57.43.47 1.9 1.27 2.57s2.08.57 2.45.86 1.92.55 1.92.55-1.12 1.16-2.78 1.45c-1.65.29-1.98 1.25-1.88 1.61.1.37 1.37 1.06 2.33 1.21.96.14 1.98-.39 3.02-.18s2.78 0 3.09-.33c.32-.33.83-1.14 1.22-1.06s1.37 1.84-.02 3.53c-1.39 1.7-7.31 6.52-17.47 5.05 1.57 1.84 6.35 1.96 6.35 1.96s-2.7.89-3.68 1.59c2.82 1.07 4.84-.12 5.98.12 1.13.25 2.73 0 3.71.46s2.54.58 3.16 0c.61-.58 1.84 0 2.79.06s2.3-1.26 2.3-1.26-.86 2.24-2.67 4.35-8.15 4.41-13.42 4.44-6.9-.4-7.02.28c-.12.67 1.53 2.05 2.57 2.73 1.04.67 5.85.86 6.9 1.04s.31 1.04-1.65 1.35-2.79.31-2.97.74 1.84 1.75 3.13 1.72 1.59-.64 2.6-.46 1.72-.61 2.42-.61 1.13.64 1.99-.03 2.15-.52 2.36-.09 1.87.58 3.28-.03c-1.47 1.5-2.88 4.23-5.85 5.67s-5.58.92-6.8 2.02c-1.23 1.1-1.56 1.32-1.56 1.84s2.08.8 3.8.74 5.91-.43 8.46-2.94c-1.9 2.15-2.73 3.89-2.73 3.89s3.77-1.75 5.45-3.37c1.69-1.62 2.51-2.51 2.82-2.33s.55 1.26 2.42.74c-1.1 1.87-1.65 3.59-3.86 4.96-2.21 1.38-3.92 3.52-5.64 4.54-1.72 1.01-4.72 3.16-8.76 3.19-4.05.03-5.49.18-6.71 0-1.23-.18-2.39.34-2.42.83s.61.8 2.24 2.05c1.62 1.26 3.59.8 3.59.8s-2.42 1.81-4.81 2.08c-2.39.28-4.11.34-5.24.61-1.13.28-4.84-.4-4.84-.4s1.44 2.36 4.32 3.22 7.69.7 11.77-1.1c-2.73 2.3-7.88 4.87-7.88 4.87s1.99 1.38 4.41.55 2.88-1.84 3.68-1.75 1.59.37 3-.43 2.51-.58 3.19-.98c.67-.4 1.72-1.5 1.72-1.5s-.37 1.81-1.5 3.06c-1.13 1.26-1.13 2.18-1.13 2.18s1.87-.92 3.68-1.59 7.85-5.49 7.85-5.49-1.65 4.5-6.59 7.32c-4.93 2.82-10.88 6.8-12.96 8.12s-4.17 5-4.17 5 3.08-.53 6.81-3.04c-7.05 5.06-2.8 5.12-7.55 6.11-4.75.98-6.07 1.47-7.51 1.13s-1.93-.52-2.18.37 2.27 2.76 2.94 3.46 4.69-.21 4.69-.21-1.29 1.59-1.1 2.36c.18.77 3.19 1.44 6.93 0s5.09-2.88 5.61-2.79.25 1.72 2.27 1.65c2.02-.06 4.87-2.67 5.39-2.64s1.16-.31 1.16-.31-10.26 12.67-13.93 15.69c-3.68 3.02-9.07 8.66-9.07 8.66-2.17 0-4.62.08-4.58.86s298.25 7.11 298.25 7.11 1.58-9.85-.38-12.88zm-246.27-37.35-2.76-4.9 8.03 3.43z"/></g><g fill="#fff"><path d="m1334.03 205.5v41.84l-165.3-1.68 3.42-8.21 7.1-7.21 7.62-1.94 5.57-6.72 3.91-1.01 4.95 2.77 1.24 3.08 5.97-1.54 4.33 1.54 2.68 5.16 5.98-1.34v-24.74z"/><path d="m686.65 159.69 5.56-7.08v-21.1h81.21v20.2l5.77 8.86-6.39.21.41 33.59-81-7.29v-27.39z"/><path d="m417.21 149.43s-6.54-3.7-7.16-3.7-7.42-7.83-7.42-7.83v-10.85l1.27-4.6 2.23-12.84 4.13-6.21 2.26-9.89 4.69-2.39 4.18 2.39 3.09 8.57 4.36 6.37v13.37l3.27 5.22v7.56l-3.3 8.04-4.74 4.12-6.85 2.67z"/><path d="m457.5 138.64s-7.88-3.51-8.52-3.51-5.95-8.27-5.95-8.27v-9.35l1.33-3.97 2.33-11.07 4.3-5.35 4.17-7.33 2.92-1.59 3.77 1.59 2.66 8.03 4.74 3.64 1.08 11.55 3.41 4.5v6.51l-3.44 6.93-5.34 5.85-7.47 1.84z"/><path d="m530.92 160.67s-7.88-3.51-8.52-3.51-5.95-8.27-5.95-8.27v-9.35l1.33-3.97 2.33-11.07 4.3-5.35 4.17-7.33 2.92-1.59 3.77 1.59 2.66 8.03 4.74 3.64 1.08 11.55 3.41 4.5v6.51l-3.44 6.93-5.34 5.85-7.47 1.84z"/><path d="m559.66 174.39-3.41-6.43-4.13-6.18-6.56-2.79-7.35-5.82-5.2.95-5-4.81-5.59 1.17-6.63-5-7.35 5.65s-8.71-1.42-11.24-1.62-5.65-5.72-5.65-5.72-5.98.58-6.95 1.1-5.85-6.04-9.29-5.26-6.63 4.87-6.89 7.08-4.74-.13-8.84 3.25-6.5 5.72-7.15 6.76-2.92 3.57-2.86 5.98.97 7.02.97 7.02l109.13 4.68z"/><path d="m565.86 175.07c-.45-1.15-.11-8.06.99-9.34s2.2-2.78 2.2-2.78-5.69-2.89-7.51-5.49-.73-18.56-.73-18.56l2.53-11.07 5.72-5.15 3.48-8.24h3.85l3.3 4.58 1.65 5.13 5.45 4.4.6 8.08 1.83 5.37 1.23 5.62 6.2.5 2.46 5.05s3.55-3 6.63-1.91l3.08 1.1 2.56 2.87.92 2.24s6.78-2.22 10.08 0 6.05 7.21 6.05 7.21 4.58-1.14 7.14 1.06 3.66 8.66 3.66 8.66 2.31-.97 4.27 3.06 1.04 5.13 1.04 5.13l-78.66-7.51z"/><path d="m798.4 153.65c.16-.49 4.47-8.31 4.47-8.31h12.44l4.78 8.11-21.69.19z"/><path d="m812.21 203.69h-4.19l-.48-50.12 4.67-.05z"/></g><g><path d="m1172.15 164.71h-95.63v7.71h95.63zm-95.63 21.31h95.63v-7.71h-95.63zm0 13.6h95.63v-7.71h-95.63zm0 13.6h95.63v-7.71h-95.63zm-783.92-117.22h-33.99v7.71h33.99zm-33.99 21.31h33.99v-7.7h-33.99zm0 13.6h33.99v-7.71h-33.99zm0 13.6h33.99v-7.7h-33.99zm39.88-40.79h33.99v-7.71h-33.99zm0 13.6h33.99v-7.7h-33.99zm0 13.6h33.99v-7.71h-33.99zm0 13.6h33.99v-7.7h-33.99zm1264.56-5.4h-33.99v7.71h33.99zm-33.99 21.31h33.99v-7.71h-33.99zm0 13.6h33.99v-7.71h-33.99zm0 13.6h33.99v-7.71h-33.99zm39.88-40.79h33.99v-7.71h-33.99zm0 13.6h33.99v-7.71h-33.99zm0 13.6h33.99v-7.71h-33.99zm0 13.6h33.99v-7.71h-33.99zm-1364.86-87.7h-95.63v7.71h95.63zm-95.63 21.31h95.63v-7.7h-95.63zm0 13.6h95.63v-7.71h-95.63zm0 13.6h95.63v-7.7h-95.63zm824.26-5.58h95.63v-7.71h-95.63zm0 13.6h95.63v-7.71h-95.63zm0 13.6h95.63v-7.71h-95.63zm0 13.6h95.63v-7.71h-95.63zm-9.97-48.5h-18.88v7.71h18.88zm-18.88 21.31h18.88v-7.71h-18.88zm0 13.6h18.88v-7.71h-18.88zm0 13.6h18.88v-7.71h-18.88zm-6.42-48.5h-18.88v7.71h18.88zm-18.88 21.31h18.88v-7.71h-18.88zm0 13.6h18.88v-7.71h-18.88zm0 13.6h18.88v-7.71h-18.88zm-6.42-48.5h-18.89v7.71h18.89zm-18.89 21.31h18.89v-7.71h-18.89zm0 13.6h18.89v-7.71h-18.89zm0 13.6h18.89v-7.71h-18.89zm255.4 62.01h35.71v-25.77h-35.71zm18.77-22.82h13.98v19.86h-13.98zm-15.81 0h12.85v19.86h-12.85zm-833.1-45.89h35.7v-25.77h-35.7zm18.76-22.82h13.99v19.86h-13.99zm-15.81 0h12.86v19.86h-12.86zm432.73 38.5h35.71v-25.77h-35.71zm18.77-22.81h13.98v19.85h-13.98zm-15.81 0h12.86v19.85h-12.86zm24.94-22.21h16.24v-11.41h-16.24zm2.96-8.47h10.34v5.51h-10.34zm-39.36 8.47h16.24v-11.42h-16.24zm2.96-8.47h10.33v5.5h-10.33zm577.21 106.51h35.71v-25.78h-35.71zm18.77-22.82h13.98v19.85h-13.98zm-15.82 0h12.86v19.85h-12.86zm-1090.79-47.36v-22.82h-35.71v22.82h-16.71v-22.82h-35.71v22.82h-13.76l.1 16.84 1.69-.26c36.32-5.62 101.79-11.92 137.47-15.39v-1.18h-37.37zm-69.37-19.85h13.99v19.85h-13.99zm-15.81 0h12.86v19.85h-12.86zm-13.68 33.25-.06-10.44h10.79 35.71 16.71 15.13c-25.92 2.92-51.99 6.38-78.28 10.43zm78.96-13.4h-12.85v-19.85h12.85zm16.94 0h-13.98v-19.85h13.98zm816.93 34.37h-20.19v-22.81h-35.71v22.81h-50.6v-22.81h-35.71v22.81l-31.08-.06 23.11 3c51.01 7.51 100.45 13.72 148.8 18.58l1.64.17-.02-1.65-.25-20.03zm-37.12-19.86h13.99v19.86h-13.99zm-15.82 0h12.86v19.86h-12.86zm-70.49 0h13.99v19.86h-13.99zm-15.81 0h12.86v19.86h-12.86zm9.89 22.82h22.87 50.6 35.71 17.27l.19 15.45c-41.3-4.17-83.42-9.33-126.64-15.45zm702.02 2.33v-22.81h-35.71v22.81h-14.98l-.2 11.72 1.69-.21c20.35-2.56 40.82-5.42 61.45-8.56l7.62-2.94h-19.88zm-32.75-19.86h12.86v19.86h-12.86zm-15.12 28.22.09-5.41h12.07 27.69c-13.34 1.92-26.62 3.72-39.84 5.4zm44.91-8.36h-13.98v-19.86h13.98zm77.38-10.81-.34.05c-5.11.91-10.19 1.77-15.28 2.64v-6.62c1.99-.65 3.83-1.78 5.45-3.24 2.17-.44 3.79-2.09 5.01-4.08 1.38-2.29 2.31-5.26 2.66-8.59.09-.88.13-1.74.13-2.57-.04-4.07-.93-7.64-2.97-9.95.03-.53.05-1.08.05-1.64 0-.17 0-.32 0-.46-.09-3.54-.85-6.7-2.13-9.16-1.06-2.01-2.58-3.74-4.68-4.28-.39-2.26-1.08-4.27-2.05-5.91-1.19-1.99-3-3.65-5.45-3.68-2.45.03-4.26 1.69-5.45 3.68-.98 1.64-1.67 3.65-2.05 5.9-2.11.53-3.63 2.27-4.69 4.29-1.28 2.45-2.04 5.61-2.12 9.11 0 .13-.01.29-.01.49 0 .57.02 1.12.06 1.65-2.05 2.31-2.94 5.88-2.98 9.95 0 .83.04 1.7.14 2.59.34 3.3 1.28 6.27 2.64 8.55 1.22 1.99 2.82 3.64 4.98 4.1 1.77 1.6 3.79 2.78 5.97 3.4v7.75c-6.64 1.12-13.25 2.2-19.85 3.26v-83.24h-41.74v-12.5h-46.46v12.5h-11.67v97.16c-7.42.87-14.83 1.71-22.22 2.51v-9.58c3.41-.56 6.6-1.75 9.44-3.46 5.8-.56 10.42-5.97 11.5-12.64.14-.92.21-1.81.21-2.69 0-4.21-1.63-8.01-4.57-10.19.04-.46.06-.92.06-1.4 0-.18 0-.34 0-.44-.26-6.94-4.51-12.93-10.5-13.55-1.37-5.28-5.3-9.41-10.49-9.47-5.19.06-9.12 4.19-10.5 9.46-6 .62-10.24 6.62-10.5 13.48 0 .17-.01.36 0 .55 0 .47.02.92.06 1.37-2.93 2.18-4.57 5.98-4.57 10.19 0 .87.07 1.77.22 2.7 1.08 6.62 5.67 12.01 11.44 12.62 3.19 1.92 6.83 3.19 10.7 3.64v10.2c-12.53 1.32-25.03 2.52-37.5 3.62v-45.67h9.39s-5.5-11.82-5.5-11.82h-15.93l-5.5 11.83h9.52v46.35c-5.53.47-11.05.87-16.57 1.3-.63-.45-1.29-.86-2.01-1.18-.08-5.12-4.26-9.25-9.4-9.25-.46 0-.9.04-1.32.11-2.13-4.59-6.76-7.8-12.17-7.81-1.4 0-2.74.23-4 .63-1.39-3.45-4.77-5.89-8.72-5.89-1.48 0-2.87.36-4.1.97-1.54-3.08-4.7-5.19-8.38-5.2-4.61 0-8.44 3.32-9.25 7.7-.19 0-.38-.02-.57-.02-5.18 0-9.55 3.3-11.23 7.89-3.97 1.1-6.89 4.72-6.89 9.05 0 .63.07 1.23.19 1.8-2.71 1.19-4.88 3.34-6.1 6.03-1.31.05-2.62.12-3.94.17v-33.35h7.49l-6.26-11.11h-118.74l-4.92 11.11h5.69v23.04c-1.1.07-2.17.24-3.18.56-1.38-3.44-4.73-5.88-8.66-5.88-1.47 0-2.84.36-4.06.96-1.53-3.07-4.67-5.19-8.32-5.19-4.59 0-8.39 3.33-9.18 7.7-.18-.01-.37-.02-.55-.02-.33 0-.65.05-.98.08v-73.34h-60.62v-12.5h-46.47v12.5h-11.67v78.97c-8.32-.67-16.68-1.39-25.06-2.14v-106.4h-20.58v-12.5h-86.5v12.5h-98.69v80.89c-1.97-.3-3.92-.59-5.89-.9-5.21-.82-10.38-1.6-15.54-2.39v-46.37h9.39l-5.5-11.82h-15.93l-5.5 11.83h9.52v45.15c-10.28-1.55-20.5-3.05-30.66-4.51v-34.49h6.5l-6.68-9.64h.17v-22.82h-84.92v22.82h.18l-6.67 9.64h6.49v23.3c-7.32-.87-14.62-1.72-21.89-2.54v-47.92h9.39l-5.5-11.82h-15.93l-5.5 11.82h9.52v47.02c-4.19-.46-8.35-.87-12.52-1.32-.91-3.66-3.43-6.67-6.76-8.25-.25-5.25-4.58-9.42-9.89-9.42-.35 0-.69.02-1.02.06-2.27-4.58-6.98-7.76-12.46-7.76-1.3 0-2.54.19-3.72.52-1.56-3.41-5-5.78-9-5.78-1.39 0-2.7.3-3.89.82-1.69-3.01-4.9-5.04-8.6-5.04-.16 0-.31.03-.46.04-.27-3.25-1.16-6.07-2.88-8.01.04-.52.06-1.07.06-1.63 0-.17 0-.33 0-.51-.09-3.5-.85-6.66-2.13-9.11-1.06-2.01-2.58-3.75-4.68-4.28-.39-2.25-1.08-4.27-2.05-5.9-1.19-1.99-3-3.65-5.45-3.68-2.45.03-4.27 1.69-5.46 3.68-.98 1.64-1.67 3.65-2.05 5.91-2.11.53-3.63 2.27-4.69 4.29-1.27 2.45-2.03 5.61-2.12 9.1v.48c0 .57.02 1.12.06 1.66-2.05 2.31-2.93 5.88-2.98 9.94 0 .84.05 1.7.14 2.58.34 3.32 1.28 6.28 2.64 8.56 1.22 2 2.83 3.65 4.99 4.1.45.4.92.74 1.4 1.09-1.68 1.77-2.74 4.14-2.74 6.78 0 .52.05 1.03.13 1.52-.32.16-.62.35-.92.53-.53-.04-1.06-.07-1.59-.11-.83-2.84-2.8-5.18-5.4-6.48-.32-4.38-3.97-7.83-8.43-7.83-.21 0-.42 0-.63.03-.54-1.03-1.23-1.96-2.03-2.78 2.04-2.38 3.32-5.94 3.79-10.09.09-.88.14-1.74.14-2.57-.04-4.07-.93-7.64-2.98-9.95.04-.54.06-1.1.06-1.68v-.44c-.09-3.52-.85-6.68-2.13-9.13-1.06-2.01-2.58-3.74-4.69-4.28-.39-2.25-1.08-4.26-2.05-5.9-1.19-2-3-3.65-5.45-3.68-2.45.03-4.26 1.69-5.45 3.68-.98 1.64-1.67 3.65-2.05 5.9-2.11.53-3.63 2.28-4.69 4.29-1.28 2.45-2.03 5.61-2.12 9.11v.59c0 .53.02 1.05.06 1.55-2.06 2.31-2.94 5.88-2.99 9.96 0 .49.05 1.01.08 1.52-2.71.5-4.95 2.29-6.09 4.71-2.06-1.22-4.45-1.94-7.02-1.94-1.3 0-2.54.18-3.72.52-1.56-3.41-5-5.78-9-5.78-1.39 0-2.7.3-3.88.82-1.69-3.01-4.9-5.04-8.6-5.04-4.71 0-8.64 3.28-9.65 7.68-.05 0-.11 0-.17 0-1.54 0-2.99.31-4.35.82v-6.73c1.91-.66 3.68-1.76 5.25-3.2 4.2-.89 6.65-6.1 7.39-12.25.09-.86.13-1.7.13-2.51-.03-4.09-.98-7.64-3-9.79.05-.59.07-1.19.07-1.82 0-.16 0-.32 0-.47-.09-3.43-.84-6.53-2.07-8.9-1.08-2.06-2.63-3.73-4.7-4.11-.82-5.06-3-9.22-7.05-9.49-4.05.27-6.23 4.43-7.06 9.49-2.07.38-3.62 2.05-4.7 4.11-1.23 2.36-1.98 5.46-2.06 8.9v.5c0 .62.03 1.22.07 1.8-2.02 2.15-2.96 5.69-3 9.78 0 .82.04 1.66.14 2.53.73 6.13 3.17 11.3 7.33 12.23 1.71 1.58 3.66 2.75 5.77 3.38v13.82c-3.92 1.31-6.75 4.98-6.76 9.35 0 .52.05 1.03.13 1.52-1.28.62-2.42 1.45-3.41 2.43-7.81-.19-15.62-.37-23.41-.47v-15.94c1.99-.66 3.83-1.78 5.45-3.25 2.17-.44 3.79-2.09 5.01-4.09 1.38-2.29 2.32-5.25 2.66-8.6.09-.87.13-1.73.13-2.57-.04-4.08-.92-7.64-2.98-9.95.04-.52.06-1.06.06-1.61 0-.18 0-.36 0-.52-.03-1.27-.15-2.48-.35-3.62.92-6.46-1.83-11.07-4.68-14.46-.11-2.54-.73-5.22-2.06-7.49-1.41-2.49-4.02-4.57-7.44-4.54-3.6-.02-6.03 2.51-7.2 5.11-1.1 2.36-1.55 4.99-1.65 7.22-2.87 3.2-4.67 7.92-4.9 14.12-.2 1.15-.32 2.37-.35 3.63v.48c0 .58.02 1.13.06 1.67-2.05 2.31-2.94 5.88-2.98 9.95 0 .83.04 1.69.14 2.58.34 3.32 1.28 6.28 2.65 8.56 1.21 2 2.83 3.64 4.98 4.1 1.76 1.59 3.78 2.78 5.97 3.4v15.73c-7.07-.07-14.13-.11-21.19-.11-4.2 0-8.39.01-12.58.04v-45.02h8.92l-3.79-13.08h-18.32l-3.91 13.08h9.07v45.1c-8.76.1-17.51.26-26.26.47v-81.36h-41.74v-12.5h-46.46v12.5h-11.68v86.31c-2.41.18-4.82.37-7.24.56v-82.93h-60.62v-12.5h-46.47v12.5h-58.2v103.36c-3.57.57-7.54 1.21-11.77 1.88v-47.65h9.38l-5.5-11.82h-15.93l-5.5 11.82h9.52v48.93c-7.49 1.19-15.46 2.45-23.32 3.71v-13.21c1.99-.65 3.83-1.78 5.45-3.24 2.17-.44 3.79-2.09 5.01-4.08 1.38-2.29 2.32-5.25 2.67-8.6.09-.87.13-1.73.13-2.56-.04-4.08-.92-7.65-2.98-9.97.04-.53.06-1.07.06-1.62 0-.18 0-.35 0-.49-.09-3.53-.85-6.69-2.13-9.14-1.06-2.01-2.58-3.75-4.69-4.29-.39-2.26-1.08-4.26-2.05-5.9-1.19-1.99-3-3.65-5.45-3.68-2.45.03-4.26 1.69-5.46 3.68-.97 1.64-1.67 3.64-2.05 5.9-2.11.53-3.63 2.27-4.69 4.28-1.28 2.45-2.03 5.61-2.12 9.11v.46c0 .58.02 1.14.06 1.69-2.05 2.31-2.94 5.88-2.98 9.95 0 .84.04 1.7.14 2.59.35 3.31 1.28 6.27 2.65 8.55 1.21 2 2.83 3.64 4.99 4.1 1.76 1.59 3.78 2.78 5.96 3.4v14.28c-8.25 1.33-15.78 2.61-22.49 3.76v3.98c7.13-1.23 15.93-2.7 24.78-4.12l1.28-.21 2.29-.37c9.16-1.48 18.56-2.96 27.25-4.34l1.66-.26.43-56.23h-7.71l1.83-3.95h10.9l1.83 3.95h-7.15l-1.21 56.4 3.49-.55c5.77-.92 11.12-1.77 15.71-2.51l1.66-.27v-102.78h157.26v83.25l2.13-.17c3.72-.3 7.44-.58 11.17-.86l1.83-.14v-86.02h91.99v81.43l2.02-.05c10.05-.25 20.1-.44 30.17-.54l3.45-.02-1.49-52.93h-7.73l1.55-5.19h12.42l1.5 5.19h-8.84l1.23 52.93 1.99-.02c4.84-.05 9.68-.06 14.54-.06 7.7 0 15.42.04 23.14.13l1.99.02h1.57c8.62.11 17.27.29 25.93.5h.26c4.8.13 9.61.28 14.42.43 3.37.11 6.73.21 10.11.33 5.48.2 10.96.41 16.45.65 1.31.06 2.63.13 3.94.18 12.37.56 24.79 1.22 37.25 1.98 10.65.65 21.32 1.36 32.05 2.15.12 0 .24.02.36.03l2.31.17c.22 0 .43.02.65.04l.57.04c5.71.43 11.45.89 17.19 1.36 2.25.18 4.51.38 6.77.57 19.06 1.62 38.26 3.45 57.65 5.48 5.65.59 11.27 1.16 16.95 1.79l2.19.24v-55.37h-7.28l1.84-3.94h10.9l1.83 3.94h-7.15v55.39l1.75.19c8.57.96 17.17 1.96 25.82 3l2.2.26v-27.74h77.04v37.91l1.69.24c11.45 1.64 22.97 3.33 34.58 5.09l.77.4-.16-53.74h-5.63l1.83-3.94h10.9l1.84 3.94h-5.23l.13 53.7-.38.26c5.72.87 11.44 1.74 17.2 2.64 2.75.43 5.45.83 8.17 1.25l2.27.35v-81.54h197.89v106.04l1.79.17c9.71.88 19.4 1.7 29.03 2.47l2.13.17v-79.3h110.87v69.89c-3.02 1.33-5.4 3.82-6.59 6.92-4.04 1.24-6.96 5-6.96 9.45v1.97l101.82-.49v-26.27h-36.69v16.11c-1.88-3.24-5-5.65-8.73-6.53v-22.4h108.85v38.17l2.04-.07c36.11-1.26 72.2-4.67 108.49-7.75l3.01-.08-1.2-53.99h-7.28l1.83-3.94h10.9l1.83 3.94h-7.15v53.91l2.14-.19c13.79-1.2 27.61-2.53 41.47-3.99l1.76-.19s1.81-.2 1.81-.2c8.71-.93 17.43-1.92 26.18-2.96l1.74-.21v-96.73h91.99v83.92l2.28-.36c7.91-1.27 15.85-2.56 23.81-3.91l1.65-.28s1.92-.34 1.92-.34c5.86-1 11.36-1.95 17.26-2.99v-3.97zm-1631.4-21.59c-.16.03-.32.05-.48.08l.25 1.84h-.16l-.22-1.83c-.25.03-.53.04-.83.05v.1s-1.36-.2-1.36-.2c-2.1-.31-4.12-1.36-5.95-3.14l-.53-.52-.73-.04c-.49.03-1.61-.61-2.61-2.31-1-1.65-1.82-4.12-2.11-6.94-.08-.75-.12-1.47-.12-2.18-.05-3.83 1.24-6.89 2.32-7.67l.82-.67-.1-1.05c-.07-.75-.12-1.49-.12-2.25 0-.11 0-.23 0-.36.06-2.97.75-5.63 1.67-7.38.85-1.63 1.79-2.26 2.3-2.34.08.02.18.05.33.08l2.06.32.2-2.08c.24-2.47.92-4.61 1.74-5.97.85-1.4 1.66-1.79 2.07-1.76.41-.03 1.22.36 2.07 1.76.82 1.36 1.5 3.49 1.74 5.97l.2 2.08 2.07-.33c.14-.03.24-.05.32-.07.5.06 1.45.69 2.3 2.34.93 1.75 1.61 4.4 1.68 7.37v.43c0 .73-.04 1.46-.11 2.17l-.11 1.05.82.67c1.09.78 2.38 3.84 2.33 7.69 0 .7-.04 1.42-.11 2.16-.28 2.83-1.11 5.31-2.12 6.96-1.01 1.7-2.12 2.32-2.6 2.29l-.75.03-.54.53c-1.75 1.69-3.66 2.73-5.64 3.09zm147.27-93.57h-40.55v-9.55h40.55zm125.99-3.94h-40.55v-9.55h40.55zm117.88 61.54c-.22.04-.43.07-.63.09l.23 1.84h-.04l-.21-1.83c-.26.03-.55.04-.85.05v.1s-1.36-.2-1.36-.2c-2.1-.3-4.12-1.36-5.95-3.14l-.53-.51-.73-.04c-.49.02-1.61-.62-2.61-2.31-1-1.65-1.82-4.12-2.11-6.94-.08-.75-.12-1.47-.12-2.17-.05-3.84 1.24-6.89 2.32-7.67l.82-.67-.1-1.05c-.07-.75-.12-1.49-.12-2.23 0-.12 0-.24 0-.38.03-1.12.14-2.19.31-3.18l.03-.13v-.14c.22-5.97 1.97-9.84 4.33-12.2l.58-.58v-.81c0-1.89.4-4.48 1.29-6.34.96-1.91 1.98-2.83 3.64-2.86 1.83.03 3 .91 4.05 2.6 1 1.68 1.55 4.1 1.54 6.27v.82l.58.58c2.05 1.94 4.14 7.65 4.08 12.46v.17l.03.18c.18 1 .29 2.06.32 3.17v.44c0 .73-.05 1.44-.12 2.16l-.1 1.05.82.67c1.09.77 2.37 3.83 2.32 7.68 0 .7-.04 1.43-.11 2.17-.28 2.83-1.11 5.31-2.11 6.95-1.01 1.7-2.12 2.32-2.61 2.29l-.75.03-.54.52c-1.73 1.67-3.62 2.71-5.58 3.08zm102.01-11.68.83-.67-.11-1.06c-.07-.71-.12-1.4-.12-2.1 0-.17 0-.32 0-.45.07-3.01.75-5.67 1.67-7.42.86-1.65 1.8-2.27 2.31-2.34.07.02.17.04.29.07l2.09.36.2-2.11c.23-2.47.92-4.61 1.74-5.97.85-1.41 1.66-1.8 2.07-1.77.41-.03 1.22.36 2.07 1.77.83 1.36 1.5 3.5 1.74 5.97l.2 2.1 2.09-.35c.13-.02.23-.05.31-.07.51.07 1.45.71 2.29 2.34.93 1.75 1.61 4.41 1.68 7.37v.36c0 .76-.05 1.5-.12 2.25l-.1 1.04.82.67c1.09.78 2.37 3.84 2.32 7.67 0 .7-.04 1.42-.11 2.18-.33 3.71-1.73 6.75-3.04 8.18-.01 0-.02 0-.03-.02-.31-.15-.63-.29-.95-.41-.15-.06-.3-.11-.45-.17-.27-.09-.55-.18-.83-.25-.25-.07-.51-.12-.76-.17-.21-.04-.42-.09-.64-.12-.49-.07-1-.11-1.51-.11-.98 0-1.94.13-2.85.36-.5-1-1.2-1.88-2.03-2.6-1.48-1.28-3.4-2.06-5.51-2.06-.64 0-1.25.09-1.84.23-.41.09-.81.2-1.19.34-.25-.41-.55-.79-.86-1.14-.05-.05-.09-.1-.14-.15-1.01-1.1-2.31-1.94-3.79-2.37-.05-.59-.07-1.17-.07-1.72-.05-3.84 1.24-6.9 2.33-7.68zm-70.21-1.39-.4-.38-.55-.03c-.75 0-1.96-.79-3.01-2.55-1.04-1.73-1.88-4.26-2.17-7.14l-1.47.15 1.47-.16c-.08-.76-.12-1.49-.12-2.21-.04-3.93 1.22-7.09 2.5-8.05l.61-.5-.07-.78c-.07-.74-.12-1.48-.12-2.24 0-.14 0-.28 0-.42.07-3.04.76-5.76 1.72-7.6.94-1.81 2.05-2.58 2.79-2.6.06.02.16.05.31.08l1.58.29.16-1.6c.25-2.53.94-4.73 1.81-6.18.89-1.48 1.83-2.03 2.49-2.01.66-.02 1.6.53 2.49 2.01.87 1.45 1.57 3.64 1.81 6.18l.16 1.6 1.59-.29c.15-.03.25-.06.31-.08.74.03 1.84.8 2.78 2.61.97 1.84 1.66 4.56 1.73 7.59v.41c0 .76-.05 1.51-.12 2.25l-.08.79.62.5c1.28.96 2.54 4.14 2.51 8.07 0 .71-.04 1.45-.12 2.21-.29 2.89-1.13 5.44-2.18 7.16-1.05 1.76-2.26 2.54-3.01 2.53l-.57.02-.4.39c-1.11 1.07-2.3 1.9-3.53 2.46v-.16l-2.31.41c-.57.1-1.04.17-1.45.17s-.88-.07-1.46-.16l-2.29-.38v.31c-1.42-.57-2.77-1.44-4.04-2.65zm74.18 36.33c-10.32-.62-20.61-1.16-30.86-1.64-2.08-.1-4.17-.2-6.25-.29-4.9-.21-9.81-.42-14.7-.6-4.36-.16-8.72-.3-13.07-.44-2.47-.08-4.96-.18-7.43-.25l.45-.14-.72-1.96c-.25-.68-.39-1.35-.39-2.04 0-2.93 2.13-5.36 4.93-5.85l1.22-.22.34-1.18c.04-.15.11-.29.16-.44.42-1.23 1.09-2.32 1.96-3.22.05-.05.11-.09.16-.14.25-.25.51-.48.78-.7l.03-.02c1.42-1.08 3.18-1.72 5.1-1.71.49 0 .99.06 1.53.16l2.31.43.02-2.35c.03-3.27 2.68-5.91 5.95-5.91 2.76 0 5.06 1.89 5.73 4.45l.76 2.88 2.36-1.83c1.04-.8 2.28-1.28 3.64-1.28 2.88 0 5.29 2.06 5.84 4.78l.49 2.43 2.26-1.03c1.29-.59 2.67-.92 4.14-.92 2.65 0 5.03 1.05 6.81 2.74l.02.02c.2.19.38.4.57.61.12.13.24.26.35.4.15.19.29.38.43.58.15.21.29.43.42.66.09.15.18.3.26.46.21.41.4.83.56 1.27l.62 1.76 1.8-.52c.59-.17 1.14-.28 1.66-.28.3 0 .59.05.87.09 2.23.33 4.04 1.89 4.75 3.97.2.6.34 1.23.34 1.9v.11c0 .05-.01.13-.03.23-.01.09-.02.16-.04.29l-.16 1.57 1.2.4.3.1c.51.17 1 .4 1.46.66.12.07.23.13.34.2.39.24.77.52 1.12.82.05.05.11.09.17.13.31.28.58.61.84.94-.46-.03-.92-.05-1.38-.08zm31.48 2.08c-8.46-.61-16.89-1.19-25.3-1.71 0-.01-.02-.03-.02-.04-.27-.61-.6-1.19-.96-1.74-.05-.08-.09-.15-.15-.23-.37-.53-.78-1.02-1.22-1.49-.09-.09-.17-.18-.26-.27-.45-.45-.93-.87-1.45-1.24-.08-.06-.17-.12-.26-.18-.55-.38-1.13-.73-1.75-1.03-.25-5.24-4.58-9.42-9.89-9.43-.19 0-.37.02-.55.03-.16.01-.32 0-.48.03-.58-1.17-1.32-2.24-2.19-3.2.44-2.02 2.23-3.53 4.37-3.54l.46.04c.94.09 1.79.47 2.47 1.05 0 0 .01.01.02.02.33.28.61.61.84.98.02.03.03.06.05.08.22.36.4.76.51 1.18v.01l.5 1.88.26 1 2.35-1.83c.8-.61 1.72-.97 2.75-.97.07 0 .13.02.2.02 2.09.09 3.81 1.61 4.21 3.59l.34 1.72.14.71 2.27-1.02c.45-.2.92-.35 1.4-.47.12-.03.24-.06.36-.08.48-.1.98-.17 1.48-.17h.04c.39 0 .77.03 1.14.09s.73.14 1.09.25c.72.23 1.39.56 2.01.97l.38.26c1.22.93 2.16 2.2 2.68 3.68l.61 1.76 1.79-.51c.47-.14.87-.21 1.26-.21 2.49 0 4.51 2.02 4.51 4.51 0 0-.02.11-.06.46l-.18 1.58 1.51.51c1.56.52 2.87 1.6 3.67 3-.33-.02-.65-.04-.98-.07zm10.81-13.21-.73-.04c-.49.03-1.61-.61-2.61-2.31-.99-1.65-1.82-4.12-2.1-6.94-.08-.74-.12-1.48-.12-2.18-.05-3.84 1.23-6.89 2.32-7.67l.82-.67-.1-1.04c-.07-.75-.12-1.48-.12-2.22 0-.14 0-.26 0-.34.07-3.01.75-5.67 1.68-7.42.86-1.65 1.8-2.28 2.31-2.33.07.02.16.04.28.07l2.09.36.21-2.11c.23-2.47.92-4.61 1.74-5.97.85-1.41 1.66-1.8 2.08-1.77.41-.03 1.22.36 2.07 1.76.82 1.36 1.5 3.5 1.74 5.97l.2 2.11 2.09-.37c.12-.02.22-.04.29-.06.5.06 1.45.69 2.3 2.34.92 1.75 1.61 4.41 1.68 7.38v.42c0 .73-.05 1.45-.12 2.19l-.1 1.05.82.67c1 .71 2.15 3.33 2.31 6.71-.93.45-1.77 1.05-2.51 1.76-.07.07-.15.14-.22.21-.2.21-.4.42-.58.64-.14.17-.27.35-.4.53-.19.27-.37.53-.53.82-.16.28-.31.56-.44.85-.07.16-.14.32-.2.49-.16.41-.3.83-.4 1.26 0 .03-.02.06-.03.09-.06 0-.12 0-.17 0-3.32 0-6.32 1.3-8.54 3.41-.2.18-.36.4-.54.6-.23.25-.48.49-.69.76-.76.97-1.38 2.04-1.83 3.21-.07.02-.14.06-.21.08-.19.07-.38.13-.57.21-.91-.51-1.79-1.17-2.62-1.98l-.53-.51zm22.19 15.81c-2.3-.2-4.6-.38-6.89-.57-4.63-.38-9.29-.79-13.91-1.15l-.14-.38c-.25-.68-.39-1.36-.39-2.04 0-2.15 1.16-4.02 2.87-5.07l.31-.16c.29-.15.57-.28.87-.39.04-.01.09-.02.13-.03.25-.08.5-.16.76-.2l1.22-.22.34-1.18c1.03-3.6 4.29-6.23 8.19-6.23.5 0 1 .06 1.54.16l.99.18 1.32.24v-.46s.02-1.89.02-1.89c0-.06.01-.13.02-.19.01-.3.04-.6.1-.89.03-.15.07-.29.11-.43.05-.19.11-.39.18-.57.07-.17.14-.33.22-.49.06-.13.13-.25.2-.37.11-.19.23-.39.36-.56.02-.02.03-.04.05-.06.74-.96 1.77-1.68 2.96-2.06l.6-.19c.37-.07.76-.12 1.15-.12 2.76 0 5.06 1.89 5.73 4.45l.75 2.88 2.36-1.82c1.04-.81 2.28-1.28 3.64-1.28 2.88 0 5.29 2.06 5.84 4.78l.49 2.43 2.26-1.03c1.29-.59 2.67-.92 4.14-.93 4.36 0 8.03 2.82 9.41 6.73l.62 1.77 1.8-.53c.58-.17 1.13-.27 1.65-.27 3.29 0 5.95 2.67 5.96 5.96 0 .03-.02.22-.07.62l-.17 1.58 1.51.5c2.29.76 4.15 2.45 5.12 4.62-18.21-1.9-36.28-3.63-54.2-5.15zm104.88-41.45h77.03v17.4h-77.03zm4.42 25.56h-9.21l3.6-5.21h5.61zm10.73 0h-7.77v-5.21h7.77zm10.72 0h-7.77v-5.21h7.77zm10.73 0h-7.77v-5.21h7.77zm10.72 0h-7.77v-5.21h7.77zm10.73 0h-7.77v-5.21h7.77zm10.72 0h-7.77v-5.21h7.77zm2.95 0v-5.21h6.51l3.6 5.21zm251.6-34.43h-80.59v-9.55h80.59zm103.79 29.56h-40.55v-9.55h40.55zm130.47 68.36h13.49v19.87h-13.49zm-15.33 0h12.37v19.87h-5.21c-.09-.39-.23-.77-.38-1.13-.04-.09-.08-.18-.12-.27-.14-.31-.3-.6-.48-.88-.03-.04-.05-.09-.08-.13-.22-.33-.47-.62-.74-.9-.03-.03-.06-.06-.09-.09-.34-.34-.7-.64-1.1-.9-.12-.08-.26-.13-.39-.2-.25-.15-.51-.28-.78-.4-.2-.09-.4-.18-.6-.26-.29-.11-.59-.19-.89-.28-.4-.11-.81-.2-1.23-.27-.1-.02-.19-.04-.28-.05zm-6.53 16.89.61 1.78 1.81-.53c.57-.17 1.08-.26 1.57-.27l.5.02c.45.01.88.04 1.28.1.03 0 .05 0 .08.01.38.05.73.12 1.06.21.03 0 .06.02.1.03.31.08.59.18.85.29.07.03.13.07.2.1.2.1.39.19.55.31.07.05.13.11.19.16.12.1.24.2.35.31.06.06.11.14.16.21.07.08.13.17.18.27l-68.23.41c.7-2.01 2.92-3.92 5.03-4.29l1.22-.22.33-1.19c.79-2.82 2.72-6.78 8.1-6.72.52 0 1.05.07 1.61.17l1.73.32v-1.76c.04-3.55 2.9-6.41 6.4-6.4 2.95 0 5.42 2.04 6.15 4.82l.56 2.18 1.77-1.39c1.1-.86 2.43-1.38 3.89-1.38 3.09 0 5.66 2.21 6.26 5.17l.37 1.84 1.71-.78c1.1-.5 11.61-3.13 13.61 6.25zm-1.12-36.6h-8.98v.5h-1.15l2.31-5.21h7.82zm10.72 0h-7.77v-4.71h7.77zm10.73 0h-7.77v-4.71h7.77zm9.75 0h-6.79v-4.71h6.79zm10.73 0h-7.77v-4.71h7.77zm10.73 0h-7.77v-4.71h7.77zm10.72 0h-7.77v-4.71h7.77zm10.73 0h-7.77v-4.71h7.77zm10.72 0h-7.77v-4.71h7.77zm10.73 0h-7.77v-4.71h7.77zm2.96 0v-4.71h8.76l2.93 5.2h-2.44v-.49zm92.1 31.45-.08.76c-25.16 1.87-50.26 3.29-75.34 4.28 1.15-1.67 2.83-2.96 4.83-3.55l1.5-.45-.54-1.47c-.26-.73-.42-1.45-.42-2.21 0-3.18 2.31-5.81 5.34-6.34l.91-.16.26-.89c1.09-3.8 4.53-6.59 8.66-6.59.53 0 1.06.06 1.62.16l1.73.32v-1.76c.04-3.54 2.92-6.41 6.46-6.4 2.99 0 5.48 2.04 6.21 4.82l.56 2.16 1.77-1.36c1.13-.87 2.47-1.39 3.94-1.39 3.13 0 5.73 2.23 6.33 5.17l.37 1.83 1.69-.77c1.35-.61 2.8-.96 4.34-.97 4.58 0 8.44 2.96 9.88 7.06l.46 1.32 1.35-.39c.61-.18 1.21-.29 1.79-.29 3.56 0 6.44 2.89 6.45 6.46 0 .09-.03.31-.08.67zm72.46-19.3-.96.09v-.02c-.3.02-.59.03-.89.03v.04l-1.43-.06c-4.07-.19-7.86-1.43-11.09-3.45l-.45-.28-.53-.02c-3.4-.02-7.42-3.91-8.25-9.35-.12-.71-.17-1.4-.17-2.06 0-3.65 1.61-6.41 3.66-7.46l1.24-.66-.22-1.39c-.11-.69-.17-1.37-.17-2.06 0-.13 0-.26 0-.39.2-5.68 3.85-9.76 7.28-9.76h.14.03s.1-.33.1-.33l-.07.34c.06.02.22.06.46.08l1.88.21.29-1.88c.74-4.78 3.87-7.91 6.95-7.84 3.08-.07 6.22 3.06 6.95 7.84l.28 1.87 1.89-.21c.25-.03.4-.07.46-.08h.14c3.44-.06 7.13 4.05 7.34 9.73v.37c0 .71-.06 1.4-.17 2.11l-.21 1.38 1.24.66c2.04 1.05 3.65 3.81 3.65 7.45 0 .67-.05 1.36-.17 2.07-.83 5.47-4.88 9.37-8.28 9.35h-.54s-.46.3-.46.3c-2.93 1.84-6.29 3.02-9.93 3.37zm39.01-86.41v-9.55h40.55v9.55zm108.71 68.79v.1s-1.36-.2-1.36-.2c-2.1-.31-4.12-1.36-5.95-3.13l-.53-.51-.74-.04c-.49.03-1.61-.61-2.61-2.31-1-1.65-1.82-4.12-2.11-6.94-.08-.74-.11-1.47-.11-2.17-.05-3.84 1.24-6.89 2.32-7.67l.82-.67-.11-1.05c-.07-.73-.12-1.46-.12-2.2 0-.1 0-.23 0-.39.07-2.97.75-5.63 1.67-7.38.86-1.64 1.8-2.27 2.31-2.34.07.02.17.04.29.07l2.09.36.2-2.11c.24-2.47.92-4.61 1.74-5.97.85-1.4 1.66-1.79 2.07-1.77.41-.03 1.22.36 2.07 1.77.82 1.36 1.5 3.5 1.74 5.97l.2 2.11 2.09-.36c.12-.02.21-.05.28-.06h.03c.51.08 1.45.71 2.29 2.34.93 1.75 1.61 4.4 1.67 7.37v.41c0 .74-.05 1.47-.12 2.2l-.1 1.05.82.67c1.09.78 2.37 3.84 2.32 7.68 0 .71-.03 1.43-.11 2.17-.28 2.83-1.11 5.31-2.11 6.96-1.01 1.7-2.12 2.32-2.61 2.29l-.75.03-.54.52c-2.17 2.09-4.57 3.19-7.08 3.23z" fill="#312e30"/><g fill="#fff"><path d="m415.70001 145.77h3.33v20.790001h-3.33z"/><path d="m456.65 129.16h3.46v18.26l-3.46 5.46z"/></g></g><path d="m0 265.28v-60.88c83.32-5.65 94.14-17.36 199.48-25.92 36.66-2.98 97.65-6.52 155.93-8.34 145.68-4.55 269.76 9.6 396.8 27.1 171.77 23.67 316.97 43.8 403.2 45.45 48.49.93 87.44 2.92 121.89 2.96 59.94.07 104-3.64 159.22-8.93 103.01-9.88 191.83-25.44 222.56-32.36v60.91h-1659.08z" fill="#312e30"/></g></svg>