<?xml version="1.0" encoding="UTF-8" standalone="no"?>
<svg
   viewBox="0 0 1659.08 234.75001"
   version="1.1"
   id="svg11"
   sodipodi:docname="cityscape.svg"
   width="1659.08"
   height="234.75"
   inkscape:version="1.3 (0e150ed, 2023-07-21)"
   xmlns:inkscape="http://www.inkscape.org/namespaces/inkscape"
   xmlns:sodipodi="http://sodipodi.sourceforge.net/DTD/sodipodi-0.dtd"
   xmlns="http://www.w3.org/2000/svg"
   xmlns:svg="http://www.w3.org/2000/svg">
  <sodipodi:namedview
     id="namedview11"
     pagecolor="#ffffff"
     bordercolor="#000000"
     borderopacity="0.25"
     inkscape:showpageshadow="2"
     inkscape:pageopacity="0.0"
     inkscape:pagecheckerboard="0"
     inkscape:deskcolor="#d1d1d1"
     inkscape:zoom="0.44482754"
     inkscape:cx="828.41094"
     inkscape:cy="121.39536"
     inkscape:window-width="1312"
     inkscape:window-height="449"
     inkscape:window-x="250"
     inkscape:window-y="186"
     inkscape:window-maximized="0"
     inkscape:current-layer="svg11" />
  <defs
     id="defs1">
    <style
       id="style1">.cls-1{fill:#fff;}.cls-2{fill:#312e30;}</style>
  </defs>
  <g
     id="spruce"
     transform="translate(0,-30.53)">
    <path
       class="cls-2"
       d="m 1272.38,248.62 h 245.28 V 248 h -24.11 c 0,0 -5.03,-2.35 -7.55,-2.2 0.49,-0.83 -0.89,-0.86 -2.22,-1.33 l -1.33,-0.46 c 0,0 2.68,0.31 4.16,-0.86 1.48,-1.17 1.14,-2.9 0.68,-2.9 -0.46,0 -0.89,0.8 -1.23,0.74 -0.34,-0.06 -3.98,-1.54 -5.21,-3.98 2.56,1.79 6.6,0 6.6,0 0,0 -1.51,-0.43 -2.37,-0.34 2.93,-0.71 3.45,-2.1 3.45,-2.1 0,0 -3.21,1.05 -4.47,0.43 -1.26,-0.62 -1.76,-1.14 -1.76,-1.14 0,0 1.76,0.22 3.18,-0.34 -5,-0.31 -6.81,-2.5 -7.06,-3.45 -0.25,-0.95 -0.86,-1.94 -0.46,-2.1 0.4,-0.15 1.57,0.86 3.64,0 -0.35,-0.39 -1.38,-0.58 -1.38,-0.58 0,0 1.87,-0.68 1.87,-1.44 0,-0.76 -1.58,-0.04 -2.2,-0.31 -0.62,-0.27 -1.99,-1.46 -1.99,-1.79 0,-0.33 1.75,-0.64 1.62,-1.62 -0.12,-0.99 -1.62,-0.14 -2.34,-0.66 -0.72,-0.51 0.29,-1.42 -0.49,-2.43 0.8,-0.25 0.8,-0.93 0.66,-1.21 -0.14,-0.29 -0.97,-0.74 -0.88,-1.52 0.08,-0.78 0.1,-0.76 0.41,-0.74 0.31,0.02 0.21,-0.64 -0.08,-0.74 -0.29,-0.1 -1.23,-0.64 -1.25,-1.03 -0.02,-0.39 -0.19,-1.62 -0.08,-2.38 0.1,-0.76 -0.25,-3.25 -0.33,-3.29 -0.08,-0.04 -0.37,1.99 -0.35,3.31 0.02,1.32 -0.43,1.93 -0.49,2.67 -0.06,0.74 0.21,1.64 0.06,2.06 -0.14,0.41 -0.7,1.6 -0.39,2.16 0.31,0.56 0.58,0.62 0.12,0.84 -0.45,0.23 -1.46,0.72 -1.23,1.21 0.23,0.49 0.51,0.43 0.51,0.43 0,0 -1.23,0.68 -2.14,0.78 -0.9,0.1 -0.82,0.97 -0.14,1.3 0.68,0.33 1.34,0.82 1.62,0.82 0.28,0 0.82,-0.39 0.97,-0.33 0.14,0.06 0.33,1.21 -0.44,1.74 -0.77,0.52 -0.77,0.12 -1.36,0.56 -0.59,0.43 -0.42,0.92 -1,0.99 -0.59,0.06 -0.86,0.43 -0.76,0.76 0.11,0.32 1.02,0.54 1.45,0.54 0.43,0 1.31,-0.08 1.31,-0.08 0,0 -0.54,1.28 -2.36,2.45 2.13,0.23 3.25,-1.46 3.25,-1.46 0,0 -1.42,3.21 -3.47,4.2 -2.06,0.99 -3.02,0.72 -3.1,1.13 -1.05,0.06 -1.27,-0.06 -1.27,-0.06 0,0 0.88,0.82 2.34,1.07 1.46,0.25 2.18,0.06 2.18,0.06 0,0 -1.13,0.68 -2.08,0.66 1.83,0.58 3.27,-0.23 3.27,-0.23 0,0 -1.15,1.6 -2.61,1.54 0.53,0.84 1.23,0.8 1.23,0.8 0,0 -0.99,3.52 -5.67,2.78 2.59,-0.43 2.25,-1.87 2.75,-2.38 1.05,-1.07 1.19,-1.99 0.82,-2.04 -0.37,-0.04 -5.43,1.85 -8.08,0.14 2.63,0.47 4.69,-0.49 4.69,-0.49 0,0 -2.55,-0.39 -3.04,-0.86 -0.49,-0.47 0.9,-0.78 1.83,-0.7 0.93,0.08 3.39,-0.84 3.95,-1.77 0.56,-0.93 -0.31,-1.99 -0.31,-1.99 0,0 1.77,-0.68 1.95,-1.79 -2.65,1.46 -4.11,1.64 -5.41,1.11 -1.3,-0.53 -1.64,-0.27 -2.36,-0.49 -0.72,-0.23 -1.83,-1.38 -1.83,-1.38 0,0 0.68,-0.49 0.88,-1.03 2.14,0.78 4.03,0.39 4.63,-0.72 0.6,-1.11 -0.29,-1.99 -1.32,-1.56 -1.03,0.43 -3.84,-2.06 -3.84,-2.06 0,0 3.06,0.45 5.3,-1.11 -1.3,0.14 -1.99,0.16 -1.99,0.16 0,0 2.45,-1.19 2.47,-3.37 0.04,-0.41 -0.93,0.45 -2.34,0.86 -1.41,0.41 -4.58,-1.32 -4.58,-1.32 0,0 2.55,-1.05 2.55,-2.61 0,-1.56 -1.87,-0.65 -3.01,-1.42 -1.14,-0.77 -1.55,-1.11 -1.51,-1.25 0.04,-0.14 1.98,-0.86 2.86,-3.22 -1.48,0.45 -1.99,1.36 -1.99,1.36 0,0 0.03,-3.87 -0.06,-4.92 -0.09,-1.05 -1.11,-1.05 -1.11,-1.51 0,-0.46 -0.17,-4.72 -1.18,-4.66 -1.01,0.06 -0.41,1.89 -0.08,2.24 0.33,0.35 0.02,1.17 -0.41,1.87 -0.43,0.7 -0.47,1.52 -0.47,1.87 0,0.35 -0.78,1.15 -0.78,1.38 0,0.23 0.68,1.38 0.47,2.14 -0.21,0.76 -0.58,-0.21 -0.41,1.34 0.16,1.54 1.11,0.88 0.99,1.38 -0.12,0.49 -0.78,0.22 -1.3,0.52 -0.52,0.3 -0.52,0.6 -0.84,0.61 -0.32,0 -1.95,-0.22 -2.32,0.23 -0.37,0.45 -0.34,0.76 -0.34,0.76 0,0 -0.66,-0.29 -1.08,-0.82 0.44,1.57 1.06,1.93 1.62,2.17 0.56,0.25 1.26,0.16 1.55,0.45 -0.33,0.41 -1.73,0.45 -1.73,0.45 0,0 0.97,0.4 2.27,0.39 1.3,0 2.34,-0.02 2.34,-0.02 0,0 -1.28,0.84 -2.42,1.31 -1.14,0.47 -1.05,0.83 -1.71,0.87 -0.66,0.04 -1.03,0.1 -1.14,0.58 -0.11,0.47 0.39,1.17 1.5,1.33 1.11,0.15 2.76,0.03 2.76,0.03 0,0 0.73,0.34 0.09,0.84 -0.64,0.5 -1.71,0.46 -2.15,0.95 -0.44,0.48 -0.8,0.61 -1.54,0.61 -0.74,0 -0.87,0.45 -1.43,0.48 -0.56,0.03 -1.36,0 -1.6,0.46 -0.24,0.46 -0.09,1.07 -0.09,1.07 0,0 -1.31,-0.14 -1.78,-0.43 0.96,1.05 2.85,2.13 4.35,2.05 1.5,-0.08 2.43,-0.25 2.43,-0.25 0,0 0.27,0.56 0.68,0.56 -1.17,0.76 -1.36,1.3 -2.41,1.34 -1.05,0.04 -5,0 -6.8,-1.6 1.54,2.47 3.29,2.98 3.29,2.98 0,0 -1.91,-0.06 -2.24,0.76 -0.33,0.82 0.27,2.1 1.77,2.3 1.5,0.21 1.67,0.84 2.24,1.11 0.58,0.27 2.94,0.41 2.94,0.41 0,0 -0.87,1.62 -2.54,1.65 -1.67,0.03 -7.52,-1.6 -7.52,-1.6 0,0 2.07,2.31 3.85,3.02 -3.79,-0.03 -13.91,-3.24 -15.73,-5.4 3.21,0.46 9.37,-0.22 11.84,-1.26 -8.05,-0.62 -17.42,-4.1 -19.73,-6.35 6.04,1.85 10.98,0.12 10.98,0.12 0,0 -3.85,-2.34 -6.48,-3.52 3.48,-0.03 5.49,1.63 7.18,2.07 1.7,0.43 9.56,1.08 11.81,-0.19 2.25,-1.26 3.76,-3.15 3.3,-3.52 -0.46,-0.37 -2.37,0.71 -5.06,0.52 -2.68,-0.19 -5.64,-2.07 -7.74,-2.53 -2.1,-0.46 -2.65,-2.22 -2.65,-2.22 0,0 0.46,0.19 2.99,-0.71 2.53,-0.89 4.1,-0.25 5.86,-0.93 1.76,-0.68 4.59,-2.16 3.89,-3.15 -0.71,-0.99 -4.04,0.89 -6.23,0.62 -2.19,-0.28 -5.49,-0.59 -7.49,-1.36 -2,-0.77 -4.04,-0.56 -5.77,-1.51 -1.73,-0.96 -3.08,-2 -4.87,-2.37 -1.79,-0.37 -3.42,-3.89 -3.42,-3.89 0,0 2.41,0.18 3.27,-0.43 0.86,-0.62 0.83,-1.14 0.83,-1.14 0,0 4.44,1.6 7.03,1.79 2.59,0.19 3.3,-0.56 4.32,-0.83 1.02,-0.28 3.05,-0.4 3.18,-1.2 0.12,-0.8 -8.63,-3.79 -8.63,-3.79 0,0 4.9,0.12 8.91,-1.05 -4.26,0.03 -11.89,-0.76 -16.7,-3.35 -4.81,-2.59 -5.84,-4.56 -5.84,-4.56 0,0 2.71,0.39 3.36,-0.29 0.65,-0.68 -2.5,-3.36 -2.5,-3.36 0,0 3.11,1.05 5.09,1.02 1.97,-0.03 5.06,0.06 7.8,-3.15 -1.97,-0.37 -4.47,-1.82 -4.47,-1.82 0,0 6.91,-0.71 9.65,-5.61 -2,1.36 -4.59,1.39 -5.95,0.89 -1.36,-0.49 -3.42,-1.36 -4.78,-1.23 -1.36,0.12 -3.05,-1.82 -4.38,-1.82 -1.33,0 -1.57,0.89 -3.98,0.59 -2.41,-0.31 -3.58,-1.17 -3.58,-1.51 0,-0.34 1.06,-1.72 -0.85,-3.3 -1.91,-1.58 -3.58,-4.77 -3.33,-5.04 0.25,-0.27 1.27,0.74 2.38,0.7 1.11,-0.04 2.53,0.74 3.68,0.78 1.15,0.04 1.4,-0.49 2.53,-0.31 1.13,0.18 1.79,0.29 3.86,0.14 2.08,-0.14 3.89,-2.71 3.89,-2.71 0,0 -1.54,0.72 -3.72,0.51 -2.18,-0.21 -3.64,-0.88 -3.64,-0.88 0,0 3.23,0.06 4.52,-1.64 -1.93,0.47 -7.87,-0.66 -8.98,-1.3 -1.11,-0.64 -1.99,-4.38 -4.81,-5.32 -2.82,-0.94 -3.17,-2.47 -3.17,-2.47 0,0 4.01,0.88 6.11,-0.86 2.1,-1.75 1.89,-3.82 1.34,-3.86 -0.56,-0.04 -0.62,0.66 -1.77,0.51 -1.15,-0.14 -1.89,-1.85 -1.89,-1.85 l 1.5,0.12 c 0,0 -0.56,-1.56 -3.62,-1.77 -3.06,-0.21 -1.95,-1.19 -2.3,-1.97 -0.35,-0.78 0.58,-0.86 0.99,-0.99 0.41,-0.12 3.02,-0.86 4.58,-2.28 1.56,-1.42 1.23,-3.95 0.7,-3.95 -0.53,0 -0.7,0.82 -1.5,0.76 -0.8,-0.06 -1.89,-0.41 -2.32,-1.17 -0.43,-0.76 -1.77,-0.39 -2.51,0 -0.74,0.39 -1.17,0.84 -1.56,0.47 -0.39,-0.37 -0.86,-1.42 -0.9,-2.38 -0.04,-0.97 1.21,-1.19 1.91,-2.8 0.7,-1.6 0.51,-5.34 0.58,-6.39 0.06,-1.05 1.13,-3.12 0.58,-4.54 -0.56,-1.42 -2.71,-4.32 -3.02,-5.59 -0.31,-1.27 -0.95,-4.95 -0.95,-4.95 0,0 -0.51,4.32 -0.56,6.37 -0.04,2.06 -0.29,5.92 -0.66,7.19 -0.37,1.27 -0.04,2.8 -0.7,4.36 -0.66,1.56 -1.52,3.15 -1.21,4.63 0.31,1.48 1.14,1.85 1.14,1.85 0,0 0.25,0.65 -0.12,1.02 -0.37,0.37 -5.61,1.22 -7.21,0.32 -1.93,-1.09 -2.57,-2.82 -2.57,-2.82 0,0 -0.18,2.04 0.68,3.93 0.86,1.89 2.3,3.04 2.3,3.04 0,0 -0.41,1.13 0.74,1.81 1.15,0.68 4.09,0.86 4.09,0.86 0,0 -1.09,2.92 -2.01,3.54 -0.93,0.62 -2.47,-0.19 -3.78,0.84 -1.32,1.03 -2.71,0.86 -3.7,1.95 -0.99,1.09 -0.64,1.77 -0.35,1.77 0.29,0 1.19,-0.62 1.85,-0.27 0.66,0.35 0.97,0.99 1.91,1.4 0.95,0.41 1.93,0.51 1.93,0.51 0,0 -2.08,2.38 -3.62,2.61 3.76,0.82 5.82,-2.3 6.89,-1.87 1.07,0.43 0.49,2.8 -1.4,4.36 -1.89,1.56 -7.73,4.03 -10.52,4.03 -2.79,0 -3.02,-0.14 -3.64,0.53 -0.62,0.68 0.22,1.3 1.94,1.57 1.73,0.28 1.76,0.83 3.27,0.96 1.51,0.12 2.07,-0.06 2.07,-0.06 0,0 -4.59,2.53 -3.15,3.76 1.45,1.23 2.28,-0.56 3.76,-0.59 1.48,-0.03 2.31,0.09 2.71,0.83 0.4,0.74 2.93,-0.68 4.22,-2.25 1.3,-1.57 0.09,2.56 -0.4,3.42 -0.49,0.86 -3.11,3.18 -5.52,5.06 -2.41,1.88 -6.81,4.1 -10.42,4.47 -3.61,0.37 -5.46,-0.09 -5.8,0.71 -0.34,0.8 0.37,2.53 2.78,2.96 2.41,0.43 5.24,-0.15 5.77,0.31 0.52,0.46 -1.2,4.01 -2.78,4.38 -1.57,0.37 -2.47,0.37 -2.68,1.48 -0.22,1.11 2.07,1.7 3.48,1.57 1.42,-0.12 4.66,-2.13 4.66,-2.13 0,0 -1.02,3.11 -0.52,4.35 -2.28,1.57 -9.44,9.68 -9.44,9.68 0,0 -1.48,-0.96 -4.75,-1.54 -3.27,-0.59 -3.02,-2.07 -3.02,-2.07 0,0 0.56,-1.3 2.87,-1.05 2.31,0.25 6.54,-3.08 6.88,-4.53 0.34,-1.45 -0.93,-1.42 -0.93,-1.42 0,0 0.49,-2.87 -2.68,-3.18 -3.18,-0.31 -3.79,-1.33 -6.07,-2.99 -2.28,-1.67 -2.53,-1.39 -2.53,-1.39 0,0 1.3,-1.94 2.22,-2.19 0.93,-0.25 2.99,-0.09 4.53,-1.88 1.54,-1.79 2.37,-2.47 2.93,-2.68 0.56,-0.22 0.52,-1.63 -1.54,-3.27 -2.07,-1.63 -2.08,-1.51 -3,-2.76 -0.93,-1.25 -2.04,-1.79 -2.04,-1.79 0,0 0.64,-1.52 0.35,-2.24 -0.29,-0.72 -1.52,-1.46 -1.48,-2.38 0.04,-0.93 -0.14,-3.33 -1.44,-4.91 -1.3,-1.58 -1.27,-3.02 -1.21,-3.78 0.06,-0.76 0.02,-2.82 -0.97,-3.66 -0.99,-0.84 -0.12,-2.8 -0.95,-2.69 -0.82,0.1 -0.31,2.08 -0.41,2.84 -0.1,0.76 -0.72,0.43 -0.84,2.57 -0.12,2.14 0.37,3.8 -0.43,5 -0.8,1.19 -2.47,2.96 -3,5.18 -0.53,2.22 0.97,3.02 0.97,3.02 0,0 0.66,0.23 0.58,1.52 -0.08,1.3 1.54,2.73 1.93,2.71 -0.31,1.32 -0.95,2.1 -2.32,2.1 -1.37,0 -2.41,-1.01 -3.95,0.39 -1.54,1.4 -3.41,1.11 -3.7,2.65 -0.29,1.54 -0.04,2.38 1.87,2.59 1.91,0.21 3.7,-0.08 5.53,-0.23 1.83,-0.14 2.01,-0.1 2.12,0.56 0.1,0.66 0.71,3.04 -0.96,3.87 -1.67,0.83 -6.88,1.42 -11.22,1.48 -4.35,0.06 -7.8,-0.74 -7.8,-0.74 0,0 6.29,3.79 8.97,4.26 -4.59,0.89 -3.52,4.19 -2.71,4.59 0.81,0.4 3.39,-0.62 4.59,-0.4 1.2,0.22 3.73,1.7 4.78,2.28 1.05,0.59 3.58,0.99 3.58,0.99 0,0 -0.28,0.86 -0.86,1.3 -0.59,0.43 -2.62,-0.43 -3.92,0.89 -1.3,1.33 -2.31,1.51 -3.24,1.54 -0.93,0.03 -2.07,-0.21 -4.2,1.34 -2.14,1.54 -5.84,-0.16 -6.56,0.65 -0.72,0.8 0.04,2.16 1.56,2.69 1.52,0.53 10.92,2.09 10.92,2.09 0,0 -2.09,1.44 -3.44,3.13 -1.36,1.7 -0.34,3.05 1.23,2.99 1.57,-0.06 8.11,-1.14 8.33,-0.65 0.22,0.49 -5.01,2.99 -9.77,3.61 -4.77,0.62 -22.82,-0.62 -22.82,-0.62 0,0 4.6,2.51 6.58,3.29 -2.26,1.36 -0.74,2.8 0.29,3.41 1.03,0.62 7.73,2.43 7.73,2.43 0,0 -3.54,0.08 -7.19,2.18 4.07,0.82 7.48,0.04 7.48,0.04 0,0 -1.6,1.56 0.04,3.37 -1.32,1.81 -1.85,3 -3.21,3.17 -1.36,0.16 -2.38,0.21 -3.29,1.03 -0.9,0.82 -1.97,0.21 -3.17,0.86 -1.19,0.66 -3.7,1.15 -5.02,2.75 -1.32,1.6 -2.71,3.78 -5.34,3.91 l -2.34,-2.47 c 0,0 0.62,-0.45 1.15,-0.37 0.53,0.08 1.32,0.49 2.1,-0.21 0.78,-0.7 0.58,-2.01 0.58,-2.01 0,0 2.38,0.25 3.86,-1.19 1.48,-1.44 0.65,-2.02 0.34,-2.15 -0.31,-0.12 -1.63,0.77 -2.47,0.37 -0.83,-0.4 -1.26,-1.17 -1.94,-1.26 -0.68,-0.09 -2.22,-1.6 -2.22,-1.6 0,0 1.85,-0.31 3.21,-0.49 1.36,-0.19 1.97,-1.2 1.57,-1.91 -0.4,-0.71 -0.63,-0.84 -2.35,-0.88 -1.73,-0.04 -2.8,-0.68 -3.08,-1.67 -0.29,-0.99 -0.45,-1.85 -1.07,-2.28 -0.62,-0.43 -0.49,-0.74 -0.33,-0.8 0.16,-0.06 0.88,1.05 1.67,0.82 0.79,-0.23 0.62,-0.6 0.86,-0.68 0.25,-0.08 1.21,0.14 2.16,-0.93 0.95,-1.07 1.42,-2.12 0.84,-2.2 -0.58,-0.08 -1.56,0.72 -2.2,0.16 -0.64,-0.56 -0.84,-0.29 -1.34,-0.7 -0.5,-0.41 -0.76,-2.12 -2.3,-2.41 -0.16,-0.72 -0.04,-1.05 0.1,-1.32 0.14,-0.27 1.01,-1.52 1.01,-2.55 0,-1.03 -0.31,-1.44 -0.64,-2.45 -0.33,-1.01 0.27,-1.64 -0.35,-2.65 -0.62,-1.01 -0.56,-1.95 -0.84,-2.9 -0.29,-0.95 -0.35,-1.89 -1.03,-1.87 -0.68,0.02 -0.02,2.12 -0.06,3.39 -0.04,1.27 -0.6,2.26 -1.15,4.05 -0.56,1.79 -0.97,2.63 -0.78,3.29 0.18,0.66 1.01,0.86 1.34,0.8 0.16,0.74 0.16,0.72 -0.47,1.54 -0.64,0.82 -1.15,0.82 -2.86,1.6 -1.71,0.78 -2.55,1.95 -2.3,2.61 0.25,0.66 0.68,0.33 1.38,0.53 0.7,0.21 0.68,0.76 1.34,0.72 0.66,-0.04 1.03,-0.31 1.03,-0.31 0,0 0.68,0.84 -0.21,1.69 -0.88,0.84 -0.64,0.95 -2.12,0.95 -1.48,0 -4.58,0.68 -5.78,0.1 1.19,1.36 5.43,1.44 3.82,1.93 -2.73,0.84 -1.89,0.84 -2.86,1.21 -0.97,0.37 -1.46,0.47 -1.48,1.19 -0.02,0.72 1.03,0.58 1.27,0.74 0.24,0.16 0.45,0.86 1.21,0.93 0.76,0.06 1.6,-0.37 2.24,-0.37 0.64,0 1.81,0.08 2.63,-0.31 -0.31,1.23 -0.82,1.77 -3.19,2.53 -2.37,0.76 -5.76,1.56 -9.41,1.07 1.25,1.79 7.5,1.52 7.5,1.52 0,0 -1.64,1.09 -5.02,1.67 -3.37,0.58 -4.54,1.09 -4.54,1.09 0,0 1.56,1.13 2.82,1.4 1.25,0.27 2.18,-0.29 3.29,-0.21 1.11,0.08 1.71,0.82 3.25,0.66 1.54,-0.16 2.12,-0.74 2.12,-0.74 0,0 0.16,1.15 1.3,1.25 -2.93,3.16 -6.63,5.19 -8.85,5.44 -2.22,0.25 -4.59,-0.52 -6.35,0.06 2.93,2.53 5.7,2.81 6.66,2.84 0.96,0.03 3.92,0.06 3.92,0.06 0,0 -6.23,0.72 -6.63,2.16 h -24.78 c 0,0 -0.88,0.5 0,0.5 z"
       id="path1" />
    <path
       class="cls-2"
       d="m 320.58,172.21 h 245.28 v -0.62 h -24.11 c 0,0 -5.03,-2.35 -7.55,-2.2 0.49,-0.83 -0.89,-0.86 -2.22,-1.33 l -1.33,-0.46 c 0,0 2.68,0.31 4.16,-0.86 1.48,-1.17 1.14,-2.9 0.68,-2.9 -0.46,0 -0.89,0.8 -1.23,0.74 -0.34,-0.06 -3.98,-1.54 -5.21,-3.98 2.56,1.79 6.6,0 6.6,0 0,0 -1.51,-0.43 -2.37,-0.34 2.93,-0.71 3.45,-2.1 3.45,-2.1 0,0 -3.21,1.05 -4.47,0.43 -1.26,-0.62 -1.76,-1.14 -1.76,-1.14 0,0 1.76,0.22 3.18,-0.34 -5,-0.31 -6.81,-2.5 -7.06,-3.45 -0.25,-0.95 -0.86,-1.94 -0.46,-2.1 0.4,-0.15 1.57,0.86 3.64,0 -0.35,-0.39 -1.38,-0.58 -1.38,-0.58 0,0 1.87,-0.68 1.87,-1.44 0,-0.76 -1.58,-0.04 -2.2,-0.31 -0.62,-0.27 -1.99,-1.46 -1.99,-1.79 0,-0.33 1.75,-0.64 1.62,-1.62 -0.12,-0.99 -1.62,-0.14 -2.34,-0.66 -0.72,-0.51 0.29,-1.42 -0.49,-2.43 0.8,-0.25 0.8,-0.93 0.66,-1.21 -0.14,-0.29 -0.97,-0.74 -0.88,-1.52 0.08,-0.78 0.1,-0.76 0.41,-0.74 0.31,0.02 0.21,-0.64 -0.08,-0.74 -0.29,-0.1 -1.23,-0.64 -1.25,-1.03 -0.02,-0.39 -0.19,-1.62 -0.08,-2.38 0.1,-0.76 -0.25,-3.25 -0.33,-3.29 -0.08,-0.04 -0.37,1.99 -0.35,3.31 0.02,1.32 -0.43,1.93 -0.49,2.67 -0.06,0.74 0.21,1.64 0.06,2.06 -0.14,0.41 -0.7,1.6 -0.39,2.16 0.31,0.56 0.58,0.62 0.12,0.84 -0.45,0.23 -1.46,0.72 -1.23,1.21 0.23,0.49 0.51,0.43 0.51,0.43 0,0 -1.23,0.68 -2.14,0.78 -0.9,0.1 -0.82,0.97 -0.14,1.3 0.68,0.33 1.34,0.82 1.62,0.82 0.28,0 0.82,-0.39 0.97,-0.33 0.14,0.06 0.33,1.21 -0.44,1.74 -0.77,0.52 -0.77,0.12 -1.36,0.56 -0.59,0.43 -0.42,0.92 -1,0.99 -0.59,0.06 -0.86,0.43 -0.76,0.76 0.11,0.32 1.02,0.54 1.45,0.54 0.43,0 1.31,-0.08 1.31,-0.08 0,0 -0.54,1.28 -2.36,2.45 2.13,0.23 3.25,-1.46 3.25,-1.46 0,0 -1.42,3.21 -3.47,4.2 -2.06,0.99 -3.02,0.72 -3.1,1.13 -1.05,0.06 -1.27,-0.06 -1.27,-0.06 0,0 0.88,0.82 2.34,1.07 1.46,0.25 2.18,0.06 2.18,0.06 0,0 -1.13,0.68 -2.08,0.66 1.83,0.58 3.27,-0.23 3.27,-0.23 0,0 -1.15,1.6 -2.61,1.54 0.53,0.84 1.23,0.8 1.23,0.8 0,0 -0.99,3.52 -5.67,2.78 2.59,-0.43 2.25,-1.87 2.75,-2.38 1.05,-1.07 1.19,-1.99 0.82,-2.04 -0.37,-0.04 -5.43,1.85 -8.08,0.14 2.63,0.47 4.69,-0.49 4.69,-0.49 0,0 -2.55,-0.39 -3.04,-0.86 -0.49,-0.47 0.9,-0.78 1.83,-0.7 0.93,0.08 3.39,-0.84 3.95,-1.77 0.56,-0.93 -0.31,-1.99 -0.31,-1.99 0,0 1.77,-0.68 1.95,-1.79 -2.65,1.46 -4.11,1.64 -5.41,1.11 -1.3,-0.53 -1.64,-0.27 -2.36,-0.49 -0.72,-0.23 -1.83,-1.38 -1.83,-1.38 0,0 0.68,-0.49 0.88,-1.03 2.14,0.78 4.03,0.39 4.63,-0.72 0.6,-1.11 -0.29,-1.99 -1.32,-1.56 -1.03,0.43 -3.84,-2.06 -3.84,-2.06 0,0 3.06,0.45 5.3,-1.11 -1.3,0.14 -1.99,0.16 -1.99,0.16 0,0 2.45,-1.19 2.47,-3.37 0.04,-0.41 -0.93,0.45 -2.34,0.86 -1.41,0.41 -4.58,-1.32 -4.58,-1.32 0,0 2.55,-1.05 2.55,-2.61 0,-1.56 -1.87,-0.65 -3.01,-1.42 -1.14,-0.77 -1.55,-1.11 -1.51,-1.25 0.04,-0.14 1.98,-0.86 2.86,-3.22 -1.48,0.45 -1.99,1.36 -1.99,1.36 0,0 0.03,-3.87 -0.06,-4.92 -0.09,-1.05 -1.11,-1.05 -1.11,-1.51 0,-0.46 -0.17,-4.72 -1.18,-4.66 -1.01,0.06 -0.41,1.89 -0.08,2.24 0.33,0.35 0.02,1.17 -0.41,1.87 -0.43,0.7 -0.47,1.52 -0.47,1.87 0,0.35 -0.78,1.15 -0.78,1.38 0,0.23 0.68,1.38 0.47,2.14 -0.21,0.76 -0.58,-0.21 -0.41,1.34 0.16,1.54 1.11,0.88 0.99,1.38 -0.12,0.49 -0.78,0.22 -1.3,0.52 -0.52,0.3 -0.52,0.6 -0.84,0.61 -0.32,0 -1.95,-0.22 -2.32,0.23 -0.37,0.45 -0.34,0.76 -0.34,0.76 0,0 -0.66,-0.29 -1.08,-0.82 0.44,1.57 1.06,1.93 1.62,2.17 0.56,0.25 1.26,0.16 1.55,0.45 -0.33,0.41 -1.73,0.45 -1.73,0.45 0,0 0.97,0.4 2.27,0.39 1.3,0 2.34,-0.02 2.34,-0.02 0,0 -1.28,0.84 -2.42,1.31 -1.14,0.47 -1.05,0.83 -1.71,0.87 -0.66,0.04 -1.03,0.1 -1.14,0.58 -0.11,0.47 0.39,1.17 1.5,1.33 1.11,0.15 2.76,0.03 2.76,0.03 0,0 0.73,0.34 0.09,0.84 -0.64,0.5 -1.71,0.46 -2.15,0.95 -0.44,0.48 -0.8,0.61 -1.54,0.61 -0.74,0 -0.87,0.45 -1.43,0.48 -0.56,0.03 -1.36,0 -1.6,0.46 -0.24,0.46 -0.09,1.07 -0.09,1.07 0,0 -1.31,-0.14 -1.78,-0.43 0.96,1.05 2.85,2.13 4.35,2.05 1.5,-0.08 2.43,-0.25 2.43,-0.25 0,0 0.27,0.56 0.68,0.56 -1.17,0.76 -1.36,1.3 -2.41,1.34 -1.05,0.04 -5,0 -6.8,-1.6 1.54,2.47 3.29,2.98 3.29,2.98 0,0 -1.91,-0.06 -2.24,0.76 -0.33,0.82 0.27,2.1 1.77,2.3 1.5,0.21 1.67,0.84 2.24,1.11 0.58,0.27 2.94,0.41 2.94,0.41 0,0 -0.87,1.62 -2.54,1.65 -1.67,0.03 -7.52,-1.6 -7.52,-1.6 0,0 2.07,2.31 3.85,3.02 -3.79,-0.03 -13.91,-3.24 -15.73,-5.4 3.21,0.46 9.37,-0.22 11.84,-1.26 -8.05,-0.62 -17.42,-4.1 -19.73,-6.35 6.04,1.85 10.98,0.12 10.98,0.12 0,0 -3.85,-2.34 -6.48,-3.52 3.48,-0.03 5.49,1.63 7.18,2.07 1.7,0.43 9.56,1.08 11.81,-0.19 2.25,-1.26 3.76,-3.15 3.3,-3.52 -0.46,-0.37 -2.37,0.71 -5.06,0.52 -2.68,-0.19 -5.64,-2.07 -7.74,-2.53 -2.1,-0.46 -2.65,-2.22 -2.65,-2.22 0,0 0.46,0.19 2.99,-0.71 2.53,-0.89 4.1,-0.25 5.86,-0.93 1.76,-0.68 4.59,-2.16 3.89,-3.15 -0.71,-0.99 -4.04,0.89 -6.23,0.62 -2.19,-0.28 -5.49,-0.59 -7.49,-1.36 -2,-0.77 -4.04,-0.56 -5.77,-1.51 -1.73,-0.96 -3.08,-2 -4.87,-2.37 -1.79,-0.37 -3.42,-3.89 -3.42,-3.89 0,0 2.41,0.18 3.27,-0.43 0.86,-0.62 0.83,-1.14 0.83,-1.14 0,0 4.44,1.6 7.03,1.79 2.59,0.19 3.3,-0.56 4.32,-0.83 1.02,-0.28 3.05,-0.4 3.18,-1.2 0.12,-0.8 -8.63,-3.79 -8.63,-3.79 0,0 4.9,0.12 8.91,-1.05 -4.26,0.03 -11.89,-0.76 -16.7,-3.35 -4.81,-2.59 -5.84,-4.56 -5.84,-4.56 0,0 2.71,0.39 3.36,-0.29 0.65,-0.68 -2.5,-3.36 -2.5,-3.36 0,0 3.11,1.05 5.09,1.02 1.97,-0.03 5.06,0.06 7.8,-3.15 -1.97,-0.37 -4.47,-1.82 -4.47,-1.82 0,0 6.91,-0.71 9.65,-5.61 -2,1.36 -4.59,1.39 -5.95,0.89 -1.36,-0.49 -3.42,-1.36 -4.78,-1.23 -1.36,0.12 -3.05,-1.82 -4.38,-1.82 -1.33,0 -1.57,0.89 -3.98,0.59 -2.41,-0.31 -3.58,-1.17 -3.58,-1.51 0,-0.34 1.06,-1.72 -0.85,-3.3 -1.91,-1.58 -3.58,-4.77 -3.33,-5.04 0.25,-0.27 1.27,0.74 2.38,0.7 1.11,-0.04 2.53,0.74 3.68,0.78 1.15,0.04 1.4,-0.49 2.53,-0.31 1.13,0.18 1.79,0.29 3.86,0.14 2.08,-0.14 3.89,-2.71 3.89,-2.71 0,0 -1.54,0.72 -3.72,0.51 -2.18,-0.21 -3.64,-0.88 -3.64,-0.88 0,0 3.23,0.06 4.52,-1.64 -1.93,0.47 -7.87,-0.66 -8.98,-1.3 -1.11,-0.64 -1.99,-4.38 -4.81,-5.32 -2.82,-0.94 -3.17,-2.47 -3.17,-2.47 0,0 4.01,0.88 6.11,-0.86 2.1,-1.75 1.89,-3.82 1.34,-3.86 -0.56,-0.04 -0.62,0.66 -1.77,0.51 -1.15,-0.14 -1.89,-1.85 -1.89,-1.85 l 1.5,0.12 c 0,0 -0.56,-1.56 -3.62,-1.77 -3.06,-0.21 -1.95,-1.19 -2.3,-1.97 -0.35,-0.78 0.58,-0.86 0.99,-0.99 0.41,-0.12 3.02,-0.86 4.58,-2.28 1.56,-1.42 1.23,-3.95 0.7,-3.95 -0.53,0 -0.7,0.82 -1.5,0.76 -0.8,-0.06 -1.89,-0.41 -2.32,-1.17 -0.43,-0.76 -1.77,-0.39 -2.51,0 -0.74,0.39 -1.17,0.84 -1.56,0.47 -0.39,-0.37 -0.86,-1.42 -0.9,-2.38 -0.04,-0.97 1.21,-1.19 1.91,-2.8 0.7,-1.6 0.51,-5.34 0.58,-6.39 0.06,-1.05 1.13,-3.12 0.58,-4.54 -0.56,-1.42 -2.71,-4.32 -3.02,-5.59 -0.31,-1.27 -0.95,-4.95 -0.95,-4.95 0,0 -0.51,4.32 -0.56,6.37 -0.04,2.06 -0.29,5.92 -0.66,7.19 -0.37,1.27 -0.04,2.8 -0.7,4.36 -0.66,1.56 -1.52,3.15 -1.21,4.63 0.31,1.48 1.14,1.85 1.14,1.85 0,0 0.25,0.65 -0.12,1.02 -0.37,0.37 -5.61,1.22 -7.21,0.32 -1.93,-1.09 -2.57,-2.82 -2.57,-2.82 0,0 -0.18,2.04 0.68,3.93 0.86,1.89 2.3,3.04 2.3,3.04 0,0 -0.41,1.13 0.74,1.81 1.15,0.68 4.09,0.86 4.09,0.86 0,0 -1.09,2.92 -2.01,3.54 -0.93,0.62 -2.47,-0.19 -3.78,0.84 -1.32,1.03 -2.71,0.86 -3.7,1.95 -0.99,1.09 -0.64,1.77 -0.35,1.77 0.29,0 1.19,-0.62 1.85,-0.27 0.66,0.35 0.97,0.99 1.91,1.4 0.95,0.41 1.93,0.51 1.93,0.51 0,0 -2.08,2.38 -3.62,2.61 3.76,0.82 5.82,-2.3 6.89,-1.87 1.07,0.43 0.49,2.8 -1.4,4.36 -1.89,1.56 -7.73,4.03 -10.52,4.03 -2.79,0 -3.02,-0.14 -3.64,0.53 -0.62,0.68 0.22,1.3 1.94,1.57 1.73,0.28 1.76,0.83 3.27,0.96 1.51,0.12 2.07,-0.06 2.07,-0.06 0,0 -4.59,2.53 -3.15,3.76 1.45,1.23 2.28,-0.56 3.76,-0.59 1.48,-0.03 2.31,0.09 2.71,0.83 0.4,0.74 2.93,-0.68 4.22,-2.25 1.3,-1.57 0.09,2.56 -0.4,3.42 -0.49,0.86 -3.11,3.18 -5.52,5.06 -2.41,1.88 -6.81,4.1 -10.42,4.47 -3.61,0.37 -5.46,-0.09 -5.8,0.71 -0.34,0.8 0.37,2.53 2.78,2.96 2.41,0.43 5.24,-0.15 5.77,0.31 0.52,0.46 -1.2,4.01 -2.78,4.38 -1.57,0.37 -2.47,0.37 -2.68,1.48 -0.22,1.11 2.07,1.7 3.48,1.57 1.42,-0.12 4.66,-2.13 4.66,-2.13 0,0 -1.02,3.11 -0.52,4.35 -2.28,1.57 -9.44,9.68 -9.44,9.68 0,0 -1.48,-0.96 -4.75,-1.54 -3.27,-0.59 -3.02,-2.07 -3.02,-2.07 0,0 0.56,-1.3 2.87,-1.05 2.31,0.25 6.54,-3.08 6.88,-4.53 0.34,-1.45 -0.93,-1.42 -0.93,-1.42 0,0 0.49,-2.87 -2.68,-3.18 -3.18,-0.31 -3.79,-1.33 -6.07,-2.99 -2.28,-1.67 -2.53,-1.39 -2.53,-1.39 0,0 1.3,-1.94 2.22,-2.19 0.93,-0.25 2.99,-0.09 4.53,-1.88 1.54,-1.79 2.37,-2.47 2.93,-2.68 0.56,-0.22 0.52,-1.63 -1.54,-3.27 -2.07,-1.63 -2.08,-1.51 -3,-2.76 -0.93,-1.25 -2.04,-1.79 -2.04,-1.79 0,0 0.64,-1.52 0.35,-2.24 -0.29,-0.72 -1.52,-1.46 -1.48,-2.38 0.04,-0.93 -0.14,-3.33 -1.44,-4.91 -1.3,-1.58 -1.27,-3.02 -1.21,-3.78 0.06,-0.76 0.02,-2.82 -0.97,-3.66 -0.99,-0.84 -0.12,-2.8 -0.95,-2.69 -0.82,0.1 -0.31,2.08 -0.41,2.84 -0.1,0.76 -0.72,0.43 -0.84,2.57 -0.12,2.14 0.37,3.8 -0.43,5 -0.8,1.19 -2.47,2.96 -3,5.18 -0.53,2.22 0.97,3.02 0.97,3.02 0,0 0.66,0.23 0.58,1.52 -0.08,1.3 1.54,2.73 1.93,2.71 -0.31,1.32 -0.95,2.1 -2.32,2.1 -1.37,0 -2.41,-1.01 -3.95,0.39 -1.54,1.4 -3.41,1.11 -3.7,2.65 -0.29,1.54 -0.04,2.38 1.87,2.59 1.91,0.21 3.7,-0.08 5.53,-0.23 1.83,-0.14 2.01,-0.1 2.12,0.56 0.1,0.66 0.71,3.04 -0.96,3.87 -1.67,0.83 -6.88,1.42 -11.22,1.48 -4.35,0.06 -7.8,-0.74 -7.8,-0.74 0,0 6.29,3.79 8.97,4.26 -4.59,0.89 -3.52,4.19 -2.71,4.59 0.81,0.4 3.39,-0.62 4.59,-0.4 1.2,0.22 3.73,1.7 4.78,2.28 1.05,0.59 3.58,0.99 3.58,0.99 0,0 -0.28,0.86 -0.86,1.3 -0.59,0.43 -2.62,-0.43 -3.92,0.89 -1.3,1.33 -2.31,1.51 -3.24,1.54 -0.93,0.03 -2.07,-0.21 -4.2,1.34 -2.14,1.54 -6.95,0.25 -7.67,1.05 -0.72,0.8 -0.99,1.91 0.53,2.45 1.52,0.53 13.05,1.93 13.05,1.93 0,0 -2.09,1.44 -3.44,3.13 -1.36,1.7 -0.34,3.05 1.23,2.99 1.57,-0.06 8.11,-1.14 8.33,-0.65 0.22,0.49 -5.01,2.99 -9.77,3.61 -4.77,0.62 -22.82,-0.62 -22.82,-0.62 0,0 4.6,2.51 6.58,3.29 -2.26,1.36 -0.74,2.8 0.29,3.41 1.03,0.62 7.73,2.43 7.73,2.43 0,0 -3.54,0.08 -7.19,2.18 4.07,0.82 7.48,0.04 7.48,0.04 0,0 -1.6,1.56 0.04,3.37 -1.32,1.81 -1.85,3 -3.21,3.17 -1.36,0.16 -2.38,0.21 -3.29,1.03 -0.9,0.82 -1.97,0.21 -3.17,0.86 -1.19,0.66 -3.7,1.15 -5.02,2.75 -1.32,1.6 -2.71,3.78 -5.34,3.91 l -2.34,-2.47 c 0,0 0.62,-0.45 1.15,-0.37 0.53,0.08 1.32,0.49 2.1,-0.21 0.78,-0.7 0.58,-2.01 0.58,-2.01 0,0 2.38,0.25 3.86,-1.19 1.48,-1.44 0.65,-2.02 0.34,-2.15 -0.31,-0.12 -1.63,0.77 -2.47,0.37 -0.83,-0.4 -1.26,-1.17 -1.94,-1.26 -0.68,-0.09 -2.22,-1.6 -2.22,-1.6 0,0 1.85,-0.31 3.21,-0.49 1.36,-0.19 1.97,-1.2 1.57,-1.91 -0.4,-0.71 -0.63,-0.84 -2.35,-0.88 -1.73,-0.04 -2.8,-0.68 -3.08,-1.67 -0.29,-0.99 -0.45,-1.85 -1.07,-2.28 -0.62,-0.43 -0.49,-0.74 -0.33,-0.8 0.16,-0.06 0.88,1.05 1.67,0.82 0.79,-0.23 0.62,-0.6 0.86,-0.68 0.25,-0.08 1.21,0.14 2.16,-0.93 0.95,-1.07 1.42,-2.12 0.84,-2.2 -0.58,-0.08 -1.56,0.72 -2.2,0.16 -0.64,-0.56 -0.84,-0.29 -1.34,-0.7 -0.5,-0.41 -0.76,-2.12 -2.3,-2.41 -0.16,-0.72 -0.04,-1.05 0.1,-1.32 0.14,-0.27 1.01,-1.52 1.01,-2.55 0,-1.03 -0.31,-1.44 -0.64,-2.45 -0.33,-1.01 0.27,-1.64 -0.35,-2.65 -0.62,-1.01 -0.56,-1.95 -0.84,-2.9 -0.29,-0.95 -0.35,-1.89 -1.03,-1.87 -0.68,0.02 -0.02,2.12 -0.06,3.39 -0.04,1.27 -0.6,2.26 -1.15,4.05 -0.56,1.79 -0.97,2.63 -0.78,3.29 0.18,0.66 1.01,0.86 1.34,0.8 0.16,0.74 0.16,0.72 -0.47,1.54 -0.64,0.82 -1.15,0.82 -2.86,1.6 -1.71,0.78 -2.55,1.95 -2.3,2.61 0.25,0.66 0.68,0.33 1.38,0.53 0.7,0.21 0.68,0.76 1.34,0.72 0.66,-0.04 1.03,-0.31 1.03,-0.31 0,0 0.68,0.84 -0.21,1.69 -0.88,0.84 -0.64,0.95 -2.12,0.95 -1.48,0 -4.58,0.68 -5.78,0.1 1.19,1.36 5.43,1.44 3.82,1.93 -2.73,0.84 -1.89,0.84 -2.86,1.21 -0.97,0.37 -1.46,0.47 -1.48,1.19 -0.02,0.72 1.03,0.58 1.27,0.74 0.24,0.16 0.45,0.86 1.21,0.93 0.76,0.06 1.6,-0.37 2.24,-0.37 0.64,0 1.81,0.08 2.63,-0.31 -0.31,1.23 -0.82,1.77 -3.19,2.53 -2.37,0.76 -5.76,1.56 -9.41,1.07 1.25,1.79 7.5,1.52 7.5,1.52 0,0 -1.64,1.09 -5.02,1.67 -3.37,0.58 -4.54,1.09 -4.54,1.09 0,0 1.56,1.13 2.82,1.4 1.25,0.27 2.18,-0.29 3.29,-0.21 1.11,0.08 1.71,0.82 3.25,0.66 1.54,-0.16 2.12,-0.74 2.12,-0.74 0,0 0.16,1.15 1.3,1.25 -2.93,3.16 -6.63,5.19 -8.85,5.44 -2.22,0.25 -4.59,-0.52 -6.35,0.06 2.93,2.53 5.7,2.81 6.66,2.84 0.96,0.03 3.92,0.06 3.92,0.06 0,0 -6.23,0.72 -6.63,2.16 h -24.78 c 0,0 -0.88,0.5 0,0.5 z"
       id="path2" />
    <path
       class="cls-2"
       d="m 836.41,193.25 c -1.96,-3.02 -5.23,-4.33 -5.72,-6.37 -0.49,-2.04 -1.96,-3.27 -2.62,-4.49 -0.65,-1.23 1.16,-9.07 0.49,-10.79 -0.67,-1.72 -4.05,-2.64 -4.11,-2.88 -0.06,-0.25 6.11,-4.27 5.99,-5.86 -0.12,-1.59 -0.25,-2.17 -0.25,-2.17 0,0 1.8,-0.9 2.41,-1.68 -4.94,1.88 -10.5,2.49 -11.97,2.45 2.78,-1.68 4.9,-2.82 5.56,-3.92 0.65,-1.1 3.84,-2.41 4.21,-3.51 -1.76,0.57 -3.96,0.78 -3.96,0.78 0,0 3.88,-1.1 4.86,-2.9 -5.84,2.17 -8.38,1.96 -9.81,1.63 -1.43,-0.33 -2.59,-1.04 -3.74,-0.84 -1.14,0.2 -0.94,-1.45 -1.59,-1.65 -0.65,-0.2 -0.25,-1.63 0.31,-2.19 0.55,-0.55 1.16,-1.04 2.39,-1.04 1.23,0 8.52,-1.59 10.85,-4.62 -2.66,1.51 -5.76,1.47 -5.76,1.47 0,0 2.9,-1.63 3.88,-4.17 0.98,-2.53 0.86,-4.05 -1.88,-3.68 -2.74,0.37 -3.11,1.59 -4.7,0.86 -1.59,-0.74 -2.82,-1.18 -4.13,-1.02 -1.31,0.16 -2.9,-0.57 -3.51,-1.18 -0.61,-0.61 -0.74,-1.23 -0.74,-1.23 0,0 6.21,-0.98 7.56,-3.47 -1.68,0.25 -4.45,0.98 -4.45,0.98 0,0 4.17,-3.72 5.03,-7.15 -1.45,0.68 -4.15,3.57 -4.15,3.57 0,0 -0.31,-1.5 -1.29,-1.47 -0.98,0.03 -1.32,0.58 -1.32,0.58 0,0 -1.5,-0.69 -1.89,-1.41 -0.39,-0.71 -1.31,-1 -1.31,-1 0,0 2.39,-2.08 2.06,-4.45 -0.33,-2.37 -2.04,-2.12 -2.94,-2.31 -0.9,-0.19 -2.45,-2.45 -2.94,-3.78 -0.49,-1.33 -0.67,-5.19 -0.8,-7.27 -0.12,-2.08 0.18,-4.44 -0.55,-4.96 -0.74,-0.52 -0.18,-3.55 -0.58,-3.62 -0.4,-0.06 -0.8,1.81 -0.89,4.32 -0.09,2.51 -1.65,11.19 -4.26,13.91 0.4,0.09 1.44,-0.43 1.44,-0.43 0,0 -1.99,2.7 -3.28,2.67 2.02,0.55 4.2,-1.38 4.2,-1.38 0,0 0.06,2.27 -0.31,3.1 -0.37,0.83 -6.47,1.75 -7.35,1.26 -0.89,-0.49 -2.02,-0.98 -2.39,-0.92 -0.37,0.06 0.43,1.72 1.72,2.51 1.29,0.8 3.83,1.32 3.83,1.32 0,0 -1.47,1.2 -0.77,2.57 0.7,1.38 1.16,1.32 1.16,1.32 0,0 -3.16,1.62 -3.77,3.52 -0.61,1.9 0.37,3.92 1.56,4.41 -0.43,0.92 -5.64,3.49 -7.45,3.19 -1.81,-0.31 -2.18,0.06 -2.15,0.74 0.03,0.67 1.99,1.65 4.5,1.5 1.1,0.52 0.55,1.16 -0.21,1.13 1.78,1.2 6.28,-0.52 6.28,-0.52 0,0 -1.59,1.69 -1.65,2.51 3.06,-0.12 4.11,-2.33 4.11,-2.33 0,0 -0.18,3.19 -2.6,7.11 -2.42,3.92 -5.27,5.03 -5.27,5.03 0,0 1.53,0.06 2.79,-0.09 -0.21,1.23 1.47,2.42 3.59,1.93 -1.29,1.07 -1.13,2.6 -1.47,3.49 -0.34,0.89 -1.44,1.5 -2.73,1.81 -1.29,0.31 -1.89,-0.56 -4.47,-0.52 h -0.67 c 0,0 0.88,-0.95 1.61,-1.62 0.74,-0.67 0.74,-1.74 -0.06,-2.76 -0.8,-1.02 -2.02,-0.74 -2.9,-0.84 -0.88,-0.1 -1.21,-0.67 -1.21,-0.67 0,0 4.78,-1.23 5.54,-2.25 0.76,-1.02 3.43,-5.19 2.1,-6.56 -1.33,-1.37 -2.1,1.27 -3.94,0.53 -1.84,-0.74 -1.94,-1 -4.19,-0.49 l 1.06,-0.96 c 0,0 -2.31,-1.29 -4.7,-2.33 -2.39,-1.04 -3.51,-2.39 -3.51,-2.39 0,0 0.98,-1.41 1.8,-1.63 0.82,-0.22 1.8,-0.88 2.02,-2.39 0.22,-1.51 0.92,-2.88 0.22,-3.25 -0.69,-0.37 -2.86,0.71 -4.15,0.49 -1.29,-0.22 -4.9,-2.45 -5.84,-3.33 -0.94,-0.88 -2.8,-0.96 -2.8,-0.96 0,0 0.1,-1.33 -0.33,-1.84 -0.43,-0.51 1.55,-2.23 2.25,-1.98 0.69,0.25 6.33,1.47 8.68,-0.39 -2.62,0.29 -6.42,-1.88 -6.42,-1.88 0,0 5.29,-0.53 6.44,-1.94 1.14,-1.41 2.78,-2.84 1.74,-3.82 -1.04,-0.98 -2.66,0.84 -3.55,0.33 -0.9,-0.51 -3.23,-1.96 -4.68,-2.15 4.39,-0.43 8.83,-5.13 9.01,-6.01 0.18,-0.88 -0.1,-1.74 0.53,-2.86 0.63,-1.12 0.55,-2.94 0.55,-2.94 0,0 -3.59,4.82 -8.06,5.65 -4.47,0.83 -7.85,0.52 -10.11,-1.23 -2.27,-1.75 -1.44,-5 -1.44,-5 0,0 1.81,0.46 4.01,0.46 -1.26,-1.93 -2.54,-2.11 -2.54,-2.11 0,0 2.15,-0.21 1.55,-2.28 1.35,0.77 5.87,-0.32 7.03,-2.16 -0.9,0.08 -1.72,0.11 -1.72,0.11 0,0 0.61,-0.35 0.67,-1.15 0.06,-0.8 -3.25,-2.41 -3.25,-2.41 0,0 0.17,-0.63 -0.15,-0.95 -0.32,-0.32 -0.78,-0.37 -0.78,-0.37 0,0 0.2,-0.6 -0.69,-1.7 -0.89,-1.1 -1.87,-1.18 -1.87,-1.18 0,0 -0.02,-1.78 0.11,-1.79 0.12,-0.02 0.49,0.52 1.01,0.31 0.52,-0.21 0.41,-1.44 0.11,-2.91 -0.31,-1.47 -1.99,-3.48 -2.48,-4.43 -0.49,-0.95 -1.21,-1.52 -1.23,-3.11 -0.02,-1.59 -0.11,-2.5 -0.32,-3.13 -0.21,-0.63 -0.75,-1.01 -0.77,-1.9 -0.02,-0.89 -0.4,-3.72 -0.74,-3.83 -0.34,-0.11 -0.14,2.42 -0.51,3.22 -0.37,0.8 -0.2,2.65 -0.23,4 -0.03,1.35 -0.08,2.65 -0.41,3.4 -0.34,0.75 -3.34,7.06 -3.34,7.06 0,0 1.95,-1.37 2.44,-2.31 -0.41,2.2 -0.7,3.15 -0.7,3.15 h 0.92 c 0,0 -2.74,2.96 -4.01,3.94 -1.27,0.98 -0.16,4.49 -0.67,5.37 -0.51,0.88 -3.51,0.53 -3.51,0.53 0,0 1.59,0.94 3.19,1.25 -2.29,0.76 -7.64,0.57 -9.19,-0.92 3.17,4.09 6.86,4.31 6.86,4.31 0,0 -3.8,0.82 -6.5,-0.06 1.88,1.88 5.62,3.55 7.99,3.08 -0.59,1.47 -6.27,6.52 -6.27,6.52 0,0 2.23,-0.2 3.37,-1.35 0.06,1.16 0.27,2.08 0.27,2.08 0,0 1.59,-1.51 2.72,-2.53 1.12,-1.02 4.82,-6.48 4.82,-6.48 0,0 -2.53,7.13 -4.78,10.19 -2.25,3.06 -8.21,7.89 -8.21,7.89 0,0 1.47,0.22 2.39,-0.25 1.21,1.72 4.68,1.14 4.68,1.14 0,0 -1.63,3.17 -2.03,4.52 -0.4,1.35 -4.26,3.98 -4.26,3.98 0,0 2.24,-3.62 1.44,-4.17 -0.8,-0.55 -2.7,2.39 -5.91,2.79 -3.22,0.4 -6.5,-0.95 -6.5,-0.95 0,0 2.74,-1.92 2.78,-2.8 0.04,-0.88 -3.39,-1.74 -4.21,-3.76 -0.82,-2.02 -1.86,-5.31 -1.86,-5.31 0,0 2.8,3.88 4.15,4.64 1.35,0.76 2.98,1.78 3.74,2.15 0.76,0.37 4.45,0.25 4.45,0.25 l -3.96,-1.53 c 0,0 4.45,-0.35 4.49,-1.92 0.04,-1.57 -3.62,-2.04 -6.15,-4.96 -2.53,-2.92 -5.74,-6.37 -5.74,-6.37 0,0 2.04,0.67 2.59,1.27 0.55,0.59 2.45,0.8 3.41,0.67 0.96,-0.12 2.51,0.31 3.66,-1 -1.31,0.27 -2.06,-0.12 -2.25,-0.51 -0.19,-0.39 -1.61,-1.16 -2.55,-1.55 -0.94,-0.39 -1.47,-1.68 -2.9,-3.21 -1.43,-1.53 -3.27,-4.76 -3.27,-4.76 0,0 2.98,-0.29 4.56,-2.62 1.57,-2.33 0.02,-3.92 -0.22,-3.92 -0.24,0 -1.61,0.33 -3,-0.2 -1.39,-0.53 -2.17,-1.76 -2.82,-1.74 0.25,-1.21 -1.08,-2.64 -1.63,-3.15 -0.55,-0.51 -0.8,-1.74 -0.67,-2 0.12,-0.27 4.02,-0.47 4.02,-2.51 0,-2.04 -1.78,-3.33 -3.43,-3.47 -1.65,-0.14 -0.98,-3.23 -2.35,-4.47 -1.37,-1.25 -0.49,-12.89 -1.7,-13.16 -1.21,-0.27 -0.47,1.98 -1.8,4.21 -1.33,2.23 -0.61,4.11 -0.67,6.15 -0.06,2.04 -0.96,3.6 -1,4.96 -0.04,1.37 -1.25,1.92 -1.45,3 -0.2,1.08 0,1.61 -0.37,2.53 -0.37,0.92 -3.43,1.84 -3.45,2.64 -0.02,0.8 1.12,3.41 2.59,3.53 -2.74,0.63 -1.51,2.37 -2.72,3 -1.21,0.63 -3.68,1.59 -4.66,2.02 -0.98,0.43 -2.9,1.98 -2.88,2.98 0.02,1 2.66,1.68 2.66,1.68 l -2.49,2.35 c 0,0 2.62,-0.55 4.21,-1.33 1.59,-0.78 3.76,-0.33 3.76,-0.33 0,0 -1.88,3.19 -4.17,4.7 -2.29,1.51 -2.11,2.78 -4.12,3.15 -1.35,0.25 -2.21,-0.09 -3.52,0.92 -1.32,1.01 -3.8,3.55 -4.54,3.55 -0.74,0 -2.94,0.06 -4.38,2.3 2.24,-1.07 3.83,-1.2 5,-0.21 l -2.45,2.6 c 0,0 2.15,-1.07 4.05,-1.72 1.9,-0.64 3.28,-1.69 5.61,-1.35 -0.86,2.05 -2.54,4.93 -3.98,6.19 -1.44,1.26 -4.72,3.37 -5.91,5.33 2.57,-1.44 4.14,-2.3 5.27,-2.3 1.13,0 5.03,-1.5 7.6,-3.86 2.57,-2.36 6.68,-7.08 6.68,-7.08 0,0 -0.61,3.98 -1.99,6.56 -1.38,2.57 -2.94,3.37 -3.59,5.21 -0.64,1.84 -3.13,3.22 -3.8,4.11 -0.67,0.89 -2.94,1.69 -3.8,3.77 2.33,-1.07 9.35,-1.1 9.35,-1.1 0,0 -5.27,3.28 -9.04,5.7 -3.77,2.42 -8.09,3.28 -9.44,3.13 -1.35,-0.15 -2.15,0.37 -3.49,1.35 2.15,0.06 0,0 0.58,0.86 0.58,0.86 1.38,0.15 2.64,0.7 1.26,0.55 3.16,0.7 6.59,-0.12 3.43,-0.83 8.24,-1.72 8.24,-1.72 0,0 -5.67,4.14 -8.67,4.38 -3,0.25 -6.25,-0.28 -7.23,0.21 0.83,1.47 2.27,1.72 3.52,1.87 1.26,0.15 3.19,1.38 3.19,1.38 l -2.91,1.44 c 0,0 1.84,0.4 5.21,-0.28 3.37,-0.67 5.15,-1.75 5.15,-1.75 0,0 -0.29,1.84 -1.57,2.8 -1.29,0.96 -2.27,-0.69 -4.17,0.88 -1.9,1.57 -2.92,0.41 -3.66,0.9 -0.74,0.49 -2.29,-0.69 -3.7,0.12 -1.41,0.82 -2.29,2.53 -2.53,3.73 -0.25,1.2 0.34,1.1 -0.37,2.24 -0.71,1.14 -1.41,1.84 -2.94,2.27 -1.53,0.43 -1.22,-0.29 -2.27,-0.23 -1.05,0.06 -1.76,-0.64 -4.29,3.05 1.9,-1.9 2.18,-5.7 2.18,-5.7 0,0 -2.94,3.16 -3.31,4.23 0.92,-3.1 -0.49,-13.09 -0.49,-13.09 0,0 -1.38,5.24 -2.3,9.26 -0.92,4.01 -2.05,7.17 -2.05,7.17 0,0 -2.11,1.87 -2.51,1.87 -0.4,0 -0.54,-0.54 -1.01,-0.4 -0.48,0.14 -0.89,2.97 0.83,4.78 -1.28,1.4 -3.22,1.56 -3.79,1.22 -0.57,-0.35 -2.94,-0.53 -3.6,-0.86 -0.65,-0.33 -3.77,-0.14 -5.21,0.38 -1.44,0.52 -3.19,0.56 -3.53,0.11 -0.35,-0.45 -2.86,-0.2 -3.84,-0.43 -0.98,-0.22 0.45,-1.8 1.7,-2.51 1.25,-0.72 1.35,-3.58 0.82,-4.09 -0.53,-0.51 -3.88,0.29 -4.25,-0.43 -0.37,-0.72 2.82,-1.49 3.6,-1.41 0.78,0.08 4.68,-0.27 4.68,-0.27 0,0 -1.98,-1.16 -3.37,-1.33 1.55,-0.59 2.35,-3.08 2.37,-4.05 0.02,-0.96 3.49,-3.6 5.25,-8.15 -2.57,2.12 -7.89,6.78 -11.93,6.25 4.37,-0.94 7.76,-5.58 7.76,-5.58 0,0 -5.48,3.51 -8.64,2.21 -3.17,-1.31 -3.62,-1.06 -3.62,-1.06 0,0 0.73,-1.41 1.98,-1.72 1.26,-0.31 1.58,-1.75 1.01,-2.38 -0.57,-0.63 -1.96,-0.81 -2.27,-1.24 -0.31,-0.43 2.73,-0.08 3.06,-0.54 0.34,-0.46 2.08,-0.34 2.87,-0.09 0.78,0.25 2.65,-0.61 2.65,-0.61 0,0 -0.74,-0.81 -2.04,-1.23 -1.3,-0.41 -1.16,-0.84 -1.09,-0.97 0.08,-0.12 1.18,-0.12 2.39,-0.52 1.21,-0.4 2.47,-2.13 2.47,-2.13 0,0 -2.42,0.86 -4.81,0.61 -2.39,-0.25 -3.53,-0.61 -3.88,-1.02 -0.35,-0.41 -1.08,-0.39 -1.08,-0.39 0,0 0.03,-0.81 -0.51,-1.58 -0.54,-0.77 -1.95,-1.09 -1.87,-1.7 0.08,-0.61 1.96,-0.44 2.8,-2.21 0.84,-1.76 -0.92,-2.56 -1.69,-3.23 -0.77,-0.67 -1.7,-1.62 -1.7,-1.62 0,0 3.14,0.89 4.83,0.06 -1.64,-0.53 -4.27,-2.45 -5.07,-3.39 -0.74,-0.86 -0.55,-3.77 -0.49,-6.16 0.06,-2.39 0.8,-10.66 0.61,-10.66 -0.19,0 -1.13,4.32 -1.41,6.04 -0.28,1.72 -1.2,2.88 -1.41,3.62 -0.21,0.74 0.21,2.97 -0.52,4.01 -0.73,1.04 -3.49,2.42 -3.46,2.79 0.03,0.37 -1.59,0.93 -1.59,0.93 0,0 3.16,0.56 4.11,0 0.95,-0.56 0.49,1.37 0.06,1.92 -0.43,0.55 -0.8,1.78 -0.95,2.94 -0.15,1.16 -1.32,0.61 -1.87,1.44 -0.55,0.83 -1.04,0.98 -1.04,1.32 0,0.34 1.62,0.67 1.78,1.29 0.15,0.61 -1.21,2.95 -2.53,3.59 -1.33,0.63 -2.96,1.1 -3.11,1.88 -0.14,0.78 0.47,1.51 0.47,1.51 0,0 0.1,1.18 0.9,1.21 0.8,0.02 -3.43,1 -4.88,0.25 -1.45,-0.76 -0.65,1.88 0.18,2.41 0.84,0.53 1.02,1.41 1.96,1.82 0.94,0.41 2.59,-0.1 2.59,-0.1 0,0 -0.94,4.07 -1.65,3.92 -0.71,-0.15 -1.61,-1.49 -2.25,-2.76 -0.63,-1.27 -1.57,-2.74 -2.27,-3.23 -0.69,-0.49 -3.02,-4.92 -3.19,-6.37 -0.16,-1.45 -1.06,-4.37 -1.06,-4.37 0,0 2.62,2.86 4.02,3.35 1.41,0.49 3.45,-0.14 3.45,-0.14 0,0 -2.15,-1.18 -3.41,-1.96 1.96,0.78 7.48,-1.98 7.48,-1.98 0,0 -2.9,-0.49 -4.7,-0.31 0.29,-0.61 6.52,-2.28 6.84,-4.86 -2,-0.18 -4.92,0.88 -4.92,0.88 0,0 -0.06,-0.61 -1.29,-0.86 -1.23,-0.25 -3.66,-0.74 -4.58,-2.02 -0.92,-1.29 -3.45,-5.62 -2.94,-6.62 0.51,-1 1.49,-1.88 1.27,-2.98 0.86,1.31 3.08,1.08 4.13,1.1 1.04,0.02 2.62,-0.08 4.27,-0.9 -2.02,-0.47 -5.74,-0.9 -5.74,-0.9 0,0 3.35,-0.04 4.8,-1.29 1.45,-1.25 2.55,-2.84 2.55,-2.84 l -3.88,1 c 0,0 0.37,-1.57 -0.2,-1.76 -0.57,-0.18 -2.88,0.22 -4.23,-1.9 -1.35,-2.12 -2.59,-4.02 -2.59,-4.02 l 0.37,-1.29 c 0,0 2,0.92 3.27,0.27 1.27,-0.65 2.37,-2.15 2.37,-2.15 0,0 3.96,-0.94 4,-3.06 -0.04,-0.61 -2.84,-0.12 -3.78,-0.2 -0.94,-0.08 -2.57,-1.47 -2.76,-2.19 -0.18,-0.72 0.03,-1.58 -0.43,-1.86 -0.45,-0.28 -1.7,-0.04 -2,-0.36 -0.31,-0.32 -1.46,-2.01 -1.46,-2.01 0,0 1.48,1.13 2.53,0.88 1.05,-0.26 1.84,-0.66 1.84,-0.66 0,0 -1.03,-1.79 -2.67,-2.38 -1.63,-0.59 -1.25,-1.01 -0.85,-1.05 0.4,-0.04 1.36,-0.27 1.68,-1.22 0.32,-0.95 0.58,-1.79 -0.4,-2.7 -0.98,-0.9 -1.21,-1.79 -0.97,-2.33 0.25,-0.54 -0.06,-2.44 -0.64,-3.11 -0.58,-0.67 -0.67,-2.45 -0.66,-3.25 0.02,-0.8 -0.54,-3.71 -0.54,-3.71 0,0 -0.81,4.24 -0.91,5.29 -0.1,1.05 0.06,2.62 -0.67,3.64 -0.74,1.02 -1.29,1.39 -1.02,2.92 0.27,1.53 -0.33,2.7 -1.19,3.68 -0.86,0.98 -1.12,2.21 -0.65,2.76 0.47,0.55 1.82,0.39 2.12,0.84 0.31,0.45 0.27,2.9 -0.69,3.6 -0.96,0.69 -2.82,2.29 -5.9,2.41 -3.09,0.12 -3.96,1.08 -4.68,0.55 -0.72,-0.53 -1.14,-0.98 -1.68,-0.31 -0.53,0.67 -2.41,2.7 -2.49,3.53 -0.08,0.84 1.82,0.59 2.47,0.08 0.65,-0.51 0.51,0.9 2.45,0.41 -0.88,1.35 -2.53,3.43 -3.51,3.41 -0.98,-0.02 -1.23,-0.08 -1.18,0.53 0.04,0.61 0.9,1.14 2.23,0.9 1.33,-0.25 4.68,-0.8 5.39,-1.94 0.71,-1.14 0.9,-1.41 1.14,-1.39 0.25,0.02 0,0.61 0.51,1.08 0.51,0.47 2.57,0.25 2.57,0.25 0,0 -4.47,3.29 -7.74,4.19 1.51,0.57 3.43,-0.02 3.43,-0.02 0,0 -3.31,2.08 -4.82,2.08 -1.51,0 -1.57,0.63 -2.86,0.1 -1.29,-0.53 -4.6,-2.17 -5.19,-2.12 -0.59,0.04 0.43,1.61 1.06,2.04 0.63,0.43 0.72,0.45 1.23,1.21 0.51,0.76 1.47,1.31 2.47,1.41 1,0.1 4.33,0.08 4.6,0.39 0.27,0.31 -2.42,2.48 -3.86,2.42 -1.44,-0.06 -3.46,-0.09 -3.65,0.34 -0.18,0.43 1.56,0.7 1.87,1.16 0.31,0.46 1.72,-0.12 2.33,0 0.61,0.12 1.41,0.55 2.42,-0.06 1.01,-0.61 1.56,-0.67 2.45,-0.67 0.89,0 3.06,-1.69 3.06,-1.69 0,0 -1.38,1.96 -2.27,2.64 -0.89,0.67 -2.48,1.65 -2.48,1.65 0,0 3.43,-0.31 7.08,-3.31 -0.21,2.21 -0.49,5.52 -5.49,9.16 -5,3.64 -15.87,3.31 -17.25,3.06 1.5,1.5 2.85,1.93 3.25,3 -1.84,0.21 -2.94,0.03 -2.94,0.03 0,0 2.42,1.41 5.21,1.04 2.79,-0.37 4.84,-1.75 4.84,-1.75 0,0 -2.7,3.28 -4.78,3.68 -2.08,0.4 -6.37,-0.15 -6.37,-0.15 0,0 2.08,2.18 3.55,2.54 1.47,0.37 1.99,0.7 2.57,1.07 0.58,0.37 6.25,-1.69 6.25,-1.69 l -4.05,2.73 c 0,0 3.98,0.15 7.17,-2.54 3.19,-2.7 5.09,-4.69 5.42,-4.44 0.34,0.25 -1.9,3.59 -5.64,6.62 -3.74,3.03 -8,5.39 -12.29,5.49 1.5,-1.23 3.67,-2.1 4.24,-3.45 -2.12,0.88 -5.68,-0.84 -5.68,-0.84 l 1.8,-0.67 c 0,0 -11.3,-3.86 -12.09,-7.72 -0.8,-3.86 -1.47,-4.13 -1.47,-5.52 0,-1.39 -0.8,-2.33 -0.8,-2.33 0,0 3.47,2.35 5.07,2.43 1.59,0.08 5.74,-1.01 5.74,-1.01 l -2.82,-1.03 c 0,0 5.9,0.37 8.27,-1.39 l -4.09,-0.02 c 0,0 2.06,-1.1 3,-1.08 0.94,0.02 1.74,-0.82 2.1,-1.37 0.37,-0.55 1.16,-1.96 0.53,-2.33 -0.63,-0.37 -3.37,0.88 -5.35,1.14 -1.98,0.27 -4.62,-0.53 -6.74,-1.47 -2.12,-0.94 -2.51,-1.43 -2.51,-1.43 0,0 1.92,0.43 3.9,0 1.98,-0.43 3.02,-2.19 4.43,-2.7 1.41,-0.51 1.39,-0.88 2.06,-1.08 0.67,-0.2 3.09,-2.29 3.09,-2.29 0,0 -3.96,2.12 -7.09,1.55 -3.13,-0.57 -4.09,-0.25 -5.15,-1 -1.06,-0.76 -2.53,-1.51 -3.33,-2.1 -0.8,-0.59 -1.86,-1.72 -2.9,-3.21 -1.04,-1.49 -1.86,-3.27 -1.72,-3.76 0.14,-0.49 0.55,0.16 1.23,0.33 0.67,0.16 1.59,-0.65 2.37,-0.49 0.78,0.16 1.55,1.27 2.59,1.37 1.04,0.1 2.35,-0.65 3.19,-0.31 0.84,0.35 3.39,0.61 5.99,0.02 -1.8,-1.16 -2.92,-1.04 -2.92,-1.04 0,0 4,-1.31 5.39,-2.72 -2.06,-0.06 -4.86,1.14 -6.39,1.04 -1.53,-0.1 -5.37,-2.29 -5.37,-2.29 0,0 3.51,-1.27 4.27,-2.51 0.76,-1.25 2.55,-4.78 1.14,-5.48 -1.41,-0.69 -3.68,1.76 -6.05,0.86 -2.37,-0.9 -5.56,-3.14 -6.08,-3.47 -0.52,-0.34 -0.18,-1.16 1.29,-1.59 1.47,-0.43 2.21,-0.98 2.73,-1.62 0.52,-0.64 -0.08,-1.44 0.02,-2.24 0.09,-0.8 0.25,-1.85 -0.14,-1.98 -0.38,-0.12 -2.25,0.02 -2.91,-0.34 -0.66,-0.35 -2.19,-0.83 -2.3,-1.06 -0.11,-0.23 0.17,-0.6 0.34,-1.04 0.17,-0.44 -0.12,-2.6 -0.12,-2.6 0,0 1.78,1.06 2.48,1.16 0.7,0.11 2.48,-1.06 2.48,-1.06 l -2.73,-1.21 c 0,0 3.56,-1.55 3.34,-2.87 -0.06,-0.37 -1.39,0.32 -2.6,-0.58 -1.21,-0.9 -2.68,-1.42 -2.71,-2.62 -0.03,-1.2 -0.97,-1.44 -0.75,-3.08 0.21,-1.64 -0.44,-1.72 -0.43,-2.76 0.02,-1.04 -0.31,-1.92 -0.47,-2.59 -0.17,-0.67 -0.21,-6.05 -0.21,-6.05 -0.29,1.43 -1.27,4.21 -1.31,5.64 -0.04,1.43 0.45,2.45 0,3.55 -0.45,1.1 -1.53,2.47 -1.45,3.25 0.08,0.78 -0.8,1.35 -0.9,2.06 -0.1,0.72 -0.59,1.57 -1.82,2.39 -1.23,0.82 -2.41,0.78 -2.47,1.14 -0.06,0.37 0.14,0.72 1.65,1.39 -2.21,0.98 -4.74,1.25 -4.74,1.25 0,0 2.33,0.53 3.41,0.43 1.08,-0.1 3.84,-0.2 4.82,-0.92 0.29,-0.2 0.63,-0.04 0.37,0.51 -0.27,0.55 -1.9,2.23 -3.47,2.9 -1.57,0.67 -1.8,1.53 -1.63,2.06 0.16,0.53 1,0.78 1.72,0.51 0.72,-0.27 1.1,-0.35 1.45,-0.27 0.35,0.08 1,0.1 1.47,-0.27 0.22,0.8 0.37,1.98 -0.88,2.66 -1.25,0.67 -3.17,0.88 -3.82,1.33 -0.65,0.45 -7.48,0.22 -8.34,-0.14 1.57,1.61 3.94,1.76 3.94,1.76 0,0 -0.86,1.06 -2.45,1.65 -1.59,0.59 -4,-0.25 -4.58,0.18 -0.57,0.43 0.47,1.9 1.27,2.57 0.8,0.67 2.08,0.57 2.45,0.86 0.37,0.29 1.92,0.55 1.92,0.55 0,0 -1.12,1.16 -2.78,1.45 -1.65,0.29 -1.98,1.25 -1.88,1.61 0.1,0.37 1.37,1.06 2.33,1.21 0.96,0.14 1.98,-0.39 3.02,-0.18 1.04,0.21 2.78,0 3.09,-0.33 0.32,-0.33 0.83,-1.14 1.22,-1.06 0.39,0.08 1.37,1.84 -0.02,3.53 -1.39,1.7 -7.31,6.52 -17.47,5.05 1.57,1.84 6.35,1.96 6.35,1.96 0,0 -2.7,0.89 -3.68,1.59 2.82,1.07 4.84,-0.12 5.98,0.12 1.13,0.25 2.73,0 3.71,0.46 0.98,0.46 2.54,0.58 3.16,0 0.61,-0.58 1.84,0 2.79,0.06 0.95,0.06 2.3,-1.26 2.3,-1.26 0,0 -0.86,2.24 -2.67,4.35 -1.81,2.11 -8.15,4.41 -13.42,4.44 -5.27,0.03 -6.9,-0.4 -7.02,0.28 -0.12,0.67 1.53,2.05 2.57,2.73 1.04,0.67 5.85,0.86 6.9,1.04 1.05,0.18 0.31,1.04 -1.65,1.35 -1.96,0.31 -2.79,0.31 -2.97,0.74 -0.18,0.43 1.84,1.75 3.13,1.72 1.29,-0.03 1.59,-0.64 2.6,-0.46 1.01,0.18 1.72,-0.61 2.42,-0.61 0.7,0 1.13,0.64 1.99,-0.03 0.86,-0.67 2.15,-0.52 2.36,-0.09 0.21,0.43 1.87,0.58 3.28,-0.03 -1.47,1.5 -2.88,4.23 -5.85,5.67 -2.97,1.44 -5.58,0.92 -6.8,2.02 -1.23,1.1 -1.56,1.32 -1.56,1.84 0,0.52 2.08,0.8 3.8,0.74 1.72,-0.06 5.91,-0.43 8.46,-2.94 -1.9,2.15 -2.73,3.89 -2.73,3.89 0,0 3.77,-1.75 5.45,-3.37 1.69,-1.62 2.51,-2.51 2.82,-2.33 0.31,0.18 0.55,1.26 2.42,0.74 -1.1,1.87 -1.65,3.59 -3.86,4.96 -2.21,1.38 -3.92,3.52 -5.64,4.54 -1.72,1.01 -4.72,3.16 -8.76,3.19 -4.05,0.03 -5.49,0.18 -6.71,0 -1.23,-0.18 -2.39,0.34 -2.42,0.83 -0.03,0.49 0.61,0.8 2.24,2.05 1.62,1.26 3.59,0.8 3.59,0.8 0,0 -2.42,1.81 -4.81,2.08 -2.39,0.28 -4.11,0.34 -5.24,0.61 -1.13,0.28 -4.84,-0.4 -4.84,-0.4 0,0 1.44,2.36 4.32,3.22 2.88,0.86 7.69,0.7 11.77,-1.1 -2.73,2.3 -7.88,4.87 -7.88,4.87 0,0 1.99,1.38 4.41,0.55 2.42,-0.83 2.88,-1.84 3.68,-1.75 0.8,0.09 1.59,0.37 3,-0.43 1.41,-0.8 2.51,-0.58 3.19,-0.98 0.67,-0.4 1.72,-1.5 1.72,-1.5 0,0 -0.37,1.81 -1.5,3.06 -1.13,1.26 -1.13,2.18 -1.13,2.18 0,0 1.87,-0.92 3.68,-1.59 1.81,-0.67 7.85,-5.49 7.85,-5.49 0,0 -1.65,4.5 -6.59,7.32 -4.93,2.82 -10.88,6.8 -12.96,8.12 -2.08,1.32 -4.17,5 -4.17,5 0,0 3.08,-0.53 6.81,-3.04 -7.05,5.06 -2.8,5.12 -7.55,6.11 -4.75,0.98 -6.07,1.47 -7.51,1.13 -1.44,-0.34 -1.93,-0.52 -2.18,0.37 -0.25,0.89 2.27,2.76 2.94,3.46 0.67,0.7 4.69,-0.21 4.69,-0.21 0,0 -1.29,1.59 -1.1,2.36 0.18,0.77 3.19,1.44 6.93,0 3.74,-1.44 5.09,-2.88 5.61,-2.79 0.52,0.09 0.25,1.72 2.27,1.65 2.02,-0.06 4.87,-2.67 5.39,-2.64 0.52,0.03 1.16,-0.31 1.16,-0.31 0,0 -10.26,12.67 -13.93,15.69 -3.68,3.02 -9.07,8.66 -9.07,8.66 -2.17,0 -4.62,0.08 -4.58,0.86 0.04,0.78 298.25,7.11 298.25,7.11 0,0 1.58,-9.85 -0.38,-12.88 z m -246.27,-37.35 -2.76,-4.9 8.03,3.43 z"
       id="path3" />
  </g>
  <g
     id="filling"
     transform="translate(0,-30.53)">
    <polygon
       class="cls-1"
       points="1334.03,205.5 1334.03,247.34 1168.73,245.66 1172.15,237.45 1179.25,230.24 1186.87,228.3 1192.44,221.58 1196.35,220.57 1201.3,223.34 1202.54,226.42 1208.51,224.88 1212.84,226.42 1215.52,231.58 1221.5,230.24 1221.5,205.5 "
       id="polygon3" />
    <polygon
       class="cls-1"
       points="686.65,159.69 692.21,152.61 692.21,131.51 773.42,131.51 773.42,151.71 779.19,160.57 772.8,160.78 773.21,194.37 692.21,187.08 692.21,159.69 "
       id="polygon4" />
    <path
       class="cls-1"
       d="m 417.21,149.43 c 0,0 -6.54,-3.7 -7.16,-3.7 -0.62,0 -7.42,-7.83 -7.42,-7.83 v -10.85 l 1.27,-4.6 2.23,-12.84 4.13,-6.21 2.26,-9.89 4.69,-2.39 4.18,2.39 3.09,8.57 4.36,6.37 v 13.37 l 3.27,5.22 v 7.56 l -3.3,8.04 -4.74,4.12 -6.85,2.67 z"
       id="path4" />
    <path
       class="cls-1"
       d="m 457.5,138.64 c 0,0 -7.88,-3.51 -8.52,-3.51 -0.64,0 -5.95,-8.27 -5.95,-8.27 v -9.35 l 1.33,-3.97 2.33,-11.07 4.3,-5.35 4.17,-7.33 2.92,-1.59 3.77,1.59 2.66,8.03 4.74,3.64 1.08,11.55 3.41,4.5 v 6.51 l -3.44,6.93 -5.34,5.85 -7.47,1.84 z"
       id="path5" />
    <path
       class="cls-1"
       d="m 530.92,160.67 c 0,0 -7.88,-3.51 -8.52,-3.51 -0.64,0 -5.95,-8.27 -5.95,-8.27 v -9.35 l 1.33,-3.97 2.33,-11.07 4.3,-5.35 4.17,-7.33 2.92,-1.59 3.77,1.59 2.66,8.03 4.74,3.64 1.08,11.55 3.41,4.5 v 6.51 l -3.44,6.93 -5.34,5.85 -7.47,1.84 z"
       id="path6" />
    <path
       class="cls-1"
       d="m 559.66,174.39 -3.41,-6.43 -4.13,-6.18 -6.56,-2.79 -7.35,-5.82 -5.2,0.95 -5,-4.81 -5.59,1.17 -6.63,-5 -7.35,5.65 c 0,0 -8.71,-1.42 -11.24,-1.62 -2.53,-0.2 -5.65,-5.72 -5.65,-5.72 0,0 -5.98,0.58 -6.95,1.1 -0.97,0.52 -5.85,-6.04 -9.29,-5.26 -3.44,0.78 -6.63,4.87 -6.89,7.08 -0.26,2.21 -4.74,-0.13 -8.84,3.25 -4.1,3.38 -6.5,5.72 -7.15,6.76 -0.65,1.04 -2.92,3.57 -2.86,5.98 0.06,2.41 0.97,7.02 0.97,7.02 l 109.13,4.68 z"
       id="path7" />
    <path
       class="cls-1"
       d="m 565.86,175.07 c -0.45,-1.15 -0.11,-8.06 0.99,-9.34 1.1,-1.28 2.2,-2.78 2.2,-2.78 0,0 -5.69,-2.89 -7.51,-5.49 -1.82,-2.6 -0.73,-18.56 -0.73,-18.56 l 2.53,-11.07 5.72,-5.15 3.48,-8.24 h 3.85 l 3.3,4.58 1.65,5.13 5.45,4.4 0.6,8.08 1.83,5.37 1.23,5.62 6.2,0.5 2.46,5.05 c 0,0 3.55,-3 6.63,-1.91 l 3.08,1.1 2.56,2.87 0.92,2.24 c 0,0 6.78,-2.22 10.08,0 3.3,2.22 6.05,7.21 6.05,7.21 0,0 4.58,-1.14 7.14,1.06 2.56,2.2 3.66,8.66 3.66,8.66 0,0 2.31,-0.97 4.27,3.06 1.96,4.03 1.04,5.13 1.04,5.13 l -78.66,-7.51 z"
       id="path8" />
    <path
       class="cls-1"
       d="m 798.4,153.65 c 0.16,-0.49 4.47,-8.31 4.47,-8.31 h 12.44 l 4.78,8.11 -21.69,0.19 z"
       id="path9" />
    <polygon
       class="cls-1"
       points="812.21,203.69 808.02,203.69 807.54,153.57 812.21,153.52 "
       id="polygon9" />
  </g>
  <g
     id="skyline"
     transform="translate(0,-30.53)">
    <path
       class="cls-2"
       d="m 1172.15,164.71 h -95.63 v 7.71 h 95.63 z m -95.63,21.31 h 95.63 v -7.71 h -95.63 z m 0,13.6 h 95.63 v -7.71 h -95.63 z m 0,13.6 h 95.63 v -7.71 h -95.63 z M 292.6,96 h -33.99 v 7.71 h 33.99 z m -33.99,21.31 h 33.99 v -7.7 h -33.99 z m 0,13.6 h 33.99 v -7.71 h -33.99 z m 0,13.6 h 33.99 v -7.7 h -33.99 z m 39.88,-40.79 h 33.99 v -7.71 h -33.99 z m 0,13.6 h 33.99 v -7.7 h -33.99 z m 0,13.6 h 33.99 v -7.71 h -33.99 z m 0,13.6 h 33.99 v -7.7 h -33.99 z m 1264.56,-5.4 h -33.99 v 7.71 h 33.99 z m -33.99,21.31 h 33.99 v -7.71 h -33.99 z m 0,13.6 h 33.99 v -7.71 h -33.99 z m 0,13.6 h 33.99 v -7.71 h -33.99 z m 39.88,-40.79 h 33.99 v -7.71 h -33.99 z m 0,13.6 h 33.99 v -7.71 h -33.99 z m 0,13.6 h 33.99 v -7.71 h -33.99 z m 0,13.6 h 33.99 v -7.71 h -33.99 z M 204.08,99.94 h -95.63 v 7.71 h 95.63 z m -95.63,21.31 h 95.63 v -7.7 h -95.63 z m 0,13.6 h 95.63 v -7.71 h -95.63 z m 0,13.6 h 95.63 v -7.7 h -95.63 z m 824.26,-5.58 h 95.63 v -7.71 h -95.63 z m 0,13.6 h 95.63 v -7.71 h -95.63 z m 0,13.6 h 95.63 v -7.71 h -95.63 z m 0,13.6 h 95.63 v -7.71 h -95.63 z m -9.97,-48.5 h -18.88 v 7.71 h 18.88 z m -18.88,21.31 h 18.88 v -7.71 h -18.88 z m 0,13.6 h 18.88 v -7.71 h -18.88 z m 0,13.6 h 18.88 v -7.71 h -18.88 z m -6.42,-48.5 h -18.88 v 7.71 h 18.88 z m -18.88,21.31 h 18.88 v -7.71 h -18.88 z m 0,13.6 h 18.88 v -7.71 h -18.88 z m 0,13.6 h 18.88 v -7.71 h -18.88 z m -6.42,-48.5 h -18.89 v 7.71 h 18.89 z m -18.89,21.31 h 18.89 v -7.71 h -18.89 z m 0,13.6 h 18.89 v -7.71 h -18.89 z m 0,13.6 h 18.89 v -7.71 h -18.89 z m 255.4,62.01 h 35.71 v -25.77 h -35.71 z m 18.77,-22.82 h 13.98 v 19.86 h -13.98 z m -15.81,0 h 12.85 v 19.86 h -12.85 z M 278.51,177 h 35.7 v -25.77 h -35.7 z m 18.76,-22.82 h 13.99 v 19.86 h -13.99 z m -15.81,0 h 12.86 v 19.86 h -12.86 z m 432.73,38.5 h 35.71 v -25.77 h -35.71 z m 18.77,-22.81 h 13.98 v 19.85 h -13.98 z m -15.81,0 h 12.86 v 19.85 h -12.86 z m 24.94,-22.21 h 16.24 v -11.41 h -16.24 z m 2.96,-8.47 h 10.34 v 5.51 h -10.34 z m -39.36,8.47 h 16.24 v -11.42 h -16.24 z m 2.96,-8.47 h 10.33 v 5.5 h -10.33 z m 577.21,106.51 h 35.71 v -25.78 h -35.71 z m 18.77,-22.82 h 13.98 v 19.85 h -13.98 z m -15.82,0 h 12.86 v 19.85 h -12.86 z M 198.02,175.52 V 152.7 h -35.71 v 22.82 H 145.6 V 152.7 h -35.71 v 22.82 H 96.13 l 0.1,16.84 1.69,-0.26 c 36.32,-5.62 101.79,-11.92 137.47,-15.39 v -1.18 h -37.37 z m -69.37,-19.85 h 13.99 v 19.85 h -13.99 z m -15.81,0 h 12.86 v 19.85 H 112.84 Z M 99.16,188.92 99.1,178.48 h 10.79 c 0,0 35.71,0 35.71,0 v 0 c 0,0 16.71,0 16.71,0 h 15.13 c -25.92,2.92 -51.99,6.38 -78.28,10.43 z m 78.96,-13.4 h -12.85 v -19.85 h 12.85 z m 16.94,0 h -13.98 v -19.85 h 13.98 z m 816.93,34.37 H 991.8 v -22.81 h -35.71 v 22.81 h -50.6 v -22.81 h -35.71 v 22.81 l -31.08,-0.06 23.11,3 c 51.01,7.51 100.45,13.72 148.8,18.58 l 1.64,0.17 -0.02,-1.65 -0.25,-20.03 z m -37.12,-19.86 h 13.99 v 19.86 h -13.99 z m -15.82,0 h 12.86 v 19.86 h -12.86 z m -70.49,0 h 13.99 v 19.86 h -13.99 z m -15.81,0 h 12.86 v 19.86 h -12.86 z m 9.89,22.82 h 22.87 c 0,0 50.6,0 50.6,0 v 0 c 0,0 35.71,0 35.71,0 v 0 c 0,0 17.27,0 17.27,0 l 0.19,15.45 c -41.3,-4.17 -83.42,-9.33 -126.64,-15.45 z m 702.02,2.33 v -22.81 h -35.71 v 22.81 h -14.98 l -0.2,11.72 1.69,-0.21 c 20.35,-2.56 40.82,-5.42 61.45,-8.56 l 7.62,-2.94 h -19.88 z m -32.75,-19.86 h 12.86 v 19.86 h -12.86 z m -15.12,28.22 0.09,-5.41 h 12.07 c 0,0 27.69,0 27.69,0 -13.34,1.92 -26.62,3.72 -39.84,5.4 z m 44.91,-8.36 h -13.98 v -19.86 h 13.98 z m 77.38,-10.81 -0.34,0.05 c -5.11,0.91 -10.19,1.77 -15.28,2.64 v -6.62 c 1.99,-0.65 3.83,-1.78 5.45,-3.24 2.17,-0.44 3.79,-2.09 5.01,-4.08 1.38,-2.29 2.31,-5.26 2.66,-8.59 0.09,-0.88 0.13,-1.74 0.13,-2.57 -0.04,-4.07 -0.93,-7.64 -2.97,-9.95 0.03,-0.53 0.05,-1.08 0.05,-1.64 0,-0.17 0,-0.32 0,-0.46 -0.09,-3.54 -0.85,-6.7 -2.13,-9.16 -1.06,-2.01 -2.58,-3.74 -4.68,-4.28 -0.39,-2.26 -1.08,-4.27 -2.05,-5.91 -1.19,-1.99 -3,-3.65 -5.45,-3.68 -2.45,0.03 -4.26,1.69 -5.45,3.68 -0.98,1.64 -1.67,3.65 -2.05,5.9 -2.11,0.53 -3.63,2.27 -4.69,4.29 -1.28,2.45 -2.04,5.61 -2.12,9.11 0,0.13 -0.01,0.29 -0.01,0.49 0,0.57 0.02,1.12 0.06,1.65 -2.05,2.31 -2.94,5.88 -2.98,9.95 0,0.83 0.04,1.7 0.14,2.59 0.34,3.3 1.28,6.27 2.64,8.55 1.22,1.99 2.82,3.64 4.98,4.1 1.77,1.6 3.79,2.78 5.97,3.4 v 7.75 c -6.64,1.12 -13.25,2.2 -19.85,3.26 v -83.24 h -41.74 v -12.5 h -46.46 v 12.5 h -11.67 v 97.16 c -7.42,0.87 -14.83,1.71 -22.22,2.51 v -9.58 c 3.41,-0.56 6.6,-1.75 9.44,-3.46 5.8,-0.56 10.42,-5.97 11.5,-12.64 0.14,-0.92 0.21,-1.81 0.21,-2.69 0,-4.21 -1.63,-8.01 -4.57,-10.19 0.04,-0.46 0.06,-0.92 0.06,-1.4 0,-0.18 0,-0.34 0,-0.44 -0.26,-6.94 -4.51,-12.93 -10.5,-13.55 -1.37,-5.28 -5.3,-9.41 -10.49,-9.47 -5.19,0.06 -9.12,4.19 -10.5,9.46 -6,0.62 -10.24,6.62 -10.5,13.48 0,0.17 -0.01,0.36 0,0.55 0,0.47 0.02,0.92 0.06,1.37 -2.93,2.18 -4.57,5.98 -4.57,10.19 0,0.87 0.07,1.77 0.22,2.7 1.08,6.62 5.67,12.01 11.44,12.62 3.19,1.92 6.83,3.19 10.7,3.64 v 10.2 c -12.53,1.32 -25.03,2.52 -37.5,3.62 v -45.67 h 9.39 c 0,0 -5.5,-11.82 -5.5,-11.82 h -15.93 l -5.5,11.83 h 9.52 v 46.35 c -5.53,0.47 -11.05,0.87 -16.57,1.3 -0.63,-0.45 -1.29,-0.86 -2.01,-1.18 -0.08,-5.12 -4.26,-9.25 -9.4,-9.25 -0.46,0 -0.9,0.04 -1.32,0.11 -2.13,-4.59 -6.76,-7.8 -12.17,-7.81 -1.4,0 -2.74,0.23 -4,0.63 -1.39,-3.45 -4.77,-5.89 -8.72,-5.89 -1.48,0 -2.87,0.36 -4.1,0.97 -1.54,-3.08 -4.7,-5.19 -8.38,-5.2 -4.61,0 -8.44,3.32 -9.25,7.7 -0.19,0 -0.38,-0.02 -0.57,-0.02 -5.18,0 -9.55,3.3 -11.23,7.89 -3.97,1.1 -6.89,4.72 -6.89,9.05 0,0.63 0.07,1.23 0.19,1.8 -2.71,1.19 -4.88,3.34 -6.1,6.03 -1.31,0.05 -2.62,0.12 -3.94,0.17 v -33.35 h 7.49 l -6.26,-11.11 h -118.74 l -4.92,11.11 h 5.69 v 23.04 c -1.1,0.07 -2.17,0.24 -3.18,0.56 -1.38,-3.44 -4.73,-5.88 -8.66,-5.88 -1.47,0 -2.84,0.36 -4.06,0.96 -1.53,-3.07 -4.67,-5.19 -8.32,-5.19 -4.59,0 -8.39,3.33 -9.18,7.7 -0.18,-0.01 -0.37,-0.02 -0.55,-0.02 -0.33,0 -0.65,0.05 -0.98,0.08 v -73.34 h -60.62 v -12.5 h -46.47 v 12.5 h -11.67 v 78.97 c -8.32,-0.67 -16.68,-1.39 -25.06,-2.14 v -106.4 h -20.58 v -12.5 h -86.5 v 12.5 h -98.69 v 80.89 c -1.97,-0.3 -3.92,-0.59 -5.89,-0.9 -5.21,-0.82 -10.38,-1.6 -15.54,-2.39 v -46.37 h 9.39 l -5.5,-11.82 h -15.93 l -5.5,11.83 h 9.52 v 45.15 c -10.28,-1.55 -20.5,-3.05 -30.66,-4.51 v -34.49 h 6.5 L 775,152.17 h 0.17 v -22.82 h -84.92 v 22.82 h 0.18 l -6.67,9.64 h 6.49 v 23.3 c -7.32,-0.87 -14.62,-1.72 -21.89,-2.54 v -47.92 h 9.39 l -5.5,-11.82 h -15.93 l -5.5,11.82 h 9.52 v 47.02 c -4.19,-0.46 -8.35,-0.87 -12.52,-1.32 -0.91,-3.66 -3.43,-6.67 -6.76,-8.25 -0.25,-5.25 -4.58,-9.42 -9.89,-9.42 -0.35,0 -0.69,0.02 -1.02,0.06 -2.27,-4.58 -6.98,-7.76 -12.46,-7.76 -1.3,0 -2.54,0.19 -3.72,0.52 -1.56,-3.41 -5,-5.78 -9,-5.78 -1.39,0 -2.7,0.3 -3.89,0.82 -1.69,-3.01 -4.9,-5.04 -8.6,-5.04 -0.16,0 -0.31,0.03 -0.46,0.04 -0.27,-3.25 -1.16,-6.07 -2.88,-8.01 0.04,-0.52 0.06,-1.07 0.06,-1.63 0,-0.17 0,-0.33 0,-0.51 -0.09,-3.5 -0.85,-6.66 -2.13,-9.11 -1.06,-2.01 -2.58,-3.75 -4.68,-4.28 -0.39,-2.25 -1.08,-4.27 -2.05,-5.9 -1.19,-1.99 -3,-3.65 -5.45,-3.68 -2.45,0.03 -4.27,1.69 -5.46,3.68 -0.98,1.64 -1.67,3.65 -2.05,5.91 -2.11,0.53 -3.63,2.27 -4.69,4.29 -1.27,2.45 -2.03,5.61 -2.12,9.1 0,0.16 0,0.34 0,0.48 0,0.57 0.02,1.12 0.06,1.66 -2.05,2.31 -2.93,5.88 -2.98,9.94 0,0.84 0.05,1.7 0.14,2.58 0.34,3.32 1.28,6.28 2.64,8.56 1.22,2 2.83,3.65 4.99,4.1 0.45,0.4 0.92,0.74 1.4,1.09 -1.68,1.77 -2.74,4.14 -2.74,6.78 0,0.52 0.05,1.03 0.13,1.52 -0.32,0.16 -0.62,0.35 -0.92,0.53 -0.53,-0.04 -1.06,-0.07 -1.59,-0.11 -0.83,-2.84 -2.8,-5.18 -5.4,-6.48 -0.32,-4.38 -3.97,-7.83 -8.43,-7.83 -0.21,0 -0.42,0 -0.63,0.03 -0.54,-1.03 -1.23,-1.96 -2.03,-2.78 2.04,-2.38 3.32,-5.94 3.79,-10.09 0.09,-0.88 0.14,-1.74 0.14,-2.57 -0.04,-4.07 -0.93,-7.64 -2.98,-9.95 0.04,-0.54 0.06,-1.1 0.06,-1.68 v -0.44 c -0.09,-3.52 -0.85,-6.68 -2.13,-9.13 -1.06,-2.01 -2.58,-3.74 -4.69,-4.28 -0.39,-2.25 -1.08,-4.26 -2.05,-5.9 -1.19,-2 -3,-3.65 -5.45,-3.68 -2.45,0.03 -4.26,1.69 -5.45,3.68 -0.98,1.64 -1.67,3.65 -2.05,5.9 -2.11,0.53 -3.63,2.28 -4.69,4.29 -1.28,2.45 -2.03,5.61 -2.12,9.11 0,0.19 0,0.4 0,0.59 0,0.53 0.02,1.05 0.06,1.55 -2.06,2.31 -2.94,5.88 -2.99,9.96 0,0.49 0.05,1.01 0.08,1.52 -2.71,0.5 -4.95,2.29 -6.09,4.71 -2.06,-1.22 -4.45,-1.94 -7.02,-1.94 -1.3,0 -2.54,0.18 -3.72,0.52 -1.56,-3.41 -5,-5.78 -9,-5.78 -1.39,0 -2.7,0.3 -3.88,0.82 -1.69,-3.01 -4.9,-5.04 -8.6,-5.04 -4.71,0 -8.64,3.28 -9.65,7.68 -0.05,0 -0.11,0 -0.17,0 -1.54,0 -2.99,0.31 -4.35,0.82 v -6.73 c 1.91,-0.66 3.68,-1.76 5.25,-3.2 4.2,-0.89 6.65,-6.1 7.39,-12.25 0.09,-0.86 0.13,-1.7 0.13,-2.51 -0.03,-4.09 -0.98,-7.64 -3,-9.79 0.05,-0.59 0.07,-1.19 0.07,-1.82 0,-0.16 0,-0.32 0,-0.47 -0.09,-3.43 -0.84,-6.53 -2.07,-8.9 -1.08,-2.06 -2.63,-3.73 -4.7,-4.11 -0.82,-5.06 -3,-9.22 -7.05,-9.49 -4.05,0.27 -6.23,4.43 -7.06,9.49 -2.07,0.38 -3.62,2.05 -4.7,4.11 -1.23,2.36 -1.98,5.46 -2.06,8.9 0,0.16 0,0.33 0,0.5 0,0.62 0.03,1.22 0.07,1.8 -2.02,2.15 -2.96,5.69 -3,9.78 0,0.82 0.04,1.66 0.14,2.53 v 0 c 0.73,6.13 3.17,11.3 7.33,12.23 1.71,1.58 3.66,2.75 5.77,3.38 v 13.82 c -3.92,1.31 -6.75,4.98 -6.76,9.35 0,0.52 0.05,1.03 0.13,1.52 -1.28,0.62 -2.42,1.45 -3.41,2.43 -7.81,-0.19 -15.62,-0.37 -23.41,-0.47 V 150.3 c 1.99,-0.66 3.83,-1.78 5.45,-3.25 2.17,-0.44 3.79,-2.09 5.01,-4.09 1.38,-2.29 2.32,-5.25 2.66,-8.6 0.09,-0.87 0.13,-1.73 0.13,-2.57 -0.04,-4.08 -0.92,-7.64 -2.98,-9.95 0.04,-0.52 0.06,-1.06 0.06,-1.61 0,-0.18 0,-0.36 0,-0.52 -0.03,-1.27 -0.15,-2.48 -0.35,-3.62 0.92,-6.46 -1.83,-11.07 -4.68,-14.46 -0.11,-2.54 -0.73,-5.22 -2.06,-7.49 -1.41,-2.49 -4.02,-4.57 -7.44,-4.54 -3.6,-0.02 -6.03,2.51 -7.2,5.11 -1.1,2.36 -1.55,4.99 -1.65,7.22 -2.87,3.2 -4.67,7.92 -4.9,14.12 -0.2,1.15 -0.32,2.37 -0.35,3.63 0,0.15 0,0.31 0,0.48 0,0.58 0.02,1.13 0.06,1.67 -2.05,2.31 -2.94,5.88 -2.98,9.95 0,0.83 0.04,1.69 0.14,2.58 0.34,3.32 1.28,6.28 2.65,8.56 1.21,2 2.83,3.64 4.98,4.1 1.76,1.59 3.78,2.78 5.97,3.4 v 15.73 c -7.07,-0.07 -14.13,-0.11 -21.19,-0.11 -4.2,0 -8.39,0.01 -12.58,0.04 v -45.02 h 8.92 l -3.79,-13.08 h -18.32 l -3.91,13.08 h 9.07 v 45.1 c -8.76,0.1 -17.51,0.26 -26.26,0.47 V 85.27 h -41.74 v -12.5 h -46.46 v 12.5 H 245.9 v 86.31 c -2.41,0.18 -4.82,0.37 -7.24,0.56 V 89.21 h -60.62 v -12.5 h -46.47 v 12.5 h -58.2 v 103.36 c -3.57,0.57 -7.54,1.21 -11.77,1.88 V 146.8 h 9.38 l -5.5,-11.82 H 49.55 l -5.5,11.82 h 9.52 v 48.93 c -7.49,1.19 -15.46,2.45 -23.32,3.71 v -13.21 c 1.99,-0.65 3.83,-1.78 5.45,-3.24 2.17,-0.44 3.79,-2.09 5.01,-4.08 1.38,-2.29 2.32,-5.25 2.67,-8.6 0.09,-0.87 0.13,-1.73 0.13,-2.56 -0.04,-4.08 -0.92,-7.65 -2.98,-9.97 0.04,-0.53 0.06,-1.07 0.06,-1.62 0,-0.18 0,-0.35 0,-0.49 -0.09,-3.53 -0.85,-6.69 -2.13,-9.14 -1.06,-2.01 -2.58,-3.75 -4.69,-4.29 -0.39,-2.26 -1.08,-4.26 -2.05,-5.9 -1.19,-1.99 -3,-3.65 -5.45,-3.68 -2.45,0.03 -4.26,1.69 -5.46,3.68 -0.97,1.64 -1.67,3.64 -2.05,5.9 -2.11,0.53 -3.63,2.27 -4.69,4.28 -1.28,2.45 -2.03,5.61 -2.12,9.11 0,0.14 0,0.3 0,0.46 0,0.58 0.02,1.14 0.06,1.69 -2.05,2.31 -2.94,5.88 -2.98,9.95 0,0.84 0.04,1.7 0.14,2.59 0.35,3.31 1.28,6.27 2.65,8.55 1.21,2 2.83,3.64 4.99,4.1 1.76,1.59 3.78,2.78 5.96,3.4 v 14.28 c -8.25,1.33 -15.78,2.61 -22.49,3.76 v 3.98 c 7.13,-1.23 15.93,-2.7 24.78,-4.12 l 1.28,-0.21 2.29,-0.37 c 9.16,-1.48 18.56,-2.96 27.25,-4.34 l 1.66,-0.26 0.43,-56.23 h -7.71 l 1.83,-3.95 h 10.9 l 1.83,3.95 h -7.15 l -1.21,56.4 3.49,-0.55 c 5.77,-0.92 11.12,-1.77 15.71,-2.51 l 1.66,-0.27 V 93.15 h 157.26 v 83.25 l 2.13,-0.17 c 3.72,-0.3 7.44,-0.58 11.17,-0.86 l 1.83,-0.14 V 89.21 h 91.99 v 81.43 l 2.02,-0.05 c 10.05,-0.25 20.1,-0.44 30.17,-0.54 l 3.45,-0.02 -1.49,-52.93 h -7.73 l 1.55,-5.19 h 12.42 l 1.5,5.19 h -8.84 l 1.23,52.93 1.99,-0.02 c 4.84,-0.05 9.68,-0.06 14.54,-0.06 7.7,0 15.42,0.04 23.14,0.13 l 1.99,0.02 v 0 c 0,0 1.57,0 1.57,0 8.62,0.11 17.27,0.29 25.93,0.5 h 0.26 c 4.8,0.13 9.61,0.28 14.42,0.43 3.37,0.11 6.73,0.21 10.11,0.33 5.48,0.2 10.96,0.41 16.45,0.65 1.31,0.06 2.63,0.13 3.94,0.18 12.37,0.56 24.79,1.22 37.25,1.98 10.65,0.65 21.32,1.36 32.05,2.15 0.12,0 0.24,0.02 0.36,0.03 l 2.31,0.17 v 0 c 0.22,0 0.43,0.02 0.65,0.04 l 0.57,0.04 c 5.71,0.43 11.45,0.89 17.19,1.36 2.25,0.18 4.51,0.38 6.77,0.57 19.06,1.62 38.26,3.45 57.65,5.48 5.65,0.59 11.27,1.16 16.95,1.79 l 2.19,0.24 v -55.37 h -7.28 l 1.84,-3.94 h 10.9 l 1.83,3.94 h -7.15 v 55.39 l 1.75,0.19 c 8.57,0.96 17.17,1.96 25.82,3 l 2.2,0.26 v -27.74 h 77.04 v 37.91 l 1.69,0.24 c 11.45,1.64 22.97,3.33 34.58,5.09 l 0.77,0.4 -0.16,-53.74 h -5.63 l 1.83,-3.94 h 10.9 l 1.84,3.94 h -5.23 l 0.13,53.7 -0.38,0.26 c 5.72,0.87 11.44,1.74 17.2,2.64 2.75,0.43 5.45,0.83 8.17,1.25 l 2.27,0.35 v -81.54 h 197.89 v 106.04 l 1.79,0.17 c 9.71,0.88 19.4,1.7 29.03,2.47 l 2.13,0.17 v -79.3 h 110.87 v 69.89 c -3.02,1.33 -5.4,3.82 -6.59,6.92 -4.04,1.24 -6.96,5 -6.96,9.45 v 1.97 l 101.82,-0.49 v -26.27 h -36.69 v 16.11 c -1.88,-3.24 -5,-5.65 -8.73,-6.53 v -22.4 h 108.85 v 38.17 l 2.04,-0.07 c 36.11,-1.26 72.2,-4.67 108.49,-7.75 l 3.01,-0.08 -1.2,-53.99 h -7.28 l 1.83,-3.94 h 10.9 l 1.83,3.94 h -7.15 v 53.91 l 2.14,-0.19 c 13.79,-1.2 27.61,-2.53 41.47,-3.99 l 1.76,-0.19 v 0 c 0,0 1.81,-0.2 1.81,-0.2 8.71,-0.93 17.43,-1.92 26.18,-2.96 l 1.74,-0.21 v -96.73 h 91.99 v 83.92 l 2.28,-0.36 c 7.91,-1.27 15.85,-2.56 23.81,-3.91 l 1.65,-0.28 v 0 c 0,0 1.92,-0.34 1.92,-0.34 5.86,-1 11.36,-1.95 17.26,-2.99 v -3.97 z M 27.68,182.78 c -0.16,0.03 -0.32,0.05 -0.48,0.08 l 0.25,1.84 h -0.16 l -0.22,-1.83 c -0.25,0.03 -0.53,0.04 -0.83,0.05 v 0 c 0,0 0,0 0,0 v 0.1 c 0,0 -1.36,-0.2 -1.36,-0.2 -2.1,-0.31 -4.12,-1.36 -5.95,-3.14 l -0.53,-0.52 -0.73,-0.04 c -0.49,0.03 -1.61,-0.61 -2.61,-2.31 -1,-1.65 -1.82,-4.12 -2.11,-6.94 -0.08,-0.75 -0.12,-1.47 -0.12,-2.18 -0.05,-3.83 1.24,-6.89 2.32,-7.67 l 0.82,-0.67 -0.1,-1.05 c -0.07,-0.75 -0.12,-1.49 -0.12,-2.25 0,-0.11 0,-0.23 0,-0.36 0.06,-2.97 0.75,-5.63 1.67,-7.38 0.85,-1.63 1.79,-2.26 2.3,-2.34 0.08,0.02 0.18,0.05 0.33,0.08 l 2.06,0.32 0.2,-2.08 c 0.24,-2.47 0.92,-4.61 1.74,-5.97 0.85,-1.4 1.66,-1.79 2.07,-1.76 0.41,-0.03 1.22,0.36 2.07,1.76 0.82,1.36 1.5,3.49 1.74,5.97 l 0.2,2.08 2.07,-0.33 c 0.14,-0.03 0.24,-0.05 0.32,-0.07 0.5,0.06 1.45,0.69 2.3,2.34 0.93,1.75 1.61,4.4 1.68,7.37 v 0.43 c 0,0.73 -0.04,1.46 -0.11,2.17 l -0.11,1.05 0.82,0.67 c 1.09,0.78 2.38,3.84 2.33,7.69 0,0.7 -0.04,1.42 -0.11,2.16 -0.28,2.83 -1.11,5.31 -2.12,6.96 -1.01,1.7 -2.12,2.32 -2.6,2.29 l -0.75,0.03 -0.54,0.53 c -1.75,1.69 -3.66,2.73 -5.64,3.09 z M 174.95,89.21 H 134.4 v -9.55 h 40.55 z m 125.99,-3.94 h -40.55 v -9.55 h 40.55 z m 117.88,61.54 c -0.22,0.04 -0.43,0.07 -0.63,0.09 l 0.23,1.84 h -0.04 l -0.21,-1.83 c -0.26,0.03 -0.55,0.04 -0.85,0.05 v 0 c 0,0 0,0 0,0 v 0.1 c 0,0 -1.36,-0.2 -1.36,-0.2 -2.1,-0.3 -4.12,-1.36 -5.95,-3.14 l -0.53,-0.51 -0.73,-0.04 c -0.49,0.02 -1.61,-0.62 -2.61,-2.31 -1,-1.65 -1.82,-4.12 -2.11,-6.94 -0.08,-0.75 -0.12,-1.47 -0.12,-2.17 -0.05,-3.84 1.24,-6.89 2.32,-7.67 l 0.82,-0.67 -0.1,-1.05 c -0.07,-0.75 -0.12,-1.49 -0.12,-2.23 0,-0.12 0,-0.24 0,-0.38 0.03,-1.12 0.14,-2.19 0.31,-3.18 l 0.03,-0.13 v -0.14 c 0.22,-5.97 1.97,-9.84 4.33,-12.2 l 0.58,-0.58 v -0.81 c 0,-1.89 0.4,-4.48 1.29,-6.34 0.96,-1.91 1.98,-2.83 3.64,-2.86 1.83,0.03 3,0.91 4.05,2.6 1,1.68 1.55,4.1 1.54,6.27 v 0.82 l 0.58,0.58 c 2.05,1.94 4.14,7.65 4.08,12.46 v 0.17 l 0.03,0.18 c 0.18,1 0.29,2.06 0.32,3.17 0,0.14 0,0.3 0,0.44 0,0.73 -0.05,1.44 -0.12,2.16 l -0.1,1.05 0.82,0.67 c 1.09,0.77 2.37,3.83 2.32,7.68 0,0.7 -0.04,1.43 -0.11,2.17 -0.28,2.83 -1.11,5.31 -2.11,6.95 -1.01,1.7 -2.12,2.32 -2.61,2.29 l -0.75,0.03 -0.54,0.52 c -1.73,1.67 -3.62,2.71 -5.58,3.08 z m 102.01,-11.68 0.83,-0.67 -0.11,-1.06 c -0.07,-0.71 -0.12,-1.4 -0.12,-2.1 0,-0.17 0,-0.32 0,-0.45 0.07,-3.01 0.75,-5.67 1.67,-7.42 0.86,-1.65 1.8,-2.27 2.31,-2.34 0.07,0.02 0.17,0.04 0.29,0.07 l 2.09,0.36 0.2,-2.11 c 0.23,-2.47 0.92,-4.61 1.74,-5.97 0.85,-1.41 1.66,-1.8 2.07,-1.77 0.41,-0.03 1.22,0.36 2.07,1.77 0.83,1.36 1.5,3.5 1.74,5.97 l 0.2,2.1 2.09,-0.35 c 0.13,-0.02 0.23,-0.05 0.31,-0.07 0.51,0.07 1.45,0.71 2.29,2.34 0.93,1.75 1.61,4.41 1.68,7.37 0,0.11 0,0.23 0,0.36 0,0.76 -0.05,1.5 -0.12,2.25 l -0.1,1.04 0.82,0.67 c 1.09,0.78 2.37,3.84 2.32,7.67 0,0.7 -0.04,1.42 -0.11,2.18 -0.33,3.71 -1.73,6.75 -3.04,8.18 -0.01,0 -0.02,0 -0.03,-0.02 -0.31,-0.15 -0.63,-0.29 -0.95,-0.41 -0.15,-0.06 -0.3,-0.11 -0.45,-0.17 -0.27,-0.09 -0.55,-0.18 -0.83,-0.25 -0.25,-0.07 -0.51,-0.12 -0.76,-0.17 -0.21,-0.04 -0.42,-0.09 -0.64,-0.12 -0.49,-0.07 -1,-0.11 -1.51,-0.11 v 0 c -0.98,0 -1.94,0.13 -2.85,0.36 -0.5,-1 -1.2,-1.88 -2.03,-2.6 -1.48,-1.28 -3.4,-2.06 -5.51,-2.06 -0.64,0 -1.25,0.09 -1.84,0.23 -0.41,0.09 -0.81,0.2 -1.19,0.34 -0.25,-0.41 -0.55,-0.79 -0.86,-1.14 -0.05,-0.05 -0.09,-0.1 -0.14,-0.15 -1.01,-1.1 -2.31,-1.94 -3.79,-2.37 -0.05,-0.59 -0.07,-1.17 -0.07,-1.72 -0.05,-3.84 1.24,-6.9 2.33,-7.68 z m -70.21,-1.39 -0.4,-0.38 -0.55,-0.03 c -0.75,0 -1.96,-0.79 -3.01,-2.55 -1.04,-1.73 -1.88,-4.26 -2.17,-7.14 l -1.47,0.15 1.47,-0.16 c -0.08,-0.76 -0.12,-1.49 -0.12,-2.21 -0.04,-3.93 1.22,-7.09 2.5,-8.05 l 0.61,-0.5 -0.07,-0.78 c -0.07,-0.74 -0.12,-1.48 -0.12,-2.24 0,-0.14 0,-0.28 0,-0.42 0.07,-3.04 0.76,-5.76 1.72,-7.6 0.94,-1.81 2.05,-2.58 2.79,-2.6 0.06,0.02 0.16,0.05 0.31,0.08 l 1.58,0.29 0.16,-1.6 c 0.25,-2.53 0.94,-4.73 1.81,-6.18 0.89,-1.48 1.83,-2.03 2.49,-2.01 0.66,-0.02 1.6,0.53 2.49,2.01 0.87,1.45 1.57,3.64 1.81,6.18 l 0.16,1.6 1.59,-0.29 c 0.15,-0.03 0.25,-0.06 0.31,-0.08 0.74,0.03 1.84,0.8 2.78,2.61 0.97,1.84 1.66,4.56 1.73,7.59 0,0.13 0,0.27 0,0.41 0,0.76 -0.05,1.51 -0.12,2.25 l -0.08,0.79 0.62,0.5 c 1.28,0.96 2.54,4.14 2.51,8.07 0,0.71 -0.04,1.45 -0.12,2.21 -0.29,2.89 -1.13,5.44 -2.18,7.16 -1.05,1.76 -2.26,2.54 -3.01,2.53 l -0.57,0.02 -0.4,0.39 c -1.11,1.07 -2.3,1.9 -3.53,2.46 v -0.16 l -2.31,0.41 c -0.57,0.1 -1.04,0.17 -1.45,0.17 -0.41,0 -0.88,-0.07 -1.46,-0.16 l -2.29,-0.38 v 0.31 c -1.42,-0.57 -2.77,-1.44 -4.04,-2.65 z m 74.18,36.33 c -10.32,-0.62 -20.61,-1.16 -30.86,-1.64 -2.08,-0.1 -4.17,-0.2 -6.25,-0.29 -4.9,-0.21 -9.81,-0.42 -14.7,-0.6 -4.36,-0.16 -8.72,-0.3 -13.07,-0.44 -2.47,-0.08 -4.96,-0.18 -7.43,-0.25 l 0.45,-0.14 -0.72,-1.96 c -0.25,-0.68 -0.39,-1.35 -0.39,-2.04 0,-2.93 2.13,-5.36 4.93,-5.85 l 1.22,-0.22 0.34,-1.18 c 0.04,-0.15 0.11,-0.29 0.16,-0.44 v 0 c 0.42,-1.23 1.09,-2.32 1.96,-3.22 0.05,-0.05 0.11,-0.09 0.16,-0.14 0.25,-0.25 0.51,-0.48 0.78,-0.7 l 0.03,-0.02 c 1.42,-1.08 3.18,-1.72 5.1,-1.71 0.49,0 0.99,0.06 1.53,0.16 l 2.31,0.43 0.02,-2.35 c 0.03,-3.27 2.68,-5.91 5.95,-5.91 2.76,0 5.06,1.89 5.73,4.45 l 0.76,2.88 2.36,-1.83 c 1.04,-0.8 2.28,-1.28 3.64,-1.28 2.88,0 5.29,2.06 5.84,4.78 l 0.49,2.43 2.26,-1.03 c 1.29,-0.59 2.67,-0.92 4.14,-0.92 2.65,0 5.03,1.05 6.81,2.74 l 0.02,0.02 c 0.2,0.19 0.38,0.4 0.57,0.61 0.12,0.13 0.24,0.26 0.35,0.4 0.15,0.19 0.29,0.38 0.43,0.58 0.15,0.21 0.29,0.43 0.42,0.66 0.09,0.15 0.18,0.3 0.26,0.46 0.21,0.41 0.4,0.83 0.56,1.27 l 0.62,1.76 v 0 l 1.8,-0.52 c 0.59,-0.17 1.14,-0.28 1.66,-0.28 0.3,0 0.59,0.05 0.87,0.09 2.23,0.33 4.04,1.89 4.75,3.97 0.2,0.6 0.34,1.23 0.34,1.9 0,0 0,0.06 0,0.11 0,0.05 -0.01,0.13 -0.03,0.23 -0.01,0.09 -0.02,0.16 -0.04,0.29 l -0.16,1.57 1.2,0.4 0.3,0.1 c 0.51,0.17 1,0.4 1.46,0.66 0.12,0.07 0.23,0.13 0.34,0.2 0.39,0.24 0.77,0.52 1.12,0.82 0.05,0.05 0.11,0.09 0.17,0.13 0.31,0.28 0.58,0.61 0.84,0.94 -0.46,-0.03 -0.92,-0.05 -1.38,-0.08 z m 31.48,2.08 c -8.46,-0.61 -16.89,-1.19 -25.3,-1.71 0,-0.01 -0.02,-0.03 -0.02,-0.04 -0.27,-0.61 -0.6,-1.19 -0.96,-1.74 -0.05,-0.08 -0.09,-0.15 -0.15,-0.23 -0.37,-0.53 -0.78,-1.02 -1.22,-1.49 -0.09,-0.09 -0.17,-0.18 -0.26,-0.27 -0.45,-0.45 -0.93,-0.87 -1.45,-1.24 -0.08,-0.06 -0.17,-0.12 -0.26,-0.18 -0.55,-0.38 -1.13,-0.73 -1.75,-1.03 -0.25,-5.24 -4.58,-9.42 -9.89,-9.43 -0.19,0 -0.37,0.02 -0.55,0.03 -0.16,0.01 -0.32,0 -0.48,0.03 -0.58,-1.17 -1.32,-2.24 -2.19,-3.2 0.44,-2.02 2.23,-3.53 4.37,-3.54 l 0.46,0.04 c 0.94,0.09 1.79,0.47 2.47,1.05 0,0 0.01,0.01 0.02,0.02 0.33,0.28 0.61,0.61 0.84,0.98 0.02,0.03 0.03,0.06 0.05,0.08 0.22,0.36 0.4,0.76 0.51,1.18 0,0 0,0 0,0.01 l 0.5,1.88 0.26,1 2.35,-1.83 c 0.8,-0.61 1.72,-0.97 2.75,-0.97 0.07,0 0.13,0.02 0.2,0.02 2.09,0.09 3.81,1.61 4.21,3.59 l 0.34,1.72 0.14,0.71 2.27,-1.02 c 0.45,-0.2 0.92,-0.35 1.4,-0.47 0.12,-0.03 0.24,-0.06 0.36,-0.08 0.48,-0.1 0.98,-0.17 1.48,-0.17 0.01,0 0.02,0 0.04,0 0.39,0 0.77,0.03 1.14,0.09 0.37,0.06 0.73,0.14 1.09,0.25 0,0 0,0 0,0 0.72,0.23 1.39,0.56 2.01,0.97 l 0.38,0.26 c 1.22,0.93 2.16,2.2 2.68,3.68 l 0.61,1.76 1.79,-0.51 c 0.47,-0.14 0.87,-0.21 1.26,-0.21 2.49,0 4.51,2.02 4.51,4.51 0,0 -0.02,0.11 -0.06,0.46 l -0.18,1.58 1.51,0.51 c 1.56,0.52 2.87,1.6 3.67,3 -0.33,-0.02 -0.65,-0.04 -0.98,-0.07 z m 10.81,-13.21 -0.73,-0.04 c -0.49,0.03 -1.61,-0.61 -2.61,-2.31 -0.99,-1.65 -1.82,-4.12 -2.1,-6.94 -0.08,-0.74 -0.12,-1.48 -0.12,-2.18 -0.05,-3.84 1.23,-6.89 2.32,-7.67 l 0.82,-0.67 -0.1,-1.04 c -0.07,-0.75 -0.12,-1.48 -0.12,-2.22 0,-0.14 0,-0.26 0,-0.34 0.07,-3.01 0.75,-5.67 1.68,-7.42 0.86,-1.65 1.8,-2.28 2.31,-2.33 0.07,0.02 0.16,0.04 0.28,0.07 l 2.09,0.36 0.21,-2.11 c 0.23,-2.47 0.92,-4.61 1.74,-5.97 0.85,-1.41 1.66,-1.8 2.08,-1.77 0.41,-0.03 1.22,0.36 2.07,1.76 0.82,1.36 1.5,3.5 1.74,5.97 l 0.2,2.11 2.09,-0.37 c 0.12,-0.02 0.22,-0.04 0.29,-0.06 0.5,0.06 1.45,0.69 2.3,2.34 0.92,1.75 1.61,4.41 1.68,7.38 0,0.13 0,0.27 0,0.42 0,0.73 -0.05,1.45 -0.12,2.19 l -0.1,1.05 0.82,0.67 c 1,0.71 2.15,3.33 2.31,6.71 -0.93,0.45 -1.77,1.05 -2.51,1.76 -0.07,0.07 -0.15,0.14 -0.22,0.21 -0.2,0.21 -0.4,0.42 -0.58,0.64 -0.14,0.17 -0.27,0.35 -0.4,0.53 -0.19,0.27 -0.37,0.53 -0.53,0.82 -0.16,0.28 -0.31,0.56 -0.44,0.85 -0.07,0.16 -0.14,0.32 -0.2,0.49 -0.16,0.41 -0.3,0.83 -0.4,1.26 0,0.03 -0.02,0.06 -0.03,0.09 -0.06,0 -0.12,0 -0.17,0 -3.32,0 -6.32,1.3 -8.54,3.41 -0.2,0.18 -0.36,0.4 -0.54,0.6 -0.23,0.25 -0.48,0.49 -0.69,0.76 -0.76,0.97 -1.38,2.04 -1.83,3.21 -0.07,0.02 -0.14,0.06 -0.21,0.08 -0.19,0.07 -0.38,0.13 -0.57,0.21 -0.91,-0.51 -1.79,-1.17 -2.62,-1.98 l -0.53,-0.51 z m 22.19,15.81 c -2.3,-0.2 -4.6,-0.38 -6.89,-0.57 -4.63,-0.38 -9.29,-0.79 -13.91,-1.15 l -0.14,-0.38 c -0.25,-0.68 -0.39,-1.36 -0.39,-2.04 0,-2.15 1.16,-4.02 2.87,-5.07 l 0.31,-0.16 c 0.29,-0.15 0.57,-0.28 0.87,-0.39 0.04,-0.01 0.09,-0.02 0.13,-0.03 0.25,-0.08 0.5,-0.16 0.76,-0.2 l 1.22,-0.22 0.34,-1.18 c 1.03,-3.6 4.29,-6.23 8.19,-6.23 0.5,0 1,0.06 1.54,0.16 l 0.99,0.18 1.32,0.24 v 0 c 0,0 0,0 0,0 v -0.46 c 0,0 0.02,-1.89 0.02,-1.89 0,-0.06 0.01,-0.13 0.02,-0.19 0.01,-0.3 0.04,-0.6 0.1,-0.89 0.03,-0.15 0.07,-0.29 0.11,-0.43 0.05,-0.19 0.11,-0.39 0.18,-0.57 0.07,-0.17 0.14,-0.33 0.22,-0.49 0.06,-0.13 0.13,-0.25 0.2,-0.37 0.11,-0.19 0.23,-0.39 0.36,-0.56 0.02,-0.02 0.03,-0.04 0.05,-0.06 0.74,-0.96 1.77,-1.68 2.96,-2.06 l 0.6,-0.19 c 0.37,-0.07 0.76,-0.12 1.15,-0.12 2.76,0 5.06,1.89 5.73,4.45 l 0.75,2.88 2.36,-1.82 c 1.04,-0.81 2.28,-1.28 3.64,-1.28 2.88,0 5.29,2.06 5.84,4.78 l 0.49,2.43 2.26,-1.03 c 1.29,-0.59 2.67,-0.92 4.14,-0.93 4.36,0 8.03,2.82 9.41,6.73 l 0.62,1.77 1.8,-0.53 c 0.58,-0.17 1.13,-0.27 1.65,-0.27 3.29,0 5.95,2.67 5.96,5.96 0,0.03 -0.02,0.22 -0.07,0.62 l -0.17,1.58 1.51,0.5 c 2.29,0.76 4.15,2.45 5.12,4.62 -18.21,-1.9 -36.28,-3.63 -54.2,-5.15 z M 694.16,133.3 h 77.03 v 17.4 h -77.03 z m 4.42,25.56 h -9.21 l 3.6,-5.21 h 5.61 z m 10.73,0 h -7.77 v -5.21 h 7.77 z m 10.72,0 h -7.77 v -5.21 h 7.77 z m 10.73,0 h -7.77 v -5.21 h 7.77 z m 10.72,0 h -7.77 v -5.21 h 7.77 z m 10.73,0 h -7.77 v -5.21 h 7.77 z m 10.72,0 h -7.77 v -5.21 h 7.77 z m 2.95,0 v -5.21 h 6.51 l 3.6,5.21 z m 251.6,-34.43 h -80.59 v -9.55 h 80.59 z m 103.79,29.56 h -40.55 v -9.55 h 40.55 z m 130.47,68.36 h 13.49 v 19.87 h -13.49 z m -15.33,0 h 12.37 v 19.87 h -5.21 c -0.09,-0.39 -0.23,-0.77 -0.38,-1.13 -0.04,-0.09 -0.08,-0.18 -0.12,-0.27 -0.14,-0.31 -0.3,-0.6 -0.48,-0.88 -0.03,-0.04 -0.05,-0.09 -0.08,-0.13 -0.22,-0.33 -0.47,-0.62 -0.74,-0.9 -0.03,-0.03 -0.06,-0.06 -0.09,-0.09 -0.34,-0.34 -0.7,-0.64 -1.1,-0.9 -0.12,-0.08 -0.26,-0.13 -0.39,-0.2 -0.25,-0.15 -0.51,-0.28 -0.78,-0.4 -0.2,-0.09 -0.4,-0.18 -0.6,-0.26 -0.29,-0.11 -0.59,-0.19 -0.89,-0.28 -0.4,-0.11 -0.81,-0.2 -1.23,-0.27 -0.1,-0.02 -0.19,-0.04 -0.28,-0.05 z m -6.53,16.89 0.61,1.78 1.81,-0.53 c 0.57,-0.17 1.08,-0.26 1.57,-0.27 l 0.5,0.02 c 0.45,0.01 0.88,0.04 1.28,0.1 0.03,0 0.05,0 0.08,0.01 0.38,0.05 0.73,0.12 1.06,0.21 0.03,0 0.06,0.02 0.1,0.03 0.31,0.08 0.59,0.18 0.85,0.29 0.07,0.03 0.13,0.07 0.2,0.1 0.2,0.1 0.39,0.19 0.55,0.31 0.07,0.05 0.13,0.11 0.19,0.16 0.12,0.1 0.24,0.2 0.35,0.31 0.06,0.06 0.11,0.14 0.16,0.21 0.07,0.08 0.13,0.17 0.18,0.27 l -68.23,0.41 c 0.7,-2.01 2.92,-3.92 5.03,-4.29 l 1.22,-0.22 0.33,-1.19 c 0.79,-2.82 2.72,-6.78 8.1,-6.72 0.52,0 1.05,0.07 1.61,0.17 l 1.73,0.32 v -1.76 c 0.04,-3.55 2.9,-6.41 6.4,-6.4 2.95,0 5.42,2.04 6.15,4.82 l 0.56,2.18 1.77,-1.39 c 1.1,-0.86 2.43,-1.38 3.89,-1.38 3.09,0 5.66,2.21 6.26,5.17 l 0.37,1.84 1.71,-0.78 c 1.1,-0.5 11.61,-3.13 13.61,6.25 z m -1.12,-36.6 h -8.98 v 0.5 h -1.15 l 2.31,-5.21 h 7.82 z m 10.72,0 h -7.77 v -4.71 h 7.77 z m 10.73,0 h -7.77 v -4.71 h 7.77 z m 9.75,0 h -6.79 v -4.71 h 6.79 z m 10.73,0 h -7.77 v -4.71 h 7.77 z m 10.73,0 h -7.77 v -4.71 h 7.77 z m 10.72,0 h -7.77 v -4.71 h 7.77 z m 10.73,0 h -7.77 v -4.71 h 7.77 z m 10.72,0 h -7.77 v -4.71 h 7.77 z m 10.73,0 h -7.77 v -4.71 h 7.77 z m 2.96,0 v -4.71 h 8.76 l 2.93,5.2 h -2.44 c 0,0 0,-0.49 0,-0.49 z m 92.1,31.45 -0.08,0.76 c -25.16,1.87 -50.26,3.29 -75.34,4.28 1.15,-1.67 2.83,-2.96 4.83,-3.55 l 1.5,-0.45 -0.54,-1.47 c -0.26,-0.73 -0.42,-1.45 -0.42,-2.21 0,-3.18 2.31,-5.81 5.34,-6.34 l 0.91,-0.16 0.26,-0.89 c 1.09,-3.8 4.53,-6.59 8.66,-6.59 0.53,0 1.06,0.06 1.62,0.16 l 1.73,0.32 v -1.76 c 0.04,-3.54 2.92,-6.41 6.46,-6.4 2.99,0 5.48,2.04 6.21,4.82 l 0.56,2.16 1.77,-1.36 c 1.13,-0.87 2.47,-1.39 3.94,-1.39 3.13,0 5.73,2.23 6.33,5.17 l 0.37,1.83 1.69,-0.77 c 1.35,-0.61 2.8,-0.96 4.34,-0.97 4.58,0 8.44,2.96 9.88,7.06 l 0.46,1.32 1.35,-0.39 c 0.61,-0.18 1.21,-0.29 1.79,-0.29 3.56,0 6.44,2.89 6.45,6.46 0,0.09 -0.03,0.31 -0.08,0.67 z m 72.46,-19.3 -0.96,0.09 v -0.02 c -0.3,0.02 -0.59,0.03 -0.89,0.03 v 0.04 l -1.43,-0.06 c -4.07,-0.19 -7.86,-1.43 -11.09,-3.45 l -0.45,-0.28 -0.53,-0.02 c -3.4,-0.02 -7.42,-3.91 -8.25,-9.35 -0.12,-0.71 -0.17,-1.4 -0.17,-2.06 0,-3.65 1.61,-6.41 3.66,-7.46 l 1.24,-0.66 -0.22,-1.39 c -0.11,-0.69 -0.17,-1.37 -0.17,-2.06 0,-0.13 0,-0.26 0,-0.39 0.2,-5.68 3.85,-9.76 7.28,-9.76 0.05,0 0.09,0 0.14,0 h 0.03 c 0,0 0.1,-0.33 0.1,-0.33 l -0.07,0.34 v 0 c 0.06,0.02 0.22,0.06 0.46,0.08 l 1.88,0.21 0.29,-1.88 c 0.74,-4.78 3.87,-7.91 6.95,-7.84 3.08,-0.07 6.22,3.06 6.95,7.84 l 0.28,1.87 1.89,-0.21 c 0.25,-0.03 0.4,-0.07 0.46,-0.08 h 0.14 c 3.44,-0.06 7.13,4.05 7.34,9.73 0,0.11 0,0.25 0,0.37 0,0.71 -0.06,1.4 -0.17,2.11 l -0.21,1.38 1.24,0.66 c 2.04,1.05 3.65,3.81 3.65,7.45 0,0.67 -0.05,1.36 -0.17,2.07 -0.83,5.47 -4.88,9.37 -8.28,9.35 h -0.54 c 0,0 -0.46,0.3 -0.46,0.3 -2.93,1.84 -6.29,3.02 -9.93,3.37 z m 39.01,-86.41 v -9.55 h 40.55 v 9.55 z m 108.71,68.79 v 0.1 c 0,0 -1.36,-0.2 -1.36,-0.2 -2.1,-0.31 -4.12,-1.36 -5.95,-3.13 l -0.53,-0.51 -0.74,-0.04 c -0.49,0.03 -1.61,-0.61 -2.61,-2.31 -1,-1.65 -1.82,-4.12 -2.11,-6.94 -0.08,-0.74 -0.11,-1.47 -0.11,-2.17 -0.05,-3.84 1.24,-6.89 2.32,-7.67 l 0.82,-0.67 -0.11,-1.05 c -0.07,-0.73 -0.12,-1.46 -0.12,-2.2 0,-0.1 0,-0.23 0,-0.39 0.07,-2.97 0.75,-5.63 1.67,-7.38 0.86,-1.64 1.8,-2.27 2.31,-2.34 0.07,0.02 0.17,0.04 0.29,0.07 l 2.09,0.36 0.2,-2.11 c 0.24,-2.47 0.92,-4.61 1.74,-5.97 0.85,-1.4 1.66,-1.79 2.07,-1.77 0.41,-0.03 1.22,0.36 2.07,1.77 0.82,1.36 1.5,3.5 1.74,5.97 l 0.2,2.11 2.09,-0.36 c 0.12,-0.02 0.21,-0.05 0.28,-0.06 h 0.03 c 0.51,0.08 1.45,0.71 2.29,2.34 0.93,1.75 1.61,4.4 1.67,7.37 0,0.12 0,0.27 0,0.41 0,0.74 -0.05,1.47 -0.12,2.2 l -0.1,1.05 0.82,0.67 c 1.09,0.78 2.37,3.84 2.32,7.68 0,0.71 -0.03,1.43 -0.11,2.17 -0.28,2.83 -1.11,5.31 -2.11,6.96 -1.01,1.7 -2.12,2.32 -2.61,2.29 l -0.75,0.03 -0.54,0.52 c -2.17,2.09 -4.57,3.19 -7.08,3.23 z"
       id="path10" />
    <rect
       class="cls-1"
       x="415.70001"
       y="145.77"
       width="3.3299999"
       height="20.790001"
       id="rect10" />
    <polygon
       class="cls-1"
       points="456.65,129.16 460.11,129.16 460.11,147.42 456.65,152.88 "
       id="polygon10" />
  </g>
  <g
     id="base"
     transform="translate(0,-30.53)">
    <path
       class="cls-2"
       d="M 0,265.28 V 204.4 c 83.32,-5.65 94.14,-17.36 199.48,-25.92 36.66,-2.98 97.65,-6.52 155.93,-8.34 145.68,-4.55 269.76,9.6 396.8,27.1 171.77,23.67 316.97,43.8 403.2,45.45 48.49,0.93 87.44,2.92 121.89,2.96 59.94,0.07 104,-3.64 159.22,-8.93 103.01,-9.88 191.83,-25.44 222.56,-32.36 v 60.91 H 0 Z"
       id="path11" />
  </g>
</svg>
