<svg enable-background="new 0 0 111.479 100.069" height="100.069" viewBox="0 0 111.479 100.069" width="111.479" xmlns="http://www.w3.org/2000/svg"><g fill="#00558b"><path d="m8.104 59.991v5.414c0 1.357-1.027 2.438-2.711 2.438-1.291 0-2.626-.731-2.626-2.646v-5.03l1.444-.176v4.998c0 .657.121 1.466 1.247 1.466 1.006 0 1.204-.689 1.204-1.584v-4.704z"/><path d="m12.548 67.844v-7.853h.033l4.483 4.539v-4.363l1.445-.176v7.853h-.033l-4.485-4.484v4.31z"/><path d="m23.02 67.757v-7.59l1.443-.176v7.679z"/><path d="m31.249 64.705 1.838-4.714 1.455.176-3.282 7.677h-.021l-3.194-7.677 1.541-.176z"/><path d="m38.079 67.67v-7.503h4.035l.241 1.387h-2.833v1.501h2.276v1.387h-2.276v1.839h3.184l-.46 1.389z"/><path d="m46.615 60.167h2.406c1.443 0 2.581.699 2.581 2.307 0 .93-.558 1.685-1.444 1.969l2.045 3.02-1.575.382-2.549-3.925h-.022v3.751l-1.443.087v-7.591zm1.443 3.4h.526c.711 0 1.4-.207 1.4-1.052 0-.861-.657-.962-1.367-.962h-.559z"/><path d="m56.312 65.646c.371.415.634.809 1.443.809.516 0 .962-.404.962-.863 0-1.487-3.269-.646-3.269-3.304 0-1.433 1.072-2.297 2.559-2.297.745 0 1.652.414 2.1 1.017l-.896 1.051c-.351-.372-.886-.677-1.291-.677-.505 0-.962.217-.962.906 0 1.279 3.27.359 3.27 3.313 0 1.367-1.138 2.242-2.548 2.242-.94 0-1.728-.394-2.362-1.17z"/><path d="m64.372 67.757v-7.59l1.444-.176v7.679z"/><path d="m69.834 60.167h5.008v1.387h-1.869v6.116l-1.446.087v-6.203h-2.044z"/><path d="m78.06 60.385 1.402-.394 1.736 3.457 1.477-3.457 1.422.394-3.347 7.459-1.487-.305 1.224-2.56z"/><path d="m97.124 59.991c2.166 0 3.961 1.751 3.961 3.928 0 2.175-1.795 3.925-3.961 3.925s-3.96-1.75-3.96-3.925c0-2.177 1.794-3.928 3.96-3.928m0 6.376c1.334 0 2.45-1.115 2.45-2.448 0-1.337-1.116-2.45-2.45-2.45s-2.449 1.113-2.449 2.45c0 1.333 1.115 2.448 2.449 2.448"/><path d="m105.157 60.167h3.863l.316 1.387h-2.733v1.719h2.022v1.388h-2.022v3.009l-1.446.174z"/><path d="m2.249 86.991 8.386-16.939h.048l8.702 16.939-3.427.511-1.993-4.229h-6.393l-1.945 4.229zm6.586-6.537h3.744l-1.921-4.521z"/><path d="m24.241 87.114v-16.674l3.207-.388v13.975h6.076l-.801 3.087z"/><path d="m37.205 86.991 8.386-16.939h.049l8.7 16.939-3.425.511-1.995-4.229h-6.392l-1.945 4.229zm6.587-6.537h3.743l-1.92-4.521z"/><path d="m60.443 82.617c.826.925 1.409 1.798 3.208 1.798 1.143 0 2.139-.897 2.139-1.919 0-3.306-7.267-1.434-7.267-7.34 0-3.186 2.381-5.104 5.687-5.104 1.655 0 3.671.924 4.669 2.262l-1.994 2.332c-.778-.827-1.97-1.507-2.868-1.507-1.12 0-2.141.485-2.141 2.018 0 2.844 7.268.803 7.268 7.365 0 3.037-2.526 4.98-5.662 4.98-2.09 0-3.84-.873-5.25-2.599z"/><path d="m84.368 70.052 3.086 1.263-5.395 6.927 5.59 8.068-3.304 1.192-5.834-8.992h-.049v8.604l-3.208.195v-16.869l3.208-.388v7.729h.049z"/><path d="m91.383 86.991 8.386-16.939h.049l8.702 16.939-3.429.511-1.992-4.229h-6.393l-1.944 4.229zm6.587-6.537h3.744l-1.922-4.521z"/><path d="m2.489 91.538h4.29l.352 1.544h-3.038v1.906h2.248v1.544h-2.248v3.343l-1.604.194z"/><path d="m12.32 99.816 4.193-8.474h.024l4.351 8.474-1.714.253-.997-2.116h-3.196l-.972 2.116zm3.294-3.272h1.873l-.961-2.26z"/><path d="m27.594 99.972v-8.434l1.604-.195v8.532z"/><path d="m36.958 91.538h2.674c1.604 0 2.867.778 2.867 2.564 0 1.031-.62 1.872-1.604 2.187l2.272 3.355-1.749.425-2.833-4.363h-.024v4.169l-1.604.097v-8.434zm1.605 3.779h.583c.791 0 1.556-.23 1.556-1.167 0-.961-.729-1.068-1.52-1.068h-.62v2.235z"/><path d="m49.927 91.538h2.868c1.993 0 2.43 1.495 2.43 2.284 0 .765-.425 1.397-1.117 1.714.912.316 1.543 1.032 1.543 2.043 0 1.262-.983 2.296-2.576 2.296h-3.147v-8.337zm1.604 3.415h.887c.633 0 1.07-.4 1.07-.937 0-.535-.437-.935-1.07-.935h-.887zm0 3.378h.839c1.093 0 1.483-.329 1.483-1.045 0-.718-.39-1.045-1.483-1.045h-.839z"/><path d="m61.668 99.816 4.192-8.474h.026l4.351 8.474-1.713.253-.998-2.116h-3.196l-.973 2.116zm3.295-3.272h1.871l-.961-2.26z"/><path d="m76.869 100.069v-8.726h.038l4.982 5.045v-4.85l1.603-.195v8.726h-.035l-4.983-4.982v4.788z"/><path d="m95.753 91.343 1.542.633-2.696 3.463 2.794 4.035-1.651.595-2.919-4.498h-.023v4.304l-1.606.097v-8.434l1.606-.195v3.865h.023z"/><path d="m104.722 97.627c.413.461.703.898 1.604.898.572 0 1.068-.45 1.068-.959 0-1.653-3.633-.72-3.633-3.672 0-1.59 1.191-2.552 2.845-2.552.825 0 1.834.462 2.332 1.131l-.997 1.166c-.389-.413-.983-.753-1.435-.753-.559 0-1.068.243-1.068 1.008 0 1.423 3.634.402 3.634 3.685 0 1.518-1.265 2.49-2.831 2.49-1.047 0-1.922-.438-2.625-1.302z"/><path d="m91.592 54.742h-9.302l-8.908-28.707.001-25.373h37.488v11.989h-19.144v4.74h14.67v12.103h-14.805z"/></g><path d="m91.592 54.742h-9.302l-8.908-28.707.001-25.373h37.488v11.989h-19.144v4.74h14.67v12.103h-14.805z" fill="none" stroke="#fff" stroke-miterlimit="3.864" stroke-width="1.2153"/><path d="m17.599.607.002 35.71s-.181 2.375 1.809 2.377c2.215.002 2.008-2.366 2.008-2.366l-.017-35.721h16.753v24.267l-10.103 29.814h1.337c-2.293.395-5.181.641-8.819.641-18.976 0-19.961-6.178-19.961-6.178v-48.544z" fill="#00558b"/><path d="m17.599.607.002 35.71s-.181 2.375 1.809 2.377c2.215.002 2.008-2.366 2.008-2.366l-.017-35.721h16.753v24.267l-10.103 29.814h1.337c-2.293.395-5.181.641-8.819.641-18.976 0-19.961-6.178-19.961-6.178v-48.544z" fill="none" stroke="#fff" stroke-miterlimit="3.864" stroke-width="1.2153"/><path d="m28.116 54.727 53.996.007-16.836-54.067h-18.935z" fill="#00558b"/><path d="m28.116 54.727 53.996.007-16.836-54.067h-18.935z" fill="none" stroke="#fff" stroke-miterlimit="3.864" stroke-width="1.2153"/><path clip-rule="evenodd" d="m71.044 51.649h8.048l-.479-1.532h-7.288c.129-.746.269-1.603.399-2.526h6.097l-.48-1.535h-5.416c.102-.82.187-1.67.254-2.525h4.371l-.479-1.533h-3.796c.137-3.062-.067-5.979-1.062-7.554-3.418-5.403-10.991-7.236-14.824-8.487l-.446 1.575-1.395-.522.442-1.57c.608-1.784.228-3.15 4.1-2.809.332-.32 1.268-2.17 1.063-2.581-1.073-.547-3.685-1.139-3.685-1.139s-.553-.777-1.252-1.063c-1.538-.631-3.185-.742-4.905-.063-.174-.099-.875-.394-1.465-.109-.952.458-.768 1.216-.766 1.247-.186.149-.223.228-.377.396-1.113 1.199-1.876 2.495-2.519 3.987-.119.277-1.484 3.015-2.015 5.079-1.045 4.076-1.072 7.328 0 10.789.308.99.44 1.943.58 2.877h-9.35l-.524 1.534h10.147c.188.844.468 1.681.983 2.527h-11.999l-.525 1.533h13.684c.514.608 1.122 1.292 1.628 1.852 1.248-.594 2.043-1.617 2.503-3.042l-.817-6.105-.912-.589 1.138-1.233 1.087.888.931 7.157c-.461 1.54-1.058 2.662-1.991 3.445h-18.065l-.524 1.534h15.233l-8.182 3.1h36.592l-4.012-1.665c0-.001.111-.499.27-1.338m-10.065-1.549 1.224-2.36-.525-2.559-3.053-1.272c-.359 1.747-.916 3.517-1.667 5.493l-1.606.162c1.809-4.217 2.57-8.363 2.307-12.448l1.397.217c.118 1.845.058 3.516-.185 5.164l4.034 1.681 1.384 7.013z" fill="#fff" fill-rule="evenodd"/><path d="m96.053 51.136h.851v2.583l.605-.038v-2.545h.777v-.579h-2.089z" fill="#00558b"/><path d="m98.952 53.753.237-1.587h.008l.78 1.587h.009l.765-1.587h.009l.251 1.587.591-.072-.594-3.198h-.01l-1.019 2.095-1.014-2.095h-.008l-.584 3.198z" fill="#00558b"/></svg>