<?xml version="1.0" encoding="UTF-8" standalone="no"?>
<!-- Generator: Adobe Illustrator 27.0.0, SVG Export Plug-In . SVG Version: 6.00 Build 0)  -->

<svg
   version="1.1"
   id="Layer_1"
   x="0px"
   y="0px"
   viewBox="0 0 111.5153 100.10765"
   xml:space="preserve"
   sodipodi:docname="uaf-logo.svg"
   width="111.5153"
   height="100.10765"
   inkscape:version="1.3 (0e150ed, 2023-07-21)"
   xmlns:inkscape="http://www.inkscape.org/namespaces/inkscape"
   xmlns:sodipodi="http://sodipodi.sourceforge.net/DTD/sodipodi-0.dtd"
   xmlns="http://www.w3.org/2000/svg"
   xmlns:svg="http://www.w3.org/2000/svg"><defs
   id="defs22" /><sodipodi:namedview
   id="namedview22"
   pagecolor="#ffffff"
   bordercolor="#000000"
   borderopacity="0.25"
   inkscape:showpageshadow="2"
   inkscape:pageopacity="0.0"
   inkscape:pagecheckerboard="0"
   inkscape:deskcolor="#d1d1d1"
   inkscape:zoom="2.2757956"
   inkscape:cx="56.024363"
   inkscape:cy="50.971185"
   inkscape:window-width="1312"
   inkscape:window-height="449"
   inkscape:window-x="0"
   inkscape:window-y="25"
   inkscape:window-maximized="0"
   inkscape:current-layer="Layer_1" />&#10;<style
   type="text/css"
   id="style1">&#10;	.st0{fill:#312E30;}&#10;	.st1{fill:none;stroke:#FFFFFF;stroke-width:1.2153;stroke-miterlimit:3.864;}&#10;	.st2{fill-rule:evenodd;clip-rule:evenodd;fill:#FFFFFF;}&#10;</style>&#10;<path
   class="st0"
   d="m 8.20765,60.00765 v 5.4 c 0,1.4 -1,2.4 -2.7,2.4 -1.3,0 -2.6,-0.7 -2.6,-2.6 v -5 l 1.4,-0.2 v 5 c 0,0.7 0.1,1.5 1.2,1.5 1,0 1.2,-0.7 1.2,-1.6 v -4.8 z"
   id="path1" />&#10;<polygon
   class="st0"
   points="19.5,68.7 19.4,68.7 15,64.2 15,68.5 13.5,68.7 13.5,60.9 18,65.4 18,61 19.5,60.9 "
   id="polygon1"
   transform="translate(-0.89235002,-0.89235002)" />&#10;<polygon
   class="st0"
   points="25.4,60.9 25.4,68.5 24,68.6 24,61 "
   id="polygon2"
   transform="translate(-0.89235002,-0.89235002)" />&#10;<polygon
   class="st0"
   points="30.5,60.9 32.2,65.6 34,60.9 35.5,61 32.2,68.7 29,61 "
   id="polygon3"
   transform="translate(-0.89235002,-0.89235002)" />&#10;<polygon
   class="st0"
   points="42.8,63.9 42.8,65.3 40.5,65.3 40.5,67.2 43.7,67.2 43.2,68.5 39,68.5 39,61 43.1,61 43.3,62.4 40.5,62.4 40.5,63.9 "
   id="polygon4"
   transform="translate(-0.89235002,-0.89235002)" />&#10;<path
   class="st0"
   d="m 46.70765,60.10765 h 2.4 c 1.4,0 2.6,0.7 2.6,2.3 0,0.9 -0.6,1.7 -1.4,2 l 2,3 -1.6,0.4 -2.6,-3.9 v 0 3.8 l -1.4,0.1 z m 1.4,3.4 h 0.5 c 0.7,0 1.4,-0.2 1.4,-1.1 0,-0.9 -0.7,-1 -1.4,-1 h -0.5 z"
   id="path4" />&#10;<path
   class="st0"
   d="m 56.40765,65.60765 c 0.4,0.4 0.6,0.8 1.4,0.8 0.5,0 1,-0.4 1,-0.9 0,-1.5 -3.3,-0.6 -3.3,-3.3 0,-1.4 1.1,-2.3 2.6,-2.3 0.7,0 1.7,0.4 2.1,1 l -0.9,1.1 c -0.4,-0.4 -0.9,-0.7 -1.3,-0.7 -0.5,0 -1,0.2 -1,0.9 0,1.3 3.3,0.4 3.3,3.3 0,1.4 -1.1,2.2 -2.5,2.2 -0.9,0 -1.7,-0.4 -2.4,-1.2 z"
   id="path5" />&#10;<polygon
   class="st0"
   points="66.8,60.9 66.8,68.5 65.3,68.6 65.3,61 "
   id="polygon5"
   transform="translate(-0.89235002,-0.89235002)" />&#10;<polygon
   class="st0"
   points="72.5,62.4 70.4,62.4 70.8,61 75.8,61 75.8,62.4 73.9,62.4 73.9,68.5 72.5,68.6 "
   id="polygon6"
   transform="translate(-0.89235002,-0.89235002)" />&#10;<polygon
   class="st0"
   points="80.2,68.4 81.4,65.8 79,61.3 80.4,60.9 82.2,64.3 83.6,60.9 85.1,61.3 81.7,68.7 "
   id="polygon7"
   transform="translate(-0.89235002,-0.89235002)" />&#10;<path
   class="st0"
   d="m 97.20765,60.00765 c 2.2,0 4,1.8 4,3.9 0,2.2 -1.8,3.9 -4,3.9 -2.2,0 -4,-1.8 -4,-3.9 0,-2.2 1.8,-3.9 4,-3.9 m 0,6.3 c 1.3,0 2.4,-1.1 2.4,-2.4 0,-1.3 -1.1,-2.5 -2.4,-2.5 -1.3,0 -2.4,1.1 -2.4,2.5 -0.1,1.3 1,2.4 2.4,2.4"
   id="path7" />&#10;<polygon
   class="st0"
   points="109.6,65.5 107.6,65.5 107.6,68.5 106.1,68.7 106.1,61 110,61 110.3,62.4 107.6,62.4 107.6,64.1 109.6,64.1 "
   id="polygon8"
   transform="translate(-0.89235002,-0.89235002)" />&#10;<path
   class="st0"
   d="m 2.30765,87.00765 8.4,-16.9 v 0 l 8.7,16.9 -3.4,0.5 -2,-4.2 h -6.4 l -1.9,4.2 z m 6.6,-6.6 h 3.7 l -1.9,-4.5 z"
   id="path8" />&#10;<polygon
   class="st0"
   points="25.2,88 25.2,71.3 28.4,70.9 28.4,84.9 34.5,84.9 33.7,88 "
   id="polygon9"
   transform="translate(-0.89235002,-0.89235002)" />&#10;<path
   class="st0"
   d="m 37.30765,87.00765 8.4,-16.9 v 0 l 8.7,16.9 -3.4,0.5 -2,-4.2 h -6.4 l -1.9,4.2 z m 6.6,-6.6 h 3.7 l -1.9,-4.5 z"
   id="path9" />&#10;<path
   class="st0"
   d="m 60.50765,82.60765 c 0.8,0.9 1.4,1.8 3.2,1.8 1.1,0 2.1,-0.9 2.1,-1.9 0,-3.3 -7.3,-1.4 -7.3,-7.3 0,-3.2 2.4,-5.1 5.7,-5.1 1.7,0 3.7,0.9 4.7,2.3 l -2,2.3 c -0.8,-0.8 -2,-1.5 -2.9,-1.5 -1.1,0 -2.1,0.5 -2.1,2 0,2.8 7.3,0.8 7.3,7.4 0,3 -2.5,5 -5.7,5 -2.1,0 -3.8,-0.9 -5.2,-2.6 z"
   id="path10" />&#10;<polygon
   class="st0"
   points="79.4,79.4 79.4,88 76.2,88.2 76.2,71.3 79.4,70.9 79.4,78.7 79.5,78.7 85.3,70.9 88.4,72.2 83,79.1 88.6,87.2 85.3,88.4 79.5,79.4 "
   id="polygon10"
   transform="translate(-0.89235002,-0.89235002)" />&#10;<path
   class="st0"
   d="m 91.40765,87.00765 8.4,-16.9 v 0 l 8.7,16.9 -3.4,0.5 -2,-4.2 h -6.4 l -1.9,4.2 z m 6.6,-6.6 h 3.7 l -1.9,-4.5 z"
   id="path11" />&#10;<polygon
   class="st0"
   points="7.3,97.4 5.1,97.4 5.1,100.7 3.4,100.9 3.4,92.4 7.7,92.4 8.1,94 5.1,94 5.1,95.9 7.3,95.9 "
   id="polygon11"
   transform="translate(-0.89235002,-0.89235002)" />&#10;<path
   class="st0"
   d="m 12.40765,99.80765 4.2,-8.5 v 0 l 4.4,8.5 -1.7,0.3 -1,-2.1 h -3.2 l -1,2.1 z m 3.3,-3.3 h 1.9 l -1,-2.3 z"
   id="path12" />&#10;<polygon
   class="st0"
   points="30.2,92.2 30.2,100.7 28.6,100.8 28.6,92.4 "
   id="polygon12"
   transform="translate(-0.89235002,-0.89235002)" />&#10;<path
   class="st0"
   d="m 37.00765,91.50765 h 2.7 c 1.6,0 2.9,0.8 2.9,2.6 0,1 -0.6,1.9 -1.6,2.2 l 2.3,3.4 -1.7,0.4 -2.8,-4.4 v 0 4.2 l -1.6,0.1 z m 1.6,3.8 h 0.6 c 0.8,0 1.6,-0.2 1.6,-1.2 0,-1 -0.7,-1.1 -1.5,-1.1 h -0.6 z"
   id="path13" />&#10;<path
   class="st0"
   d="m 50.00765,91.50765 h 2.9 c 2,0 2.4,1.5 2.4,2.3 0,0.8 -0.4,1.4 -1.1,1.7 0.9,0.3 1.5,1 1.5,2 0,1.3 -1,2.3 -2.6,2.3 h -3.1 z m 1.6,3.4 h 0.9 c 0.6,0 1.1,-0.4 1.1,-0.9 0,-0.5 -0.4,-0.9 -1.1,-0.9 h -0.9 z m 0,3.4 h 0.8 c 1.1,0 1.5,-0.3 1.5,-1 0,-0.7 -0.4,-1 -1.5,-1 h -0.8 z"
   id="path14" />&#10;<path
   class="st0"
   d="m 61.70765,99.80765 4.2,-8.5 v 0 l 4.4,8.5 -1.7,0.3 -1,-2.1 h -3.2 l -1,2.1 z m 3.3,-3.3 h 1.9 l -1,-2.3 z"
   id="path15" />&#10;<polygon
   class="st0"
   points="84.5,100.9 84.4,100.9 79.4,96 79.4,100.7 77.8,100.9 77.8,92.2 77.9,92.2 82.8,97.3 82.8,92.4 84.5,92.2 "
   id="polygon15"
   transform="translate(-0.89235002,-0.89235002)" />&#10;<polygon
   class="st0"
   points="93.8,96.4 93.8,100.7 92.2,100.8 92.2,92.4 93.8,92.2 93.8,96.1 93.8,96.1 96.7,92.2 98.3,92.8 95.6,96.3 98.4,100.3 96.7,100.9 93.8,96.4 "
   id="polygon16"
   transform="translate(-0.89235002,-0.89235002)" />&#10;<path
   class="st0"
   d="m 104.80765,97.60765 c 0.4,0.5 0.7,0.9 1.6,0.9 0.6,0 1.1,-0.4 1.1,-1 0,-1.7 -3.6,-0.7 -3.6,-3.7 0,-1.6 1.2,-2.6 2.8,-2.6 0.8,0 1.8,0.5 2.3,1.1 l -1,1.2 c -0.4,-0.4 -1,-0.8 -1.4,-0.8 -0.6,0 -1.1,0.2 -1.1,1 0,1.4 3.6,0.4 3.6,3.7 0,1.5 -1.3,2.5 -2.8,2.5 -1,0 -1.9,-0.4 -2.6,-1.3 z"
   id="path16" />&#10;<polygon
   class="st0"
   points="92.7,13.5 92.7,18.3 107.4,18.3 107.4,30.4 92.6,30.4 92.6,55.6 83.2,55.6 74.3,26.9 74.3,1.5 111.8,1.5 111.8,13.5 "
   id="polygon17"
   transform="translate(-0.89235002,-0.89235002)" />&#10;<polygon
   class="st1"
   points="92.7,13.5 92.7,18.3 107.4,18.3 107.4,30.4 92.6,30.4 92.6,55.6 83.2,55.6 74.3,26.9 74.3,1.5 111.8,1.5 111.8,13.5 "
   id="polygon18"
   transform="translate(-0.89235002,-0.89235002)" />&#10;<path
   class="st0"
   d="M 17.70765,0.60764998 V 36.30765 c 0,0 -0.2,2.4 1.8,2.4 2.2,0 2,-2.4 2,-2.4 V 0.60764998 h 16.8 V 24.90765 l -10.2,29.8 h 1.3 c -2.3,0.4 -5.2,0.6 -8.8,0.6 -19,0 -20.00000002,-6.2 -20.00000002,-6.2 V 0.60764998 Z"
   id="path18" />&#10;<path
   class="st1"
   d="M 17.70765,0.60764998 V 36.30765 c 0,0 -0.2,2.4 1.8,2.4 2.2,0 2,-2.4 2,-2.4 V 0.60764998 h 16.8 V 24.90765 l -10.2,29.8 h 1.3 c -2.3,0.4 -5.2,0.6 -8.8,0.6 -19,0 -20.00000002,-6.2 -20.00000002,-6.2 V 0.60764998 Z"
   id="path19" />&#10;<polygon
   class="st0"
   points="66.2,1.5 47.3,1.5 29.1,55.6 83.1,55.6 "
   id="polygon19"
   transform="translate(-0.89235002,-0.89235002)" />&#10;<polygon
   class="st1"
   points="66.2,1.5 47.3,1.5 29.1,55.6 83.1,55.6 "
   id="polygon20"
   transform="translate(-0.89235002,-0.89235002)" />&#10;<path
   class="st2"
   d="m 71.10765,51.60765 h 8 l -0.4,-1.5 h -7.3 c 0.1,-0.7 0.3,-1.6 0.4,-2.5 h 6.1 l -0.5,-1.5 h -5.4 c 0.1,-0.8 0.2,-1.7 0.3,-2.5 h 4.4 l -0.6,-1.6 h -3.8 c 0.1,-3.1 -0.1,-6 -1.1,-7.6 -3.4,-5.4 -11,-7.2 -14.8,-8.5 l -0.4,1.6 -1.4,-0.5 0.4,-1.6 c 0.6,-1.8 0.2,-3.1 4.1,-2.8 0.3,-0.3 1.3,-2.2 1.1,-2.6 -1.1,-0.5 -3.7,-1.1 -3.7,-1.1 0,0 -0.6,-0.8 -1.3,-1.1 -1.5,-0.6 -3.2,-0.7 -4.9,-0.1 -0.2,-0.1 -0.9,-0.4 -1.5,-0.1 -1,0.5 -0.8,1.2 -0.8,1.2 -0.2,0.1 -0.2,0.2 -0.4,0.4 -1.1,1.2 -1.9,2.5 -2.5,4 -0.1,0.3 -1.5,3 -2,5.1 -1,4.1 -1.1,7.3 0,10.8 0.3,1 0.4,1.9 0.6,2.9 h -9.3 l -0.5,1.5 h 10.2 c 0.2,0.8 0.5,1.7 1,2.5 h -12 l -0.5,1.5 h 13.7 c 0.5,0.6 1.1,1.3 1.6,1.9 1.2,-0.6 2,-1.6 2.5,-3 l -0.8,-6.1 -0.9,-0.6 1.1,-1.2 1.1,0.9 0.9,7.2 c -0.5,1.5 -1.1,2.7 -2,3.4 h -18.1 l -0.5,1.5 h 15.2 l -8.2,3.1 h 36.6 l -4,-1.7 c 0,0.1 0.1,-0.4 0.3,-1.3 m -10.1,-1.5 1.2,-2.4 -0.5,-2.6 -3.1,-1.3 c -0.4,1.7 -0.9,3.5 -1.7,5.5 l -1.6,0.2 c 1.8,-4.2 2.6,-8.4 2.3,-12.4 l 1.4,0.2 c 0.1,1.8 0.1,3.5 -0.2,5.2 l 4,1.7 1.4,7 z"
   id="path20" />&#10;<polygon
   class="st0"
   points="99.2,51.4 97.2,51.4 97,52 97.9,52 97.9,54.6 98.5,54.6 98.5,52 99.2,52 "
   id="polygon21"
   transform="translate(-0.89235002,-0.89235002)" />&#10;<polygon
   class="st0"
   points="101.7,53 102,54.6 102.6,54.6 102,51.4 102,51.4 100.9,53.4 99.9,51.4 99.9,51.4 99.3,54.6 99.9,54.6 100.1,53 100.2,53 100.9,54.6 101.7,53 "
   id="polygon22"
   transform="translate(-0.89235002,-0.89235002)" />&#10;</svg>
