<?xml version="1.0" encoding="UTF-8"?><svg id="Layer_1" xmlns="http://www.w3.org/2000/svg" viewBox="0 0 291.69 291.69"><defs><style>.cls-1{fill:#8ba09a;}.cls-1,.cls-2{stroke-width:0px;}.cls-2{fill:#fff;}</style></defs><rect class="cls-1" width="291.69" height="291.69" rx="46.61" ry="46.61"/><path class="cls-2" d="m103.54,94.43l-3.43,26.56c-7.47,1.7-14.48,4.76-20.82,8.8l-21.37-16.34-27.66,36.21,21.37,16.34c-1.09,3.55-1.94,7.22-2.43,11.03s-.61,7.57-.45,11.29l-24.83,10.37,17.55,42.06,24.83-10.37c5.1,5.52,11.1,10.26,17.9,13.8l-3.43,26.56,45.21,5.84,3.43-26.56c7.47-1.7,14.48-4.76,20.82-8.8l21.37,16.34,27.66-36.21-21.37-16.34c1.09-3.55,1.94-7.22,2.43-11.03s.61-7.57.45-11.29l24.83-10.37-17.55-42.06-24.83,10.37c-5.1-5.52-11.1-10.26-17.9-13.8l3.43-26.56-45.21-5.84Zm16.18,52.65c21.22,2.74,36.21,22.17,33.46,43.4-2.74,21.22-22.17,36.21-43.4,33.46-21.22-2.74-36.21-22.17-33.46-43.4,2.74-21.22,22.17-36.21,43.4-33.46Z"/><polygon class="cls-2" points="196.71 116.4 188.92 100.07 204.18 80.34 213.51 103.47 201.58 117.08 210.32 124.74 218.54 115.58 222.31 125.03 233.23 120.58 229.33 111.11 241.6 112.07 242.59 100.42 224.42 99.02 214.95 76 239.66 79.42 245.47 96.6 256.67 92.81 252.69 81.22 262.79 82.62 264.39 71.06 254.29 69.66 261.28 59.46 251.54 52.78 241.26 67.86 216.55 64.44 231.93 44.73 249.8 48.32 252 36.84 239.93 34.43 246.26 26.37 236.96 19.13 230.76 27.2 225.34 16.16 214.85 21.16 222.64 37.49 207.38 57.22 198.05 34.09 209.98 20.48 201.24 12.82 193.03 21.98 189.25 12.53 178.34 16.98 182.24 26.45 169.96 25.49 168.97 37.14 187.14 38.54 196.59 61.68 171.88 58.26 166.09 40.96 154.89 44.75 158.86 56.46 148.75 55.06 147.15 66.62 157.26 68.02 150.28 78.1 160.03 84.78 170.28 69.82 194.99 73.24 179.63 92.83 161.77 89.24 159.56 100.72 171.63 103.13 165.3 111.19 174.6 118.43 180.8 110.36 186.22 121.4 196.71 116.4"/></svg>